<svg width="3468" height="834" xmlns="http://www.w3.org/2000/svg" xmlns:xlink="http://www.w3.org/1999/xlink" overflow="hidden"><defs><clipPath id="clip0"><rect x="211" y="718" width="3468" height="834"/></clipPath><clipPath id="clip1"><rect x="1421" y="1148" width="179" height="179"/></clipPath><clipPath id="clip2"><rect x="1421" y="1148" width="179" height="179"/></clipPath><clipPath id="clip3"><rect x="1421" y="1148" width="179" height="179"/></clipPath><linearGradient x1="90.2856" y1="186.01" x2="87.5167" y2="-80.1" gradientUnits="userSpaceOnUse" spreadMethod="pad" id="fill4"><stop offset="0" stop-color="#198AB3"/><stop offset="0" stop-color="#198AB3"/><stop offset="0.09" stop-color="#22A5CB"/><stop offset="0.19" stop-color="#29BADE"/><stop offset="0.29" stop-color="#2EC9EB"/><stop offset="0.42" stop-color="#31D1F3"/><stop offset="0.62" stop-color="#32D4F5"/><stop offset="1" stop-color="#32D4F5"/></linearGradient><linearGradient x1="798.5" y1="949" x2="798.5" y2="994" gradientUnits="userSpaceOnUse" spreadMethod="reflect" id="fill5"><stop offset="0" stop-color="#D2D2D2"/><stop offset="0.5" stop-color="#C8C8C8"/><stop offset="1" stop-color="#C0C0C0"/></linearGradient><linearGradient x1="798.5" y1="994" x2="798.5" y2="1097" gradientUnits="userSpaceOnUse" spreadMethod="reflect" id="fill6"><stop offset="0" stop-color="#D2D2D2"/><stop offset="0.5" stop-color="#C8C8C8"/><stop offset="1" stop-color="#C0C0C0"/></linearGradient><linearGradient x1="64.5001" y1="0" x2="64.5001" y2="45" gradientUnits="userSpaceOnUse" spreadMethod="reflect" id="fill7"><stop offset="0" stop-color="#D2D2D2"/><stop offset="0.5" stop-color="#C8C8C8"/><stop offset="1" stop-color="#C0C0C0"/></linearGradient><linearGradient x1="798.5" y1="1016" x2="798.5" y2="1066" gradientUnits="userSpaceOnUse" spreadMethod="reflect" id="fill8"><stop offset="0" stop-color="#D2D2D2"/><stop offset="0.5" stop-color="#C8C8C8"/><stop offset="1" stop-color="#C0C0C0"/></linearGradient></defs><g clip-path="url(#clip0)" transform="translate(-211 -718)"><g clip-path="url(#clip1)"><g clip-path="url(#clip2)"><g clip-path="url(#clip3)"><path d="M132.214 83.4622C132.214 94.2214 123.492 102.943 112.733 102.943 101.974 102.943 93.2522 94.2214 93.2522 83.4622 93.2522 72.7031 101.974 63.9811 112.733 63.9811 123.492 63.9811 132.214 72.7031 132.214 83.4622Z" fill="#FFFFFF" transform="matrix(1 0 0 1.00562 1421 1148)"/><path d="M160.695 141.411C160.695 149.876 153.832 156.739 145.367 156.739 136.901 156.739 130.039 149.876 130.039 141.411 130.039 132.946 136.901 126.083 145.367 126.083 153.832 126.083 160.695 132.946 160.695 141.411Z" fill="#FFFFFF" transform="matrix(1 0 0 1.00562 1421 1148)"/><path d="M97.9 130.929C97.9 138.193 92.0116 144.081 84.7478 144.081 77.484 144.081 71.5956 138.193 71.5956 130.929 71.5956 123.665 77.484 117.777 84.7478 117.777 92.0116 117.777 97.9 123.665 97.9 130.929Z" fill="#FFFFFF" transform="matrix(1 0 0 1.00562 1421 1148)"/><path d="M91.5711 30.7545C91.5711 39.7659 84.2659 47.0711 75.2545 47.0711 66.243 47.0711 58.9378 39.7659 58.9378 30.7545 58.9378 21.743 66.243 14.4378 75.2545 14.4378 84.2659 14.4378 91.5711 21.743 91.5711 30.7545Z" fill="#FFFFFF" transform="matrix(1 0 0 1.00562 1421 1148)"/><path d="M44.6978 90.8789C44.6978 98.1427 38.8093 104.031 31.5456 104.031 24.2818 104.031 18.3933 98.1427 18.3933 90.8789 18.3933 83.6151 24.2818 77.7267 31.5456 77.7267 38.8093 77.7267 44.6978 83.6151 44.6978 90.8789Z" fill="#FFFFFF" transform="matrix(1 0 0 1.00562 1421 1148)"/><path d="M148.927 138.346 115.997 80.6934 112.733 82.5723 115.403 80.5945 78.1222 27.59 71.2989 32.5345 104.328 79.5067 31.15 85.5389 31.8422 94.0434 104.328 88.0111 80.2978 127.962 87.5167 132.313 112.239 91.1756 141.609 142.499 148.927 138.346Z" fill="#949494" transform="matrix(1 0 0 1.00562 1421 1148)"/><path d="M173.352 12.1633 173.352 12.1633C173.352 8.17645 170.12 4.94445 166.133 4.94445L128.556 4.94445C126.589 4.94445 124.996 6.53831 124.996 8.50445L124.996 22.4478C124.996 24.4139 126.589 26.0078 128.556 26.0078L151.794 26.0078 151.794 48.7522C151.846 50.7511 153.455 52.3592 155.453 52.4111L169.298 52.4111C171.297 52.3592 172.905 50.7511 172.957 48.7522L172.957 12.1633Z" fill="#949494" transform="matrix(1 0 0 1.00562 1421 1148)"/><path d="M49.4445 151.992 25.81 151.992 25.81 129.248C25.7581 127.249 24.15 125.641 22.1511 125.589L8.30667 125.589C6.30783 125.641 4.69972 127.249 4.64778 129.248L4.64778 165.837 4.64778 165.837C4.70187 169.785 7.91809 172.957 11.8667 172.957L49.4445 172.957C51.4106 172.957 53.0045 171.363 53.0045 169.397L53.0045 155.552C53.0045 153.586 51.4106 151.992 49.4445 151.992Z" fill="#949494" transform="matrix(1 0 0 1.00562 1421 1148)"/><path d="M112.733 64.1789C123.656 64.1823 132.508 73.0399 132.505 83.9629 132.502 94.8858 123.644 103.738 112.721 103.734 101.798 103.731 92.946 94.8735 92.9494 83.9505 92.9495 83.7877 92.9515 83.625 92.9556 83.4622 93.2239 72.7328 102.001 64.1756 112.733 64.1789ZM59.3334 30.7545C59.2814 39.8204 66.5886 47.2119 75.6545 47.2639 84.7204 47.3159 92.112 40.0086 92.1639 30.9427 92.2159 21.8768 84.9087 14.4853 75.8428 14.4333 75.6796 14.4324 75.5165 14.4339 75.3534 14.4378 66.458 14.5995 59.3319 21.8576 59.3334 30.7545ZM18.3933 90.78C18.3933 98.0438 24.2818 103.932 31.5456 103.932 38.8093 103.932 44.6978 98.0438 44.6978 90.78 44.6978 83.5163 38.8093 77.6278 31.5456 77.6278 24.2818 77.6278 18.3933 83.5163 18.3933 90.78ZM71.5956 130.83C71.541 138.148 77.4293 144.125 84.7474 144.18 92.0656 144.234 98.0424 138.346 98.0971 131.028 98.1517 123.71 92.2634 117.733 84.9452 117.678 84.9124 117.678 84.8795 117.678 84.8467 117.678 77.5831 117.623 71.6506 123.467 71.5959 130.731 71.5957 130.764 71.5956 130.797 71.5956 130.83ZM130.138 141.411C130.083 149.876 136.901 156.783 145.366 156.838 153.832 156.892 160.738 150.074 160.793 141.609 160.847 133.144 154.029 126.237 145.564 126.183 145.531 126.182 145.498 126.182 145.466 126.182 137.11 126.073 130.248 132.758 130.139 141.113 130.137 141.212 130.137 141.312 130.138 141.411Z" fill="url(#fill4)" transform="matrix(1 0 0 1.00562 1421 1148)"/></g></g></g><rect x="315.5" y="1079.5" width="499" height="317" stroke="#4472C4" stroke-width="4.58333" stroke-miterlimit="8" fill="#FFFFFF"/><text font-family="Yu Gothic,Yu Gothic_MSFontService,sans-serif" font-weight="400" font-size="46" transform="matrix(1 0 0 1 444.892 1197)">Device<tspan font-size="46" x="156.979" y="0">App</tspan><tspan font-size="46" x="-37.2396" y="55">（</tspan><tspan font-size="46" x="8.59375" y="55">Simulator on </tspan><tspan font-size="46" x="0.847901" y="110">Windows</tspan><tspan font-size="46" x="192.775" y="110">）</tspan></text><path d="M814.5 1236.21 1416.17 1236.21 1416.17 1240.79 814.5 1240.79ZM1389.82 1220.48 1420.72 1238.5 1389.82 1256.52C1388.73 1257.16 1387.33 1256.79 1386.69 1255.7 1386.05 1254.6 1386.42 1253.2 1387.52 1252.56L1415.02 1236.52 1415.02 1240.48 1387.52 1224.44C1386.42 1223.8 1386.05 1222.4 1386.69 1221.3 1387.33 1220.21 1388.73 1219.84 1389.82 1220.48Z" fill="#4472C4"/><text font-family="Yu Gothic,Yu Gothic_MSFontService,sans-serif" font-weight="400" font-size="37" transform="matrix(1 0 0 1 1423.61 1386)">IoT Hub</text><path d="M734 994 745.25 949 851.75 949 863 994Z" stroke="#FFFFFF" stroke-width="2.29167" stroke-miterlimit="8" fill="url(#fill5)" fill-rule="evenodd"/><rect x="734" y="994" width="129" height="103" stroke="#FFFFFF" stroke-width="2.29167" stroke-miterlimit="8" fill="url(#fill6)"/><path d="M0 45 11.25 0 117.75 0 129 45Z" stroke="#FFFFFF" stroke-width="2.29167" stroke-miterlimit="8" fill="url(#fill7)" fill-rule="evenodd" transform="matrix(1 0 0 -1 734 1140)"/><path d="M773 1041C773 1027.19 784.417 1016 798.5 1016 812.583 1016 824 1027.19 824 1041 824 1054.81 812.583 1066 798.5 1066 784.417 1066 773 1054.81 773 1041Z" fill="url(#fill8)" fill-rule="evenodd"/><path d="M759.182 1040.99 759.963 1033.19 762.325 1025.81 766.023 1019.19 770.826 1013.52 776.582 1008.82 783.22 1005.26 790.633 1002.95 798.5 1002.18 806.367 1002.95 813.78 1005.26 820.369 1008.8 826.255 1013.52 831.011 1019.25 834.676 1025.81 837.038 1033.19 837.818 1040.99 837.04 1048.86 834.676 1056.25 831.011 1062.81 826.255 1068.54 820.369 1073.27 813.708 1076.84 806.285 1079.06 798.5 1079.82 790.715 1079.06 783.292 1076.84 776.582 1073.24 770.826 1068.54 766.023 1062.87 762.325 1056.25 759.96 1048.86ZM776.208 1045.5 777.535 1049.65 779.646 1053.43 782.435 1056.72 785.784 1059.45 789.617 1061.51 793.907 1062.79 798.5 1063.24 803.093 1062.79 807.384 1061.51 811.226 1059.45 814.624 1056.72 817.348 1053.44 819.465 1049.65 820.792 1045.5 821.237 1041 820.793 1036.56 819.465 1032.41 817.348 1028.62 814.624 1025.35 811.226 1022.62 807.369 1020.55 803.077 1019.21 798.5 1018.76 793.924 1019.21 789.631 1020.55 785.784 1022.61 782.435 1025.35 779.646 1028.64 777.535 1032.41 776.208 1036.56 775.764 1041ZM781.291 1041.01 781.623 1037.69 782.605 1034.61 784.186 1031.79 786.305 1029.29 788.851 1027.21 791.768 1025.64 795.02 1024.63 798.5 1024.29 801.98 1024.63 805.232 1025.64 808.179 1027.22 810.747 1029.29 812.794 1031.75 814.395 1034.61 815.378 1037.69 815.709 1041.01 815.376 1044.38 814.395 1047.45 812.794 1050.31 810.747 1052.78 808.179 1054.84 805.276 1056.4 802.029 1057.37 798.5 1057.71 794.971 1057.37 791.725 1056.4 788.851 1054.86 786.305 1052.78 784.186 1050.28 782.605 1047.45 781.624 1044.38ZM787.04 1043.26 787.676 1045.25 788.727 1047.13 790.174 1048.84 791.919 1050.26 793.833 1051.29 796.035 1051.94 798.5 1052.18 800.965 1051.94 803.167 1051.29 805.131 1050.23 806.871 1048.84 808.239 1047.19 809.325 1045.25 809.96 1043.26 810.182 1041.01 809.963 1038.81 809.325 1036.82 808.239 1034.87 806.871 1033.23 805.131 1031.83 803.095 1030.74 800.883 1030.05 798.5 1029.82 796.117 1030.05 793.905 1030.74 791.919 1031.8 790.174 1033.23 788.727 1034.93 787.676 1036.82 787.038 1038.81 786.818 1041.01Z" fill="#FF0000"/><path d="M2.1975-0.650171 8.43168 20.4206 4.03668 21.721-2.1975 0.650171ZM18.1188 12.7748 12.7359 43.0458-8.25117 20.5768Z" fill="#FF0000" transform="matrix(1 0 0 -1 792.5 1060.55)"/><rect x="955" y="889" width="984" height="200" fill="#FFFFFF"/><text fill="#161616" font-family="Arial,Arial_MSFontService,sans-serif" font-weight="400" font-size="46" transform="matrix(1 0 0 1 988.409 951)">{ "deviceid": "thermostatic-chamber<tspan font-size="46" x="710.417" y="0">-</tspan>1", <tspan font-size="46" x="0" y="55">"temperature": 30.009999991281315, </tspan><tspan font-size="46" x="0" y="110">"timestamp": "2021/09/28T10:21:02.895Z" }</tspan></text><rect x="211.5" y="718.5" width="3467" height="833" stroke="#2F528F" stroke-width="1.14583" stroke-miterlimit="8" fill="none"/></g></svg>