<svg width="3467" height="1579" xmlns="http://www.w3.org/2000/svg" xmlns:xlink="http://www.w3.org/1999/xlink" overflow="hidden"><defs><clipPath id="clip0"><rect x="150" y="350" width="3467" height="1579"/></clipPath><clipPath id="clip1"><rect x="1478" y="1372" width="178" height="181"/></clipPath><clipPath id="clip2"><rect x="1478" y="1372" width="178" height="181"/></clipPath><clipPath id="clip3"><rect x="1478" y="1372" width="178" height="181"/></clipPath><linearGradient x1="89.2965" y1="132.313" x2="89.2965" y2="45.7855" gradientUnits="userSpaceOnUse" spreadMethod="pad" id="fill4"><stop offset="0" stop-color="#198AB3"/><stop offset="0.4" stop-color="#25AED3"/><stop offset="0.78" stop-color="#2FCAEC"/><stop offset="1" stop-color="#32D4F5"/></linearGradient><clipPath id="clip5"><rect x="1985" y="1372" width="178" height="181"/></clipPath><clipPath id="clip6"><rect x="1985" y="1372" width="178" height="181"/></clipPath><clipPath id="clip7"><rect x="1985" y="1372" width="178" height="181"/></clipPath><linearGradient x1="88.99" y1="0.801539" x2="88.99" y2="177.198" gradientUnits="userSpaceOnUse" spreadMethod="pad" id="fill8"><stop offset="0" stop-color="#B3B2B3"/><stop offset="0.216" stop-color="#AFAEAF"/><stop offset="0.44" stop-color="#A2A2A2"/><stop offset="0.577" stop-color="#979797"/><stop offset="1" stop-color="#979797"/></linearGradient><clipPath id="clip9"><rect x="1731" y="1668" width="179" height="180"/></clipPath><clipPath id="clip10"><rect x="1731" y="1668" width="179" height="180"/></clipPath><clipPath id="clip11"><rect x="1731" y="1668" width="179" height="180"/></clipPath><linearGradient x1="89.4999" y1="157.42" x2="89.4999" y2="57.5782" gradientUnits="userSpaceOnUse" spreadMethod="pad" id="fill12"><stop offset="0" stop-color="#B3B3B3"/><stop offset="0.26" stop-color="#C1C1C1"/><stop offset="1" stop-color="#E6E6E6"/></linearGradient><clipPath id="clip13"><rect x="1040" y="1372" width="179" height="181"/></clipPath><clipPath id="clip14"><rect x="1040" y="1372" width="179" height="181"/></clipPath><clipPath id="clip15"><rect x="1040" y="1372" width="179" height="181"/></clipPath><linearGradient x1="90.2856" y1="186.01" x2="87.5167" y2="-80.1" gradientUnits="userSpaceOnUse" spreadMethod="pad" id="fill16"><stop offset="0" stop-color="#198AB3"/><stop offset="0" stop-color="#198AB3"/><stop offset="0.09" stop-color="#22A5CB"/><stop offset="0.19" stop-color="#29BADE"/><stop offset="0.29" stop-color="#2EC9EB"/><stop offset="0.42" stop-color="#31D1F3"/><stop offset="0.62" stop-color="#32D4F5"/><stop offset="1" stop-color="#32D4F5"/></linearGradient><clipPath id="clip17"><rect x="2264" y="988" width="181" height="181"/></clipPath><clipPath id="clip18"><rect x="2264" y="988" width="181" height="181"/></clipPath><clipPath id="clip19"><rect x="2264" y="988" width="181" height="181"/></clipPath><linearGradient x1="2357.1" y1="985.38" x2="2326.83" y2="1188.41" gradientUnits="userSpaceOnUse" spreadMethod="pad" id="fill20"><stop offset="0" stop-color="#32BEDD"/><stop offset="1" stop-color="#198AB3"/></linearGradient><linearGradient x1="2372.38" y1="1062.47" x2="2408.61" y2="1178.6" gradientUnits="userSpaceOnUse" spreadMethod="pad" id="fill21"><stop offset="0" stop-color="#50E6FF"/><stop offset="0.997" stop-color="#32BEDD"/><stop offset="1" stop-color="#32BEDD"/></linearGradient><linearGradient x1="2263.33" y1="1029.91" x2="2390.02" y2="1097.34" gradientUnits="userSpaceOnUse" spreadMethod="pad" id="fill22"><stop offset="0" stop-color="#FFFFFF"/><stop offset="1" stop-color="#9CEBFF"/></linearGradient><clipPath id="clip23"><rect x="2591" y="987" width="179" height="179"/></clipPath><clipPath id="clip24"><rect x="2591" y="987" width="179" height="179"/></clipPath><clipPath id="clip25"><rect x="2591" y="987" width="179" height="179"/></clipPath><linearGradient x1="2670.52" y1="1064.14" x2="2670.52" y2="1025.08" gradientUnits="userSpaceOnUse" spreadMethod="pad" id="fill26"><stop offset="0" stop-color="#5E9624"/><stop offset="1" stop-color="#76BC2D"/></linearGradient><linearGradient x1="2670.52" y1="1129.02" x2="2670.52" y2="1089.95" gradientUnits="userSpaceOnUse" spreadMethod="pad" id="fill27"><stop offset="0" stop-color="#5E9624"/><stop offset="1" stop-color="#76BC2D"/></linearGradient><clipPath id="clip28"><rect x="1471" y="988" width="178" height="178"/></clipPath><clipPath id="clip29"><rect x="1471" y="988" width="178" height="178"/></clipPath><clipPath id="clip30"><rect x="1471" y="988" width="178" height="178"/></clipPath><linearGradient x1="1580.95" y1="1151.92" x2="1580.95" y2="1001.12" gradientUnits="userSpaceOnUse" spreadMethod="pad" id="fill31"><stop offset="0" stop-color="#949494"/><stop offset="0.33" stop-color="#9B9B9B"/><stop offset="0.82" stop-color="#AEAFB0"/><stop offset="1" stop-color="#B6B8B9"/></linearGradient><clipPath id="clip32"><rect x="1732" y="988" width="177" height="178"/></clipPath><clipPath id="clip33"><rect x="1732" y="988" width="177" height="178"/></clipPath><clipPath id="clip34"><rect x="1732" y="988" width="177" height="178"/></clipPath><clipPath id="clip35"><rect x="1986" y="987" width="180" height="179"/></clipPath><clipPath id="clip36"><rect x="1986" y="987" width="180" height="179"/></clipPath><clipPath id="clip37"><rect x="1986" y="987" width="180" height="179"/></clipPath><linearGradient x1="90.237" y1="166.697" x2="90.237" y2="8.88274" gradientUnits="userSpaceOnUse" spreadMethod="pad" id="fill38"><stop offset="0" stop-color="#FEA11B"/><stop offset="0.284" stop-color="#FEA51A"/><stop offset="0.547" stop-color="#FEB018"/><stop offset="0.8" stop-color="#FFC314"/><stop offset="1" stop-color="#FFD70F"/></linearGradient><clipPath id="clip39"><rect x="2520" y="1372" width="180" height="181"/></clipPath><clipPath id="clip40"><rect x="2520" y="1372" width="180" height="181"/></clipPath><clipPath id="clip41"><rect x="2520" y="1372" width="180" height="181"/></clipPath><radialGradient cx="13428.8" cy="3518.86" r="56.67" gradientUnits="userSpaceOnUse" spreadMethod="pad" id="fill42" gradientTransform="matrix(1.49167 0 0 1.49167 -17421.9 -3786.48)"><stop offset="0" stop-color="#5EA0EF"/><stop offset="0.18" stop-color="#5EA0EF"/><stop offset="1" stop-color="#0078D4"/></radialGradient><linearGradient x1="2563.76" y1="1487.16" x2="2563.46" y2="1447.88" gradientUnits="userSpaceOnUse" spreadMethod="pad" id="fill43"><stop offset="0" stop-color="#CCCCCC"/><stop offset="1" stop-color="#FCFCFC"/></linearGradient><linearGradient x1="2620.74" y1="1526.64" x2="2620.74" y2="1491.34" gradientUnits="userSpaceOnUse" spreadMethod="pad" id="fill44"><stop offset="0" stop-color="#CCCCCC"/><stop offset="1" stop-color="#FCFCFC"/></linearGradient><linearGradient x1="2661.01" y1="1483.88" x2="2661.01" y2="1446.39" gradientUnits="userSpaceOnUse" spreadMethod="pad" id="fill45"><stop offset="0" stop-color="#CCCCCC"/><stop offset="1" stop-color="#FCFCFC"/></linearGradient><linearGradient x1="2563.76" y1="1487.16" x2="2563.46" y2="1447.88" gradientUnits="userSpaceOnUse" spreadMethod="pad" id="fill46"><stop offset="0" stop-color="#CCCCCC"/><stop offset="1" stop-color="#FCFCFC"/></linearGradient><linearGradient x1="2620.74" y1="1526.64" x2="2620.74" y2="1491.34" gradientUnits="userSpaceOnUse" spreadMethod="pad" id="fill47"><stop offset="0" stop-color="#CCCCCC"/><stop offset="1" stop-color="#FCFCFC"/></linearGradient><clipPath id="clip48"><rect x="2264" y="606" width="181" height="179"/></clipPath><clipPath id="clip49"><rect x="2264" y="606" width="181" height="179"/></clipPath><clipPath id="clip50"><rect x="2264" y="606" width="181" height="179"/></clipPath><radialGradient cx="13428.8" cy="3518.86" r="56.67" gradientUnits="userSpaceOnUse" spreadMethod="pad" id="fill51" gradientTransform="matrix(1.48333 0 0 1.48333 -19830.5 -5130.65)"><stop offset="0" stop-color="#5EA0EF"/><stop offset="0.18" stop-color="#5EA0EF"/><stop offset="1" stop-color="#0078D4"/></radialGradient><linearGradient x1="43.5111" y1="113.524" x2="43.2145" y2="74.4634" gradientUnits="userSpaceOnUse" spreadMethod="pad" id="fill52"><stop offset="0" stop-color="#CCCCCC"/><stop offset="1" stop-color="#FCFCFC"/></linearGradient><linearGradient x1="100.174" y1="152.783" x2="100.174" y2="117.678" gradientUnits="userSpaceOnUse" spreadMethod="pad" id="fill53"><stop offset="0" stop-color="#CCCCCC"/><stop offset="1" stop-color="#FCFCFC"/></linearGradient><linearGradient x1="140.224" y1="110.261" x2="140.224" y2="72.98" gradientUnits="userSpaceOnUse" spreadMethod="pad" id="fill54"><stop offset="0" stop-color="#CCCCCC"/><stop offset="1" stop-color="#FCFCFC"/></linearGradient><linearGradient x1="43.5111" y1="113.524" x2="43.2145" y2="74.4634" gradientUnits="userSpaceOnUse" spreadMethod="pad" id="fill55"><stop offset="0" stop-color="#CCCCCC"/><stop offset="1" stop-color="#FCFCFC"/></linearGradient><linearGradient x1="100.174" y1="152.783" x2="100.174" y2="117.678" gradientUnits="userSpaceOnUse" spreadMethod="pad" id="fill56"><stop offset="0" stop-color="#CCCCCC"/><stop offset="1" stop-color="#FCFCFC"/></linearGradient><clipPath id="clip57"><rect x="2780" y="704" width="179" height="180"/></clipPath><clipPath id="clip58"><rect x="2780" y="704" width="179" height="180"/></clipPath><clipPath id="clip59"><rect x="2780" y="704" width="179" height="180"/></clipPath><linearGradient x1="49.9389" y1="104.328" x2="49.9389" y2="133.302" gradientUnits="userSpaceOnUse" spreadMethod="pad" id="fill60"><stop offset="0" stop-color="#76BC2D"/><stop offset="1" stop-color="#5E9624"/></linearGradient><linearGradient x1="126.973" y1="104.526" x2="126.973" y2="133.5" gradientUnits="userSpaceOnUse" spreadMethod="pad" id="fill61"><stop offset="0" stop-color="#76BC2D"/><stop offset="1" stop-color="#5E9624"/></linearGradient><linearGradient x1="721" y1="1173" x2="721" y2="1218" gradientUnits="userSpaceOnUse" spreadMethod="reflect" id="fill62"><stop offset="0" stop-color="#D2D2D2"/><stop offset="0.5" stop-color="#C8C8C8"/><stop offset="1" stop-color="#C0C0C0"/></linearGradient><linearGradient x1="721" y1="1218" x2="721" y2="1321" gradientUnits="userSpaceOnUse" spreadMethod="reflect" id="fill63"><stop offset="0" stop-color="#D2D2D2"/><stop offset="0.5" stop-color="#C8C8C8"/><stop offset="1" stop-color="#C0C0C0"/></linearGradient><linearGradient x1="65.0001" y1="0" x2="65.0001" y2="45" gradientUnits="userSpaceOnUse" spreadMethod="reflect" id="fill64"><stop offset="0" stop-color="#D2D2D2"/><stop offset="0.5" stop-color="#C8C8C8"/><stop offset="1" stop-color="#C0C0C0"/></linearGradient><linearGradient x1="721" y1="1240" x2="721" y2="1290" gradientUnits="userSpaceOnUse" spreadMethod="reflect" id="fill65"><stop offset="0" stop-color="#D2D2D2"/><stop offset="0.5" stop-color="#C8C8C8"/><stop offset="1" stop-color="#C0C0C0"/></linearGradient></defs><g clip-path="url(#clip0)" transform="translate(-150 -350)"><rect x="150.5" y="350.5" width="3466" height="1578" stroke="#2F528F" stroke-width="1.14583" stroke-miterlimit="8" fill="none"/><g clip-path="url(#clip1)"><g clip-path="url(#clip2)"><g clip-path="url(#clip3)"><path d="M128.456 45.7855C130.696 45.7855 132.511 47.6007 132.511 49.8399L132.511 128.259C132.511 130.498 130.696 132.313 128.456 132.313L50.0377 132.313C47.7985 132.313 45.9833 130.498 45.9833 128.259L45.9833 49.8399C45.9833 47.6007 47.7985 45.7855 50.0377 45.7855Z" fill="url(#fill4)" transform="matrix(1 0 0 1.00562 1478 1373)"/><path d="M116.491 120.446 159.804 90.0876C160.405 89.7092 160.585 88.9155 160.207 88.3147 160.104 88.1521 159.967 88.0145 159.804 87.9121L116.491 57.6521C115.932 57.214 115.124 57.3116 114.686 57.8703 114.492 58.1173 114.396 58.4266 114.414 58.7399L114.414 76.1443 45.9833 76.1443 45.9833 101.855 114.414 101.855 114.414 119.359C114.474 120.121 115.141 120.69 115.903 120.63 116.11 120.614 116.311 120.551 116.491 120.446Z" fill="#C3F1FF" transform="matrix(1 0 0 1.00562 1478 1373)"/><path d="M168.111 174.044 9.88887 174.044C7.04891 174.044 4.74666 171.742 4.74666 168.902L4.74666 9.09776C4.74666 6.2578 7.04891 3.95555 9.88887 3.95555L168.111 3.95555C170.951 3.95555 173.253 6.2578 173.253 9.09776L173.253 59.3332C173.295 60.7526 172.179 61.9374 170.759 61.9795 170.202 61.996 169.654 61.8308 169.199 61.5088L159.31 54.5866C158.619 54.0783 158.214 53.2688 158.222 52.411L158.222 19.7777 20.3711 19.7777 20.3711 158.222 157.629 158.222 157.629 126.578C157.636 125.751 158.041 124.978 158.716 124.501L168.605 117.282C169.765 116.462 171.369 116.737 172.189 117.897 172.511 118.352 172.676 118.9 172.66 119.458L172.66 168.902C172.677 171.525 170.717 173.741 168.111 174.044Z" fill="#949494" transform="matrix(1 0 0 1.00562 1478 1373)"/><path d="M157.629 19.7777 157.629 51.9166C157.621 52.7744 158.025 53.5838 158.716 54.0921L168.605 61.0143C169.574 62.0526 171.201 62.109 172.239 61.1403 172.742 60.6713 173.036 60.0205 173.055 59.3332L173.055 19.7777Z" fill="#767676" transform="matrix(1 0 0 1.00562 1478 1373)"/><path d="M157.629 158.222 157.629 126.083C157.619 125.252 158.028 124.472 158.716 124.006L168.605 116.985C169.865 116.22 171.508 116.62 172.274 117.881 172.509 118.268 172.642 118.708 172.66 119.161L172.66 158.716Z" fill="#767676" transform="matrix(1 0 0 1.00562 1478 1373)"/></g></g></g><g clip-path="url(#clip5)"><g clip-path="url(#clip6)"><g clip-path="url(#clip7)"><path d="M4.02477 65.4742C17.0014 18.552 65.559-8.96639 112.481 4.01024 142.349 12.2703 165.685 35.6068 173.945 65.4742L157.134 65.4742C144.148 27.8201 103.096 7.82266 65.442 20.8087 44.4785 28.0386 28.0064 44.5106 20.7765 65.4742ZM156.818 113.564C143.25 151.024 101.884 170.393 64.4242 156.826 44.2997 149.537 28.4509 133.688 21.1622 113.564L4.32144 113.564C17.8766 160.322 66.7704 187.239 113.529 173.684 142.548 165.271 165.236 142.583 173.649 113.564Z" fill="url(#fill8)" transform="matrix(1 0 0 1.00562 1985 1373)"/><path d="M95.3287 129.95 74.1665 82.3743 65.2666 97.7515 10.8085 97.7515C6.37928 97.7515 2.78866 94.1609 2.78866 89.7316 2.78866 85.3024 6.37928 81.7118 10.8085 81.7118L56.0303 81.7117 76.0553 47.1007 99.1162 98.9777 112.733 81.5436 167.221 81.6623C171.65 81.6623 175.241 85.2529 175.241 89.6822 175.241 94.1114 171.65 97.7021 167.221 97.7021L167.221 97.7021 120.585 97.5933Z" fill="#50E6FF" transform="matrix(1 0 0 1.00562 1985 1373)"/></g></g></g><g clip-path="url(#clip9)"><g clip-path="url(#clip10)"><g clip-path="url(#clip11)"><path d="M4.97221 57.5782 174.028 57.5782 174.028 57.5782 174.028 151.851C174.028 154.982 171.49 157.52 168.359 157.52L10.6405 157.52C7.51001 157.52 4.97222 154.982 4.97222 151.851L4.97221 57.5782 4.97221 57.5782Z" fill="url(#fill12)" transform="matrix(1 0 0 1 1731 1669)"/><path d="M10.6405 21.5794 168.359 21.5794C171.49 21.5794 174.028 24.1172 174.028 27.2477L174.028 57.5782 174.028 57.5782 4.97221 57.5782 4.97221 57.5782 4.97221 27.1483C5.02646 24.0567 7.54844 21.5789 10.6405 21.5794Z" fill="#37C2B1" transform="matrix(1 0 0 1 1731 1669)"/><path d="M27.9438 68.5171 150.956 68.5171C152.4 68.5706 153.543 69.7572 153.542 71.2021L153.542 85.1243C153.543 86.5692 152.4 87.7558 150.956 87.8093L27.9438 87.8093C26.4999 87.7558 25.3573 86.5692 25.3583 85.1243L25.3583 71.2021C25.3573 69.7572 26.4999 68.5706 27.9438 68.5171Z" fill="#FFFFFF" transform="matrix(1 0 0 1 1731 1669)"/><path d="M28.0433 96.2621 151.056 96.2621C152.5 96.3156 153.642 97.5022 153.641 98.9471L153.641 112.969C153.642 114.414 152.5 115.6 151.056 115.654L28.0433 115.654C26.5994 115.6 25.4567 114.414 25.4577 112.969L25.4577 99.4443C25.1828 97.9871 26.1413 96.583 27.5985 96.3081 27.7452 96.2804 27.894 96.265 28.0433 96.2621Z" fill="#37C2B1" transform="matrix(1 0 0 1 1731 1669)"/><path d="M28.0433 124.305 151.056 124.305C152.5 124.359 153.642 125.545 153.641 126.99L153.641 141.012C153.642 142.457 152.5 143.643 151.056 143.697L28.0433 143.697C26.5994 143.643 25.4567 142.457 25.4577 141.012L25.4577 126.99C25.4567 125.545 26.5994 124.359 28.0433 124.305Z" fill="#258277" transform="matrix(1 0 0 1 1731 1669)"/></g></g></g><g clip-path="url(#clip13)"><g clip-path="url(#clip14)"><g clip-path="url(#clip15)"><path d="M132.214 83.4622C132.214 94.2214 123.492 102.943 112.733 102.943 101.974 102.943 93.2522 94.2214 93.2522 83.4622 93.2522 72.7031 101.974 63.9811 112.733 63.9811 123.492 63.9811 132.214 72.7031 132.214 83.4622Z" fill="#FFFFFF" transform="matrix(1 0 0 1.00562 1041 1373)"/><path d="M160.695 141.411C160.695 149.876 153.832 156.739 145.367 156.739 136.901 156.739 130.039 149.876 130.039 141.411 130.039 132.946 136.901 126.083 145.367 126.083 153.832 126.083 160.695 132.946 160.695 141.411Z" fill="#FFFFFF" transform="matrix(1 0 0 1.00562 1041 1373)"/><path d="M97.9 130.929C97.9 138.193 92.0116 144.081 84.7478 144.081 77.484 144.081 71.5956 138.193 71.5956 130.929 71.5956 123.665 77.484 117.777 84.7478 117.777 92.0116 117.777 97.9 123.665 97.9 130.929Z" fill="#FFFFFF" transform="matrix(1 0 0 1.00562 1041 1373)"/><path d="M91.5711 30.7545C91.5711 39.7659 84.2659 47.0711 75.2545 47.0711 66.243 47.0711 58.9378 39.7659 58.9378 30.7545 58.9378 21.743 66.243 14.4378 75.2545 14.4378 84.2659 14.4378 91.5711 21.743 91.5711 30.7545Z" fill="#FFFFFF" transform="matrix(1 0 0 1.00562 1041 1373)"/><path d="M44.6978 90.8789C44.6978 98.1427 38.8093 104.031 31.5456 104.031 24.2818 104.031 18.3933 98.1427 18.3933 90.8789 18.3933 83.6151 24.2818 77.7267 31.5456 77.7267 38.8093 77.7267 44.6978 83.6151 44.6978 90.8789Z" fill="#FFFFFF" transform="matrix(1 0 0 1.00562 1041 1373)"/><path d="M148.927 138.346 115.997 80.6934 112.733 82.5723 115.403 80.5945 78.1222 27.59 71.2989 32.5345 104.328 79.5067 31.15 85.5389 31.8422 94.0434 104.328 88.0111 80.2978 127.962 87.5167 132.313 112.239 91.1756 141.609 142.499 148.927 138.346Z" fill="#949494" transform="matrix(1 0 0 1.00562 1041 1373)"/><path d="M173.352 12.1633 173.352 12.1633C173.352 8.17645 170.12 4.94445 166.133 4.94445L128.556 4.94445C126.589 4.94445 124.996 6.53831 124.996 8.50445L124.996 22.4478C124.996 24.4139 126.589 26.0078 128.556 26.0078L151.794 26.0078 151.794 48.7522C151.846 50.7511 153.455 52.3592 155.453 52.4111L169.298 52.4111C171.297 52.3592 172.905 50.7511 172.957 48.7522L172.957 12.1633Z" fill="#949494" transform="matrix(1 0 0 1.00562 1041 1373)"/><path d="M49.4445 151.992 25.81 151.992 25.81 129.248C25.7581 127.249 24.15 125.641 22.1511 125.589L8.30667 125.589C6.30783 125.641 4.69972 127.249 4.64778 129.248L4.64778 165.837 4.64778 165.837C4.70187 169.785 7.91809 172.957 11.8667 172.957L49.4445 172.957C51.4106 172.957 53.0045 171.363 53.0045 169.397L53.0045 155.552C53.0045 153.586 51.4106 151.992 49.4445 151.992Z" fill="#949494" transform="matrix(1 0 0 1.00562 1041 1373)"/><path d="M112.733 64.1789C123.656 64.1823 132.508 73.0399 132.505 83.9629 132.502 94.8858 123.644 103.738 112.721 103.734 101.798 103.731 92.946 94.8735 92.9494 83.9505 92.9495 83.7877 92.9515 83.625 92.9556 83.4622 93.2239 72.7328 102.001 64.1756 112.733 64.1789ZM59.3334 30.7545C59.2814 39.8204 66.5886 47.2119 75.6545 47.2639 84.7204 47.3159 92.112 40.0086 92.1639 30.9427 92.2159 21.8768 84.9087 14.4853 75.8428 14.4333 75.6796 14.4324 75.5165 14.4339 75.3534 14.4378 66.458 14.5995 59.3319 21.8576 59.3334 30.7545ZM18.3933 90.78C18.3933 98.0438 24.2818 103.932 31.5456 103.932 38.8093 103.932 44.6978 98.0438 44.6978 90.78 44.6978 83.5163 38.8093 77.6278 31.5456 77.6278 24.2818 77.6278 18.3933 83.5163 18.3933 90.78ZM71.5956 130.83C71.541 138.148 77.4293 144.125 84.7474 144.18 92.0656 144.234 98.0424 138.346 98.0971 131.028 98.1517 123.71 92.2634 117.733 84.9452 117.678 84.9124 117.678 84.8795 117.678 84.8467 117.678 77.5831 117.623 71.6506 123.467 71.5959 130.731 71.5957 130.764 71.5956 130.797 71.5956 130.83ZM130.138 141.411C130.083 149.876 136.901 156.783 145.366 156.838 153.832 156.892 160.738 150.074 160.793 141.609 160.847 133.144 154.029 126.237 145.564 126.183 145.531 126.182 145.498 126.182 145.466 126.182 137.11 126.073 130.248 132.758 130.139 141.113 130.137 141.212 130.137 141.312 130.138 141.411Z" fill="url(#fill16)" transform="matrix(1 0 0 1.00562 1041 1373)"/></g></g></g><g clip-path="url(#clip17)"><g clip-path="url(#clip18)"><g clip-path="url(#clip19)"><path d="M2408.48 1022.31 2356.82 992.48C2348.75 987.827 2338.81 987.827 2330.74 992.48L2279.08 1022.31C2271.02 1026.98 2266.05 1035.58 2266.04 1044.9L2266.04 1104.56C2266.05 1113.88 2271.01 1122.49 2279.08 1127.16L2330.79 1156.99C2338.86 1161.65 2348.8 1161.65 2356.87 1156.99L2408.58 1127.16C2416.64 1122.49 2421.61 1113.88 2421.62 1104.56L2421.62 1044.9C2421.59 1035.56 2416.58 1026.95 2408.48 1022.31Z" fill="url(#fill20)"/><path d="M2432.48 1066 2396.16 1045.03C2389.67 1041.29 2381.69 1041.29 2375.2 1045.03L2338.89 1066C2332.4 1069.73 2328.4 1076.65 2328.42 1084.14L2328.42 1126.08C2328.42 1133.57 2332.41 1140.48 2338.89 1144.22L2375.2 1165.2C2381.69 1168.93 2389.67 1168.93 2396.16 1165.2L2432.48 1144.22C2438.98 1140.49 2442.99 1133.58 2443.01 1126.08L2443.01 1084.14C2442.99 1076.65 2438.98 1069.73 2432.48 1066Z" fill="url(#fill21)"/><path d="M2340.36 1018.47 2350.82 1012.68 2395.67 1105.63 2392.03 1109.61 2293.19 1109.61 2294.31 1097.7 2377.65 1097.7 2340.36 1018.47Z" fill="url(#fill22)"/><path d="M2307.08 1104.21C2307.08 1112.44 2300.41 1119.12 2292.17 1119.12 2283.93 1119.12 2277.25 1112.44 2277.25 1104.21 2277.25 1095.97 2283.93 1089.29 2292.17 1089.29 2300.41 1089.29 2307.08 1095.97 2307.08 1104.21Z" fill="#FFFFFF"/><path d="M2409 1105.11C2409 1117.98 2398.56 1128.42 2385.69 1128.42 2372.81 1128.42 2362.38 1117.98 2362.38 1105.11 2362.38 1092.24 2372.81 1081.8 2385.69 1081.8 2398.56 1081.8 2409 1092.24 2409 1105.11Z" fill="#FFFFFF"/><path d="M2359.88 1014.44C2359.88 1022.68 2353.2 1029.35 2344.96 1029.35 2336.73 1029.35 2330.05 1022.68 2330.05 1014.44 2330.05 1006.2 2336.73 999.521 2344.96 999.521 2353.2 999.521 2359.88 1006.2 2359.88 1014.44Z" fill="#FFFFFF"/></g></g></g><g clip-path="url(#clip23)"><g clip-path="url(#clip24)"><g clip-path="url(#clip25)"><path d="M2602.48 1002.04 2615.24 1002.04 2615.24 1002.04 2615.24 1037.44C2615.24 1039.03 2613.95 1040.31 2612.37 1040.31L2599.61 1040.31C2598.03 1040.31 2596.75 1039.03 2596.75 1037.44L2596.75 1007.78C2596.69 1004.67 2599.17 1002.1 2602.28 1002.04 2602.35 1002.04 2602.42 1002.04 2602.48 1002.04Z" fill="#A3A3A3"/><path d="M2602.48 1002.04 2615.24 1002.04 2615.24 1002.04 2615.24 1037.44C2615.24 1039.03 2613.95 1040.31 2612.37 1040.31L2599.61 1040.31C2598.03 1040.31 2596.75 1039.03 2596.75 1037.44L2596.75 1007.78C2596.69 1004.67 2599.17 1002.1 2602.28 1002.04 2602.35 1002.04 2602.42 1002.04 2602.48 1002.04Z" fill="#A3A3A3" fill-opacity="0.5"/><path d="M2746.76 1002.04 2759.52 1002.04C2762.63 1002.04 2765.15 1004.57 2765.15 1007.68L2765.15 1037.44C2765.15 1039.03 2763.87 1040.31 2762.29 1040.31L2749.63 1040.31C2748.04 1040.31 2746.76 1039.03 2746.76 1037.44L2746.76 1002.04 2746.76 1002.04Z" fill="#A3A3A3"/><path d="M2746.76 1002.04 2759.52 1002.04C2762.63 1002.04 2765.15 1004.57 2765.15 1007.68L2765.15 1037.44C2765.15 1039.03 2763.87 1040.31 2762.29 1040.31L2749.63 1040.31C2748.04 1040.31 2746.76 1039.03 2746.76 1037.44L2746.76 1002.04 2746.76 1002.04Z" fill="#A3A3A3" fill-opacity="0.5"/><path d="M2765.15 1007.58 2765.15 1019.94 2765.15 1019.94 2597.04 1019.94 2597.04 1019.94 2597.04 1007.58C2597.04 1004.47 2599.57 1001.94 2602.68 1001.94L2759.52 1001.94C2762.63 1001.94 2765.15 1004.47 2765.15 1007.58Z" fill="#949494"/><path d="M2599.61 1113.49 2612.37 1113.49C2613.95 1113.49 2615.24 1114.77 2615.24 1116.36L2615.24 1152.06 2615.24 1152.06 2602.48 1152.06C2599.37 1152.11 2596.8 1149.64 2596.74 1146.52 2596.74 1146.42 2596.74 1146.32 2596.75 1146.22L2596.75 1116.56C2596.64 1114.98 2597.83 1113.61 2599.41 1113.5 2599.48 1113.49 2599.55 1113.49 2599.61 1113.49Z" fill="#A3A3A3"/><path d="M2599.61 1113.49 2612.37 1113.49C2613.95 1113.49 2615.24 1114.77 2615.24 1116.36L2615.24 1152.06 2615.24 1152.06 2602.48 1152.06C2599.37 1152.11 2596.8 1149.64 2596.74 1146.52 2596.74 1146.42 2596.74 1146.32 2596.75 1146.22L2596.75 1116.56C2596.64 1114.98 2597.83 1113.61 2599.41 1113.5 2599.48 1113.49 2599.55 1113.49 2599.61 1113.49Z" fill="#A3A3A3" fill-opacity="0.5"/><path d="M2749.63 1113.49 2762.39 1113.49C2763.97 1113.49 2765.25 1114.77 2765.25 1116.36L2765.25 1146.02C2765.25 1149.14 2762.73 1151.66 2759.62 1151.66L2746.76 1151.66 2746.76 1151.66 2746.76 1116.56C2746.65 1114.98 2747.84 1113.61 2749.42 1113.5 2749.49 1113.49 2749.56 1113.49 2749.63 1113.49Z" fill="#A3A3A3"/><path d="M2749.63 1113.49 2762.39 1113.49C2763.97 1113.49 2765.25 1114.77 2765.25 1116.36L2765.25 1146.02C2765.25 1149.14 2762.73 1151.66 2759.62 1151.66L2746.76 1151.66 2746.76 1151.66 2746.76 1116.56C2746.65 1114.98 2747.84 1113.61 2749.42 1113.5 2749.49 1113.49 2749.56 1113.49 2749.63 1113.49Z" fill="#A3A3A3" fill-opacity="0.5"/><path d="M2596.75 1146.42 2596.75 1134.06 2596.75 1134.06 2764.86 1134.06 2764.86 1134.06 2764.86 1146.42C2764.86 1149.53 2762.33 1152.06 2759.22 1152.06L2602.38 1152.06C2599.27 1152.06 2596.75 1149.53 2596.75 1146.42Z" fill="#949494"/><path d="M2739.44 1075.42 2721.45 1057.22C2721.15 1056.83 2720.59 1056.76 2720.2 1057.06 2719.94 1057.26 2719.81 1057.59 2719.86 1057.91L2719.86 1069.09C2719.92 1069.58 2719.57 1070.02 2719.08 1070.08 2719.01 1070.09 2718.94 1070.09 2718.87 1070.08L2667.06 1070.08C2665.1 1067.53 2662.06 1066.03 2658.85 1066.02 2652.87 1065.45 2647.56 1069.84 2646.98 1075.82 2646.41 1081.8 2650.8 1087.11 2656.78 1087.68 2657.47 1087.75 2658.16 1087.75 2658.85 1087.68 2662.11 1087.63 2665.16 1086.11 2667.16 1083.53L2718.87 1083.53C2719.36 1083.47 2719.8 1083.82 2719.86 1084.31 2719.86 1084.35 2719.86 1084.38 2719.86 1084.42L2719.86 1095.39C2719.84 1095.88 2720.23 1096.3 2720.72 1096.32 2721 1096.33 2721.27 1096.21 2721.45 1095.99L2739.44 1078.09C2740.13 1077.33 2740.13 1076.17 2739.44 1075.42Z" fill="#5EA0EF"/><path d="M2706.22 1043.28 2688.22 1025.38C2687.92 1024.99 2687.36 1024.92 2686.97 1025.22 2686.71 1025.42 2686.58 1025.75 2686.64 1026.07L2686.64 1037.44C2686.69 1037.93 2686.34 1038.37 2685.85 1038.43 2685.82 1038.43 2685.78 1038.43 2685.75 1038.43L2653.31 1038.43C2651.31 1035.88 2648.25 1034.39 2645 1034.38 2639 1034.26 2634.03 1039.03 2633.91 1045.03 2633.79 1051.04 2638.56 1056.01 2644.56 1056.13 2648.02 1056.2 2651.3 1054.62 2653.41 1051.88L2685.75 1051.88C2686.24 1051.88 2686.64 1052.28 2686.64 1052.77L2686.64 1063.25C2686.62 1063.75 2687 1064.16 2687.49 1064.18 2687.77 1064.19 2688.04 1064.07 2688.22 1063.85L2706.22 1045.95C2706.91 1045.19 2706.91 1044.03 2706.22 1043.28Z" fill="url(#fill26)"/><path d="M2706.22 1108.15 2688.22 1090.25C2687.92 1089.86 2687.36 1089.79 2686.97 1090.09 2686.71 1090.29 2686.58 1090.62 2686.64 1090.94L2686.64 1101.82C2686.64 1102.33 2686.25 1102.76 2685.75 1102.81L2653.31 1102.81C2651.31 1100.26 2648.25 1098.76 2645 1098.76 2639 1098.76 2634.13 1103.64 2634.14 1109.65 2634.15 1115.66 2639.03 1120.52 2645.03 1120.51 2648.28 1120.51 2651.35 1119.06 2653.41 1116.56L2685.75 1116.56C2686.24 1116.56 2686.64 1116.95 2686.64 1117.45L2686.64 1128.42C2686.62 1128.91 2687 1129.33 2687.49 1129.35 2687.77 1129.36 2688.04 1129.23 2688.22 1129.02L2706.22 1111.12C2707.04 1110.39 2707.11 1109.14 2706.39 1108.33 2706.34 1108.26 2706.28 1108.2 2706.22 1108.15Z" fill="url(#fill27)"/></g></g></g><path d="M1219.5 1460.21 1473.04 1460.21 1473.04 1464.79 1219.5 1464.79ZM1446.7 1444.48 1477.59 1462.5 1446.7 1480.52C1445.6 1481.16 1444.2 1480.79 1443.56 1479.7 1442.92 1478.6 1443.29 1477.2 1444.39 1476.56L1471.89 1460.52 1471.89 1464.48 1444.39 1448.44C1443.29 1447.8 1442.92 1446.4 1443.56 1445.3 1444.2 1444.21 1445.6 1443.84 1446.7 1444.48Z" fill="#4472C4"/><path d="M1569.29 1551.07 1731.06 1754.6 1727.47 1757.46 1565.71 1553.93ZM1726.98 1724.19 1732.1 1759.59 1698.77 1746.62C1697.59 1746.16 1697.01 1744.83 1697.46 1743.65 1697.92 1742.47 1699.25 1741.89 1700.43 1742.35L1730.1 1753.9 1727 1756.36 1722.45 1724.85C1722.27 1723.6 1723.14 1722.43 1724.39 1722.25 1725.64 1722.07 1726.8 1722.94 1726.98 1724.19Z" fill="#4472C4"/><path d="M1.79402-1.42592 152.128 187.717 148.54 190.569-1.79402 1.42592ZM158.246 177 164.593 207.083 136.718 194.111Z" fill="#4472C4" transform="matrix(-1 0 0 1 2075.09 1552.5)"/><g clip-path="url(#clip28)"><g clip-path="url(#clip29)"><g clip-path="url(#clip30)"><path d="M1649 1084.28 1649 1066.68 1648.02 1065.8 1629.92 1059.7 1625.3 1048 1634.25 1029.51 1635.23 1027.45 1629.33 1021.45 1622.45 1014.66 1620.09 1015.84 1602.39 1024.79 1590.49 1021.45 1582.82 1001.78 1565.22 1001.78 1564.33 1002.67 1558.24 1020.66 1545.85 1025.28 1525.39 1015.45 1512.81 1027.74 1513.99 1030.1 1523.43 1048C1532.92 1042.28 1543.82 1039.35 1554.89 1039.54 1567.47 1039.61 1579.72 1043.52 1590 1050.75 1591.24 1051.53 1592.42 1052.38 1593.54 1053.31L1593.54 1053.31C1597.67 1056.88 1600.82 1061.45 1602.68 1066.58L1602.68 1066.58C1604.06 1070.06 1604.76 1073.76 1604.75 1077.5 1604.75 1095.04 1590.53 1109.26 1572.99 1109.26 1572.92 1109.26 1572.86 1109.26 1572.79 1109.26 1566.21 1109.25 1559.79 1107.23 1554.4 1103.46 1543.76 1113.69 1529.81 1119.8 1515.07 1120.67L1513.2 1124.5 1525.79 1137.19 1528.34 1136.5 1546.04 1126.67 1558.24 1131.68 1566.01 1152.92 1583.71 1152.92 1584.39 1150.46 1590.69 1131.68 1602.68 1126.67 1623.43 1136.5 1635.92 1124.11 1634.74 1121.75 1625.6 1104.15 1629.33 1091.86Z" fill="url(#fill31)"/><path d="M1511.33 1093.72 1511.33 1093.72C1501.9 1093.77 1492.84 1090.06 1486.16 1083.4 1484.03 1082.1 1483.35 1079.32 1484.65 1077.18 1485.95 1075.05 1488.73 1074.37 1490.87 1075.67 1491.59 1076.11 1492.17 1076.75 1492.55 1077.5 1497.6 1082.31 1504.36 1084.89 1511.33 1084.68L1511.33 1084.68C1518.21 1084.85 1524.86 1082.26 1529.82 1077.5 1536.53 1071 1545.56 1067.46 1554.89 1067.67 1564.28 1067.5 1573.36 1071.03 1580.17 1077.5 1582 1079.19 1582.12 1082.05 1580.43 1083.89 1578.73 1085.73 1575.87 1085.84 1574.04 1084.15 1573.94 1084.07 1573.86 1083.98 1573.77 1083.89 1568.83 1078.99 1562.15 1076.23 1555.19 1076.22L1555.19 1076.22C1548.24 1076.17 1541.57 1078.94 1536.7 1083.89 1529.89 1090.41 1520.76 1093.95 1511.33 1093.72Z" fill="#50E6FF"/><path d="M1511.33 1075.73 1511.33 1075.73C1506.69 1075.73 1502.24 1073.89 1498.94 1070.62 1497.25 1068.78 1497.37 1065.92 1499.2 1064.22 1500.94 1062.63 1503.6 1062.63 1505.33 1064.22 1506.92 1065.83 1509.08 1066.72 1511.33 1066.68L1511.33 1066.68C1513.51 1066.49 1515.57 1065.63 1517.23 1064.22 1538.14 1043.59 1571.75 1043.59 1592.65 1064.22 1594.35 1066.06 1594.23 1068.92 1592.39 1070.62 1590.66 1072.21 1588 1072.21 1586.26 1070.62 1568.82 1053.31 1540.68 1053.31 1523.23 1070.62 1519.98 1073.66 1515.77 1075.47 1511.33 1075.73Z" fill="#50E6FF"/><path d="M1511.33 1111.72C1497.06 1111.82 1483.35 1106.19 1473.28 1096.08 1471.63 1094.31 1471.63 1091.57 1473.28 1089.79 1475.08 1088.02 1477.97 1088.02 1479.77 1089.79 1488.11 1098.19 1499.49 1102.87 1511.33 1102.77 1523.15 1102.79 1534.48 1098.08 1542.8 1089.69 1546.09 1086.76 1550.29 1085.06 1554.7 1084.88 1559.3 1084.95 1563.7 1086.78 1566.99 1089.99 1568.75 1091.75 1568.75 1094.61 1566.99 1096.38 1565.19 1098.15 1562.3 1098.15 1560.5 1096.38 1558.97 1094.82 1556.88 1093.93 1554.7 1093.92L1554.7 1093.92C1552.5 1094.09 1550.42 1094.99 1548.8 1096.48 1538.8 1106.29 1525.34 1111.77 1511.33 1111.72Z" fill="#32BEDD"/></g></g></g><g clip-path="url(#clip32)"><g clip-path="url(#clip33)"><g clip-path="url(#clip34)"><path d="M106.495 82.7965C106.552 84.1727 105.508 85.3467 104.135 85.4515L83.5832 85.4515C82.2069 85.5085 81.033 84.4649 80.9282 83.0915L80.9282 67.7515C80.8712 66.3753 81.9147 65.2013 83.2882 65.0965L103.84 65.0965C105.216 65.0396 106.39 66.0831 106.495 67.4565L106.495 82.7965Z" fill="#76BC2D" transform="matrix(1 0 0 1 1732 989)"/><path d="M142.976 98.3331C143.033 99.7094 141.99 100.883 140.616 100.988L120.065 100.988C118.689 101.045 117.515 100.002 117.41 98.6282L117.41 83.3865C117.353 82.0103 118.396 80.8363 119.77 80.7315L140.321 80.7315C141.698 80.6745 142.872 81.7181 142.976 83.0915L142.976 98.3331Z" fill="#76BC2D" transform="matrix(1 0 0 1 1732 989)"/><path d="M106.495 114.066C106.552 115.443 105.508 116.617 104.135 116.721L83.5832 116.721C82.2069 116.778 81.033 115.735 80.9282 114.361L80.9282 99.0215C80.8712 97.6452 81.9147 96.4713 83.2882 96.3665L103.84 96.3665C105.216 96.3095 106.39 97.3531 106.495 98.7265L106.495 114.066Z" fill="#76BC2D" transform="matrix(1 0 0 1 1732 989)"/><path d="M70.0132 67.2599C70.0703 68.5819 69.0706 69.7119 67.7515 69.8165L46.6099 69.8165C45.2682 69.877 44.1085 68.8891 43.9549 67.5549L43.9549 51.6249C44.0012 50.3242 45.0172 49.2659 46.3149 49.1666L66.8665 49.1666C69.0299 49.1666 70.0132 50.2482 70.0132 51.8216Z" fill="#86D633" transform="matrix(1 0 0 1 1732 989)"/><path d="M70.0132 98.3331C70.1258 99.6862 69.1202 100.874 67.7672 100.987 67.762 100.987 67.7568 100.988 67.7515 100.988L46.6099 100.988C45.199 101.044 44.0103 99.9447 43.9549 98.5338 43.9523 98.4669 43.9523 98.4 43.9549 98.3332L43.9549 82.7965C43.951 81.4579 44.9802 80.3428 46.3149 80.2398L66.8665 80.2398C69.0299 80.2398 70.0132 81.3215 70.0132 82.7965Z" fill="#76BC2D" transform="matrix(1 0 0 1 1732 989)"/><path d="M70.0132 129.701C70.1258 131.054 69.1202 132.243 67.7672 132.355 67.762 132.356 67.7568 132.356 67.7515 132.356L46.6099 132.356C45.2337 132.413 44.0597 131.37 43.9549 129.996L43.9549 114.066C43.8996 112.71 44.9544 111.565 46.311 111.51 46.3123 111.51 46.3136 111.51 46.3149 111.51L66.8665 111.51C69.0299 111.51 70.0132 112.493 70.0132 114.066Z" fill="#76BC2D" transform="matrix(1 0 0 1 1732 989)"/><path d="M10.5216 14.8483 23.2066 14.8483 23.2066 14.8483 23.2066 50.2482C23.2066 51.8232 21.9299 53.0999 20.355 53.0999L7.76832 53.0999C6.19339 53.0999 4.91666 51.8232 4.91666 50.2482L4.91666 20.7483C4.75373 17.657 7.12761 15.019 10.2189 14.8561 10.3197 14.8508 10.4207 14.8482 10.5216 14.8483Z" fill="#999999" transform="matrix(1 0 0 1 1732 989)"/><path d="M10.5216 14.8483 23.2066 14.8483 23.2066 14.8483 23.2066 50.2482C23.2066 51.8232 21.9299 53.0999 20.355 53.0999L7.76832 53.0999C6.19339 53.0999 4.91666 51.8232 4.91666 50.2482L4.91666 20.7483C4.75373 17.657 7.12761 15.019 10.2189 14.8561 10.3197 14.8508 10.4207 14.8482 10.5216 14.8483Z" fill="#999999" fill-opacity="0.5" transform="matrix(1 0 0 1 1732 989)"/><path d="M153.793 14.8483 166.478 14.8483C169.574 14.8483 172.083 17.3577 172.083 20.4533L172.083 49.9532C172.083 51.5282 170.806 52.8049 169.231 52.8049L156.546 52.8049C154.971 52.8049 153.695 51.5282 153.695 49.9532L153.695 14.8483 153.793 14.8483Z" fill="#999999" transform="matrix(1 0 0 1 1732 989)"/><path d="M153.793 14.8483 166.478 14.8483C169.574 14.8483 172.083 17.3577 172.083 20.4533L172.083 49.9532C172.083 51.5282 170.806 52.8049 169.231 52.8049L156.546 52.8049C154.971 52.8049 153.695 51.5282 153.695 49.9532L153.695 14.8483 153.793 14.8483Z" fill="#999999" fill-opacity="0.5" transform="matrix(1 0 0 1 1732 989)"/><path d="M85.1565-59.7866 97.4482-59.7866 97.4482-59.7866 97.4482 107.38 97.4482 107.38 85.1565 107.38C82.061 107.38 79.5515 104.87 79.5515 101.775L79.5515-54.2799C79.6052-57.337 82.099-59.787 85.1565-59.7866Z" fill="#949494" transform="matrix(6.12323e-17 1 -1 6.12325e-17 1844.3 924.297)"/><path d="M7.76832 125.473 20.4533 125.473C22.0282 125.473 23.305 126.75 23.305 128.325L23.305 163.725 23.305 163.725 10.5216 163.725C7.4261 163.725 4.91666 161.215 4.91666 158.12L4.91666 127.833C5.15814 126.453 6.36698 125.452 7.76832 125.473Z" fill="#999999" transform="matrix(1 0 0 1 1732 989)"/><path d="M7.76832 125.473 20.4533 125.473C22.0282 125.473 23.305 126.75 23.305 128.325L23.305 163.725 23.305 163.725 10.5216 163.725C7.4261 163.725 4.91666 161.215 4.91666 158.12L4.91666 127.833C5.15814 126.453 6.36698 125.452 7.76832 125.473Z" fill="#999999" fill-opacity="0.5" transform="matrix(1 0 0 1 1732 989)"/><path d="M156.546 125.473 169.231 125.473C170.806 125.473 172.083 126.75 172.083 128.325L172.083 157.825C172.083 160.92 169.574 163.43 166.478 163.43L153.793 163.43 153.793 163.43 153.793 127.833C154.028 126.489 155.182 125.5 156.546 125.473Z" fill="#999999" transform="matrix(1 0 0 1 1732 989)"/><path d="M156.546 125.473 169.231 125.473C170.806 125.473 172.083 126.75 172.083 128.325L172.083 157.825C172.083 160.92 169.574 163.43 166.478 163.43L153.793 163.43 153.793 163.43 153.793 127.833C154.028 126.489 155.182 125.5 156.546 125.473Z" fill="#999999" fill-opacity="0.5" transform="matrix(1 0 0 1 1732 989)"/><path d="M85.1565 71.1932 97.4482 71.1932 97.4482 71.1932 97.4482 238.36 97.4482 238.36 85.1565 238.36C82.061 238.36 79.5515 235.85 79.5515 232.755L79.5515 76.7982C79.5515 73.7026 82.061 71.1932 85.1565 71.1932Z" fill="#949494" transform="matrix(6.12323e-17 -1 1 6.12325e-17 1665.72 1232.28)"/></g></g></g><path d="M2.31834e-06-2.29167 333.823-2.29133 333.823 2.292-2.31834e-06 2.29167ZM329.24-13.7497 356.74 0.000360892 329.24 13.7503Z" fill="#4472C4" transform="matrix(-1 0 0 1 2520.24 1462.5)"/><path d="M7.60674e-06-2.29167 85.8087-2.29138 85.8087 2.29195-7.60674e-06 2.29167ZM81.2254-13.7497 108.725 0.000360892 81.2253 13.7503Z" fill="#4472C4" transform="matrix(1 0 0 -1 2300.5 1417.5)"/><path d="M0-2.29167 128.697-2.29167 128.697 384.635 126.406 382.343 248.274 382.343 248.274 386.927 124.114 386.927 124.114 0 126.406 2.29167 0 2.29167ZM221.928 366.614 252.822 384.635 221.928 402.656C220.835 403.294 219.432 402.925 218.794 401.832 218.156 400.738 218.525 399.335 219.619 398.697L247.119 382.656 247.119 386.615 219.619 370.573C218.525 369.935 218.156 368.532 218.794 367.439 219.432 366.346 220.835 365.976 221.928 366.614Z" fill="#4472C4" transform="matrix(1 0 0 -1 1219.5 1463.14)"/><path d="M1649.5 1076.21 1728.07 1076.21 1728.07 1080.79 1649.5 1080.79ZM1701.72 1060.48 1732.62 1078.5 1701.72 1096.52C1700.63 1097.16 1699.23 1096.79 1698.59 1095.7 1697.95 1094.6 1698.32 1093.2 1699.41 1092.56L1726.91 1076.52 1726.91 1080.48 1699.41 1064.44C1698.32 1063.8 1697.95 1062.4 1698.59 1061.3 1699.23 1060.21 1700.63 1059.84 1701.72 1060.48Z" fill="#4472C4"/><g clip-path="url(#clip35)"><g clip-path="url(#clip36)"><g clip-path="url(#clip37)"><path d="M2042.1 1117.59 2036.27 1123.41C2035.23 1124.44 2033.55 1124.44 2032.51 1123.41L1989.22 1080.48C1987.15 1078.43 1987.14 1075.09 1989.21 1073.03L1995.07 1067.19 1995.07 1067.19 2042.12 1113.85C2043.16 1114.88 2043.16 1116.55 2042.12 1117.58Z" fill="#50E6FF"/><path d="M23.0558 35.6993 31.3162 35.6993C32.7785 35.6993 33.9639 36.8847 33.9639 38.347L33.9639 103.627 33.9639 103.627 25.6936 103.627C22.7745 103.627 20.4081 101.261 20.4081 98.3417L20.4081 38.3272C20.419 36.8726 21.6012 35.6993 23.0558 35.6993Z" fill="#1490DF" transform="matrix(0.710103 0.704142 -0.708098 0.706136 2044.27 989.127)"/><path d="M2157.94 1067.23 2163.79 1073.06C2165.86 1075.12 2165.85 1078.46 2163.78 1080.52L2120.49 1123.45C2119.45 1124.47 2117.77 1124.47 2116.73 1123.44L2110.91 1117.63C2109.88 1116.6 2109.88 1114.93 2110.92 1113.9L2157.96 1067.25 2157.96 1067.25Z" fill="#50E6FF"/><path d="M149.818 35.6993 158.079 35.6993 158.079 35.6993 158.079 100.979C158.079 102.442 156.893 103.627 155.431 103.627L147.17 103.627C145.708 103.627 144.523 102.442 144.523 100.979L144.523 40.965C144.523 38.0459 146.889 35.6795 149.808 35.6795Z" fill="#1490DF" transform="matrix(-0.710103 0.704142 -0.708098 -0.706136 2295.5 1000.08)"/><path d="M83.6501 97.9 48.1589 97.9C47.1229 97.9396 46.2448 97.1449 46.1811 96.1101 46.1814 95.8524 46.2424 95.5983 46.3591 95.3685L88.911 11.1744C89.2802 10.5089 89.9896 10.1046 90.7504 10.1262L132.729 10.1262C133.765 10.0867 134.643 10.8813 134.706 11.9161 134.703 12.2748 134.581 12.6224 134.36 12.905L84.3918 78.7749 133.124 78.7749C134.16 78.7354 135.038 79.53 135.102 80.5648 135.094 81.0186 134.91 81.4515 134.588 81.7712L53.6077 166.015C52.8462 166.47 47.437 170.959 50.0872 164.146L50.0872 164.146Z" fill="url(#fill38)" transform="matrix(1.00562 0 0 1 1987 988)"/></g></g></g><path d="M0.0236552-2.29154 73.7982-1.52998 73.7509 3.05311-0.0236552 2.29154ZM47.6167-17.5306 78.3225 0.808509 47.2447 18.5098C46.1449 19.1362 44.7456 18.7525 44.1192 17.6527 43.4928 16.553 43.8765 15.1536 44.9763 14.5272L72.6404-1.22975 72.5995 2.72903 45.2666-13.5956C44.18-14.2446 43.8252-15.6516 44.4742-16.7382 45.1231-17.8248 46.5301-18.1796 47.6167-17.5306Z" fill="#4472C4" transform="matrix(1 0 0 -1 1909.5 1078.31)"/><path d="M2166.54 1075.21 2261.76 1076.75 2261.69 1081.33 2166.46 1079.79ZM2235.68 1060.6 2266.27 1079.12 2235.09 1096.64C2233.99 1097.26 2232.59 1096.86 2231.97 1095.76 2231.35 1094.66 2231.74 1093.26 2232.85 1092.64L2260.6 1077.05 2260.54 1081 2233.3 1064.52C2232.22 1063.86 2231.87 1062.45 2232.53 1061.37 2233.18 1060.29 2234.59 1059.94 2235.68 1060.6Z" fill="#4472C4"/><g clip-path="url(#clip39)"><g clip-path="url(#clip40)"><g clip-path="url(#clip41)"><path d="M2661.31 1529.33C2624.4 1557.94 2571.29 1551.22 2542.67 1514.31 2514.06 1477.4 2520.78 1424.29 2557.69 1395.67L2558.58 1395.08C2595.99 1367.15 2648.96 1374.84 2676.88 1412.25 2704.34 1449.03 2697.43 1501 2661.31 1529.33" fill="url(#fill42)"/><path d="M2586.53 1444.9C2610.44 1422.16 2642.14 1409.42 2675.13 1409.3 2670.8 1403.94 2665.82 1399.13 2660.32 1394.98 2644.26 1395.97 2628.5 1399.67 2613.68 1405.92 2598.42 1412.47 2584.63 1422 2573.1 1433.96 2578.64 1436.06 2583.35 1439.9 2586.53 1444.9Z" fill="#FFFFFF" fill-opacity="0.6"/><path d="M2544.66 1478.91C2541.25 1487.37 2538.49 1496.08 2536.41 1504.96 2538.24 1508.15 2540.3 1511.21 2542.57 1514.11 2544.36 1516.4 2546.05 1518.49 2548.04 1520.58 2550.45 1508.74 2554.04 1497.18 2558.78 1486.07 2553.48 1485.12 2548.56 1482.63 2544.66 1478.91Z" fill="#FFFFFF" fill-opacity="0.6"/><path d="M2554.41 1433.76C2550.9 1424.34 2548.59 1414.52 2547.55 1404.52 2543.37 1408.91 2539.7 1413.74 2536.61 1418.94 2537.73 1427 2539.63 1434.92 2542.28 1442.61 2545.39 1438.56 2549.6 1435.49 2554.41 1433.76Z" fill="#F2F2F2" fill-opacity="0.55"/><path d="M2590.71 1459.32C2590.71 1474.31 2578.55 1486.47 2563.56 1486.47 2548.56 1486.47 2536.41 1474.31 2536.41 1459.32 2536.41 1444.32 2548.56 1432.17 2563.56 1432.17 2578.55 1432.17 2590.71 1444.32 2590.71 1459.32Z" fill="url(#fill43)"/><path d="M2603.14 1508.94C2603.14 1504.18 2605.08 1499.62 2608.51 1496.31 2599.34 1491.29 2590.88 1485.07 2583.35 1477.81 2579.41 1482.07 2574.22 1484.96 2568.53 1486.07 2573.02 1490.66 2577.83 1494.92 2582.95 1498.8 2589.32 1503.61 2596.14 1507.77 2603.33 1511.23 2603.22 1510.47 2603.15 1509.71 2603.14 1508.94Z" fill="#F2F2F2" fill-opacity="0.55"/><path d="M2665.79 1511.03C2656.54 1511.03 2647.33 1509.97 2638.34 1507.85 2638.39 1508.21 2638.39 1508.58 2638.34 1508.94 2638.35 1513.56 2636.53 1518 2633.27 1521.27 2644.46 1523.49 2655.89 1524.29 2667.28 1523.66 2671.7 1519.66 2675.66 1515.19 2679.11 1510.33 2674.69 1510.82 2670.24 1511.06 2665.79 1511.03Z" fill="#F2F2F2" fill-opacity="0.55"/><path d="M2638.44 1508.94C2638.44 1518.72 2630.51 1526.64 2620.74 1526.64 2610.96 1526.64 2603.04 1518.72 2603.04 1508.94 2603.04 1499.16 2610.96 1491.24 2620.74 1491.24 2630.51 1491.24 2638.44 1499.16 2638.44 1508.94Z" fill="url(#fill44)"/><path d="M2642.52 1461.8C2643.39 1457.91 2645.52 1454.42 2648.58 1451.86 2632.21 1439.96 2617.32 1426.13 2604.23 1410.69 2596.6 1401.73 2589.94 1392 2584.34 1381.65 2580.63 1382.77 2577 1384.16 2573.5 1385.83 2579.49 1397.1 2586.66 1407.7 2594.88 1417.45 2608.86 1434.15 2624.86 1449.05 2642.52 1461.8Z" fill="#F2F2F2" fill-opacity="0.7"/><path d="M2679.81 1465.18C2679.81 1475.57 2671.39 1483.98 2661.01 1483.98 2650.63 1483.98 2642.22 1475.57 2642.22 1465.18 2642.22 1454.8 2650.63 1446.39 2661.01 1446.39 2671.39 1446.39 2679.81 1454.8 2679.81 1465.18Z" fill="url(#fill45)"/><path d="M2692.54 1477.81 2689.06 1476.12 2689.06 1476.12 2686.07 1474.53 2685.48 1474.53 2682.89 1472.44 2682.19 1472.44 2679.11 1470.46C2678.04 1474.12 2675.81 1477.33 2672.75 1479.6 2673.94 1480.4 2675.23 1481.1 2676.53 1481.79L2677.32 1482.29 2680.8 1484.18 2680.8 1484.18 2689.35 1488.65 2689.35 1488.65C2690.56 1485.04 2691.52 1481.35 2692.24 1477.62Z" fill="#F2F2F2" fill-opacity="0.55"/><path d="M2590.71 1459.32C2590.71 1474.31 2578.55 1486.47 2563.56 1486.47 2548.56 1486.47 2536.41 1474.31 2536.41 1459.32 2536.41 1444.32 2548.56 1432.17 2563.56 1432.17 2578.55 1432.17 2590.71 1444.32 2590.71 1459.32Z" fill="url(#fill46)"/><path d="M2638.44 1508.94C2638.44 1518.72 2630.51 1526.64 2620.74 1526.64 2610.96 1526.64 2603.04 1518.72 2603.04 1508.94 2603.04 1499.16 2610.96 1491.24 2620.74 1491.24 2630.51 1491.24 2638.44 1499.16 2638.44 1508.94Z" fill="url(#fill47)"/></g></g></g><g clip-path="url(#clip48)"><g clip-path="url(#clip49)"><g clip-path="url(#clip50)"><path d="M140.521 155.453C103.82 183.908 51.001 177.222 22.5467 140.521-5.90766 103.82 0.777726 51.001 37.4789 22.5467L38.3689 21.9533C75.5703-5.81557 128.239 1.83101 156.008 39.0325 183.31 75.608 176.435 127.287 140.521 155.453" fill="url(#fill51)" transform="matrix(1.00562 0 0 1 2265 606)"/><path d="M66.1567 71.4967C89.9325 48.884 121.455 36.2184 154.267 36.0945 149.957 30.7626 145.008 25.9802 139.532 21.8545 123.57 22.8392 107.889 26.517 93.1534 32.7322 77.982 39.249 64.2649 48.7299 52.8067 60.6189 58.3139 62.7092 62.9971 66.5251 66.1567 71.4967Z" fill="#FFFFFF" fill-opacity="0.6" transform="matrix(1.00562 0 0 1 2265 606)"/><path d="M24.5245 105.317C21.1271 113.729 18.3831 122.391 16.3167 131.226 18.1424 134.4 20.1913 137.44 22.4478 140.323 24.2278 142.598 25.9089 144.674 27.8867 146.751 30.276 134.981 33.8543 123.484 38.5667 112.437 33.2882 111.494 28.4042 109.018 24.5245 105.317Z" fill="#FFFFFF" fill-opacity="0.6" transform="matrix(1.00562 0 0 1 2265 606)"/><path d="M34.2156 60.4211C30.7259 51.056 28.4333 41.2876 27.3922 31.3478 23.2423 35.7063 19.5936 40.5159 16.5145 45.6867 17.6307 53.6951 19.5184 61.577 22.1511 69.2222 25.2497 65.1968 29.4362 62.1427 34.2156 60.4211Z" fill="#F2F2F2" fill-opacity="0.55" transform="matrix(1.00562 0 0 1 2265 606)"/><path d="M70.31 85.8356C70.31 100.745 58.2232 112.832 43.3134 112.832 28.4035 112.832 16.3167 100.745 16.3167 85.8356 16.3167 70.9257 28.4035 58.8389 43.3134 58.8389 58.2232 58.8389 70.31 70.9257 70.31 85.8356Z" fill="url(#fill52)" transform="matrix(1.00562 0 0 1 2265 606)"/><path d="M82.6711 135.181C82.6786 130.445 84.6052 125.914 88.0111 122.622 78.8944 117.625 70.4813 111.44 62.9922 104.229 59.079 108.463 53.9174 111.338 48.2578 112.437 52.719 117.004 57.5117 121.234 62.5967 125.094 68.9283 129.876 75.719 134.016 82.8689 137.456 82.7541 136.702 82.688 135.943 82.6711 135.181Z" fill="#F2F2F2" fill-opacity="0.55" transform="matrix(1.00562 0 0 1 2265 606)"/><path d="M144.971 137.258C135.782 137.263 126.622 136.201 117.678 134.093 117.727 134.454 117.727 134.82 117.678 135.181 117.691 139.776 115.877 144.188 112.634 147.443 123.764 149.649 135.126 150.446 146.454 149.817 150.849 145.842 154.795 141.399 158.222 136.566 153.822 137.054 149.398 137.285 144.971 137.258Z" fill="#F2F2F2" fill-opacity="0.55" transform="matrix(1.00562 0 0 1 2265 606)"/><path d="M117.777 135.181C117.777 144.903 109.896 152.783 100.174 152.783 90.453 152.783 82.5723 144.903 82.5723 135.181 82.5723 125.46 90.453 117.579 100.174 117.579 109.896 117.579 117.777 125.46 117.777 135.181Z" fill="url(#fill53)" transform="matrix(1.00562 0 0 1 2265 606)"/><path d="M121.831 88.3078C122.704 84.4396 124.823 80.9653 127.863 78.4189 111.58 66.5816 96.7735 52.8371 83.7589 37.4789 76.1744 28.572 69.5455 18.8938 63.9811 8.60334 60.2874 9.71068 56.6839 11.0992 53.2022 12.7567 59.1571 23.9614 66.2841 34.5026 74.4633 44.2034 88.3651 60.8099 104.276 75.6248 121.831 88.3078Z" fill="#F2F2F2" fill-opacity="0.7" transform="matrix(1.00562 0 0 1 2265 606)"/><path d="M158.914 91.67C158.914 101.992 150.547 110.36 140.224 110.36 129.902 110.36 121.534 101.992 121.534 91.67 121.534 81.3478 129.902 72.98 140.224 72.98 150.547 72.98 158.914 81.3478 158.914 91.67Z" fill="url(#fill54)" transform="matrix(1.00562 0 0 1 2265 606)"/><path d="M171.572 104.229 168.111 102.548 168.111 102.548 165.145 100.966 164.551 100.966 161.98 98.8889 161.288 98.8889 158.222 96.9111C157.16 100.552 154.938 103.747 151.893 106.009 153.08 106.8 154.366 107.492 155.651 108.184L156.442 108.679 159.903 110.558 159.903 110.558 168.408 115.008 168.408 115.008C169.606 111.417 170.564 107.75 171.276 104.031Z" fill="#F2F2F2" fill-opacity="0.55" transform="matrix(1.00562 0 0 1 2265 606)"/><path d="M70.31 85.8356C70.31 100.745 58.2232 112.832 43.3134 112.832 28.4035 112.832 16.3167 100.745 16.3167 85.8356 16.3167 70.9257 28.4035 58.8389 43.3134 58.8389 58.2232 58.8389 70.31 70.9257 70.31 85.8356Z" fill="url(#fill55)" transform="matrix(1.00562 0 0 1 2265 606)"/><path d="M117.777 135.181C117.777 144.903 109.896 152.783 100.174 152.783 90.453 152.783 82.5723 144.903 82.5723 135.181 82.5723 125.46 90.453 117.579 100.174 117.579 109.896 117.579 117.777 125.46 117.777 135.181Z" fill="url(#fill56)" transform="matrix(1.00562 0 0 1 2265 606)"/></g></g></g><path d="M2356.79 784.5 2356.79 967.05 2352.21 967.05 2352.21 784.5ZM2368.25 962.467 2354.5 989.967 2340.75 962.467Z" fill="#4472C4"/><path d="M2.29167-9.86784e-06 2.29193 60.8955-2.2914 60.8956-2.29167 9.86784e-06ZM13.7502 56.3121 0.000360892 83.8122-13.7498 56.3123Z" fill="#4472C4" transform="matrix(1 0 0 -1 2389.5 925.312)"/><path d="M0.0250353-2.29153 143.443-0.724669 143.393 3.85839-0.0250353 2.29153ZM117.271-16.741 147.966 1.61655 116.878 19.2991C115.777 19.9249 114.378 19.5403 113.753 18.4402 113.127 17.34 113.511 15.9409 114.612 15.3152L142.285-0.425123 142.242 3.53363 114.919-12.8075C113.833-13.4571 113.479-14.8643 114.128-15.9505 114.778-17.0367 116.185-17.3907 117.271-16.741Z" fill="#4472C4" transform="matrix(1 0 0 -1 2444.5 1079.12)"/><g clip-path="url(#clip57)"><g clip-path="url(#clip58)"><g clip-path="url(#clip59)"><path d="M31.5456 154.267C26.2283 154.686 20.9188 153.367 16.4156 150.509 13.0236 146.9 11.3955 141.98 11.9656 137.06L11.9656 102.152C11.9656 96.4167 9.69111 93.3511 4.94445 93.3511L4.94445 84.6489C9.69111 84.6489 11.9656 81.5834 11.9656 75.5511L11.9656 41.2367C11.4264 36.2305 13.0447 31.2315 16.4156 27.4911 20.8552 24.4873 26.2164 23.1558 31.5456 23.7333L31.5456 32.5345C26.5022 32.5345 23.7333 35.2045 23.7333 40.94L23.7333 74.5622C23.7333 82.2756 21.4589 87.0223 16.4156 89 21.6622 91.7812 24.5922 97.562 23.7333 103.438L23.7333 136.763C23.6409 139.119 24.2242 141.453 25.4145 143.488 26.9501 144.946 29.0421 145.667 31.15 145.466L31.15 154.267Z" fill="#949494" transform="matrix(1 0 0 1.00562 2781 704)"/><path d="M146.454 23.7333C151.772 23.3142 157.081 24.6329 161.585 27.4911 164.976 31.0998 166.605 36.0204 166.035 40.94L166.035 75.8478C166.035 81.5834 168.309 84.6489 173.056 84.6489L173.056 93.3511C168.309 93.3511 166.035 96.4167 166.035 102.449L166.035 136.368C166.59 141.406 164.971 146.441 161.585 150.212 157.188 153.328 151.82 154.767 146.454 154.267L146.454 145.466C151.498 145.466 154.267 142.796 154.267 137.06L154.267 103.438C154.267 95.7245 156.541 90.9778 161.585 89 156.338 86.2188 153.408 80.438 154.267 74.5622L154.267 41.2367C154.359 38.8807 153.776 36.5475 152.586 34.5122 151.05 33.0542 148.958 32.3328 146.85 32.5345Z" fill="#949494" transform="matrix(1 0 0 1.00562 2781 704)"/><path d="M93.0545 82.5723 93.0545 70.0134 84.1545 70.0134 84.1545 82.5723C84.1545 83.5553 83.3575 84.3523 82.3745 84.3523L49.4445 84.3522C47.4783 84.3522 45.8845 85.9461 45.8845 87.9122L45.8845 104.229 54.7845 104.229 54.7845 95.23C54.783 94.2843 55.5213 93.5026 56.4656 93.45L121.139 93.45C122.122 93.45 122.919 94.247 122.919 95.23L122.919 104.427 131.72 104.427 131.72 87.9123C131.721 85.9841 130.186 84.4058 128.259 84.3523L94.8345 84.3522C93.8514 84.3522 93.0545 83.5553 93.0545 82.5722Z" fill="#005BA1" transform="matrix(1 0 0 1.00562 2781 704)"/><path d="M104.921 31.7433 71.6945 31.7433C69.6571 31.7426 67.9903 33.3656 67.9367 35.4022L67.9367 68.6289C67.936 70.6497 69.5735 72.2884 71.5942 72.2891 71.6277 72.2892 71.6611 72.2887 71.6945 72.2878L104.921 72.2878C106.939 72.397 108.663 70.8498 108.772 68.832 108.776 68.7644 108.778 68.6967 108.778 68.6289L108.778 35.4022C108.724 33.3276 106.998 31.6894 104.924 31.7433 104.923 31.7433 104.922 31.7433 104.921 31.7433ZM101.757 63.0911C101.704 64.4177 100.612 65.4655 99.2845 65.4645L77.2322 65.4645C75.9046 65.4655 74.8131 64.4177 74.76 63.0911L74.76 41.0389C74.76 39.6735 75.8669 38.5667 77.2322 38.5667L98.8889 38.5667C100.254 38.5667 101.361 39.6735 101.361 41.0389Z" fill="#0078D4" transform="matrix(1 0 0 1.00562 2781 704)"/><path d="M61.8056 104.328C63.2802 104.328 64.4756 105.523 64.4756 106.998L64.4756 130.731C64.4756 132.206 63.2802 133.401 61.8056 133.401L38.0722 133.401C36.5976 133.401 35.4022 132.206 35.4022 130.731L35.4022 106.998C35.4022 105.523 36.5976 104.328 38.0722 104.328Z" fill="url(#fill60)" transform="matrix(1 0 0 1.00562 2781 704)"/><path d="M138.939 104.526C140.414 104.526 141.609 105.721 141.609 107.196L141.609 130.929C141.609 132.404 140.414 133.599 138.939 133.599L115.206 133.599C113.731 133.599 112.536 132.404 112.536 130.929L112.536 107.196C112.536 105.721 113.731 104.526 115.206 104.526Z" fill="url(#fill61)" transform="matrix(1 0 0 1.00562 2781 704)"/></g></g></g><path d="M2679.21 988.641 2679.21 792.208 2776.84 792.208 2776.84 796.791 2681.5 796.791 2683.79 794.5 2683.79 988.641ZM2750.49 776.479 2781.39 794.5 2750.49 812.521C2749.4 813.159 2748 812.789 2747.36 811.696 2746.72 810.603 2747.09 809.2 2748.19 808.562L2775.69 792.52 2775.69 796.479 2748.19 780.438C2747.09 779.8 2746.72 778.397 2747.36 777.303 2748 776.21 2749.4 775.841 2750.49 776.479Z" fill="#4472C4"/><rect x="3187.5" y="719.5" width="386" height="154" stroke="#4472C4" stroke-width="4.58333" stroke-miterlimit="8" fill="#FFFFFF"/><text font-family="Yu Gothic,Yu Gothic_MSFontService,sans-serif" font-weight="400" font-size="46" transform="matrix(1 0 0 1 3264.62 811)">Dashboard</text><path d="M2959.53 792.208 3183.08 794.884 3183.03 799.467 2959.47 796.791ZM3156.93 778.84 3187.6 797.229 3156.5 814.88C3155.39 815.504 3154 815.118 3153.37 814.017 3152.75 812.917 3153.13 811.518 3154.23 810.893L3181.92 795.182 3181.88 799.141 3154.57 782.771C3153.48 782.12 3153.13 780.713 3153.78 779.627 3154.43 778.542 3155.84 778.189 3156.93 778.84Z" fill="#4472C4"/><text font-family="Yu Gothic,Yu Gothic_MSFontService,sans-serif" font-weight="400" font-size="37" transform="matrix(1 0 0 1 1361.03 1205)">Stream Analytics<tspan font-size="37" x="356.363" y="-1">Event Hub</tspan><tspan font-size="37" x="620.196" y="-1">Functions</tspan><tspan font-size="37" x="897.476" y="12">Digital Twins</tspan><tspan font-size="37" x="1231.91" y="13">Event Grid</tspan><tspan font-size="37" x="1408.1" y="-272">Ex. Logic App</tspan><tspan font-size="55" x="872.242" y="-706">Digital Twins</tspan><tspan font-size="55" x="1203.96" y="-706"></tspan><tspan font-size="55" x="1258.96" y="-706">API</tspan><tspan font-size="55" x="1346.62" y="-706"></tspan><tspan font-size="55" x="872.242" y="-640"></tspan><tspan font-size="55" x="-345.715" y="-325"></tspan><tspan font-size="55" x="314.285" y="-325">Stream Analytics</tspan><tspan font-size="55" x="-345.715" y="-259"></tspan><tspan font-size="55" x="-70.7151" y="-259">ADT</tspan><tspan font-size="55" x="40.4308" y="-259"></tspan><tspan font-size="55" x="95.4308" y="-259">Twin</tspan><tspan font-size="55" x="234.077" y="-259">Graph</tspan><tspan font-size="55" x="389.337" y="-259"></tspan></text><path d="M0-2.29167 105.025-2.29167 105.025 254.887 102.733 252.596 182.549 252.596 182.549 257.179 100.441 257.179 100.441 0 102.733 2.29167 0 2.29167ZM177.966 241.137 205.466 254.887 177.966 268.637Z" fill="#4472C4" transform="matrix(-1.83697e-16 -1 -1 1.83697e-16 2609.39 1373.97)"/><path d="M7.60674e-06-2.29167 85.8087-2.29138 85.8087 2.29195-7.60674e-06 2.29167ZM81.2254-13.7497 108.725 0.000360892 81.2253 13.7503Z" fill="#4472C4" transform="matrix(1 0 0 -1 2463.5 1247.5)"/><text font-family="Yu Gothic,Yu Gothic_MSFontService,sans-serif" font-weight="400" font-size="55" transform="matrix(1 0 0 1 2314.27 1329)"><tspan font-size="55" x="-100.712" y="208"></tspan></text><rect x="237.5" y="1303.5" width="500" height="317" stroke="#4472C4" stroke-width="4.58333" stroke-miterlimit="8" fill="#FFFFFF"/><text font-family="Yu Gothic,Yu Gothic_MSFontService,sans-serif" font-weight="400" font-size="46" transform="matrix(1 0 0 1 367.26 1421)">Device<tspan font-size="46" x="156.979" y="0">App</tspan><tspan font-size="46" x="-37.2396" y="55"></tspan><tspan font-size="46" x="8.59375" y="55">Simulator on </tspan><tspan font-size="46" x="0.847931" y="110">Windows</tspan><tspan font-size="46" x="192.775" y="110"></tspan></text><path d="M656 1218 667.25 1173 774.75 1173 786 1218Z" stroke="#FFFFFF" stroke-width="2.29167" stroke-miterlimit="8" fill="url(#fill62)" fill-rule="evenodd"/><rect x="656" y="1218" width="130" height="103" stroke="#FFFFFF" stroke-width="2.29167" stroke-miterlimit="8" fill="url(#fill63)"/><path d="M0 45 11.2501 0 118.75 0 130 45Z" stroke="#FFFFFF" stroke-width="2.29167" stroke-miterlimit="8" fill="url(#fill64)" fill-rule="evenodd" transform="matrix(1 0 0 -1 656 1364)"/><path d="M696 1265C696 1251.19 707.193 1240 721 1240 734.807 1240 746 1251.19 746 1265 746 1278.81 734.807 1290 721 1290 707.193 1290 696 1278.81 696 1265Z" fill="url(#fill65)" fill-rule="evenodd"/><path d="M682.182 1264.99 682.963 1257.19 685.301 1249.88 688.877 1243.31 693.611 1237.61 699.311 1232.88 705.883 1229.3 713.19 1226.96 720.992 1226.18 728.865 1226.96 736.18 1229.3 742.752 1232.88 748.452 1237.61 753.186 1243.31 756.802 1249.96 759.046 1257.27 759.818 1264.99 759.049 1272.78 756.802 1280.11 753.186 1286.75 748.452 1292.45 742.752 1297.19 736.105 1300.8 728.781 1303.05 720.992 1303.82 713.274 1303.05 705.957 1300.8 699.311 1297.19 693.611 1292.45 688.877 1286.75 685.301 1280.18 682.96 1272.86ZM699.208 1269.5 700.54 1273.66 702.6 1277.45 705.328 1280.73 708.613 1283.46 712.384 1285.51 716.545 1286.79 721.002 1287.24 725.519 1286.79 729.679 1285.51 733.45 1283.46 736.735 1280.73 739.463 1277.45 741.515 1273.68 742.79 1269.52 743.237 1265 742.791 1260.55 741.515 1256.38 739.463 1252.61 736.735 1249.33 733.45 1246.6 729.664 1244.54 725.502 1243.21 721.002 1242.76 716.562 1243.21 712.398 1244.54 708.613 1246.6 705.328 1249.33 702.6 1252.61 700.54 1256.4 699.208 1260.56 698.764 1265ZM704.291 1265 704.623 1261.69 705.62 1258.57 707.174 1255.71 709.234 1253.23 711.714 1251.17 714.57 1249.62 717.686 1248.62 721.005 1248.29 724.381 1248.62 727.492 1249.62 730.349 1251.17 732.829 1253.23 734.889 1255.71 736.419 1258.53 737.373 1261.64 737.709 1265 737.371 1268.43 736.419 1271.54 734.889 1274.35 732.829 1276.83 730.349 1278.89 727.537 1280.42 724.432 1281.37 721.005 1281.71 717.636 1281.37 714.526 1280.42 711.714 1278.89 709.234 1276.83 707.174 1274.35 705.62 1271.49 704.624 1268.38ZM710.04 1267.26 710.7 1269.32 711.748 1271.25 713.139 1272.92 714.814 1274.31 716.668 1275.32 718.727 1275.95 721.009 1276.18 723.344 1275.95 725.395 1275.32 727.249 1274.31 728.923 1272.92 730.314 1271.25 731.323 1269.39 731.952 1267.34 732.182 1265.01 731.954 1262.73 731.323 1260.67 730.314 1258.81 728.923 1257.14 727.249 1255.75 725.321 1254.7 723.26 1254.04 721.009 1253.82 718.81 1254.04 716.742 1254.7 714.814 1255.75 713.139 1257.14 711.748 1258.81 710.7 1260.74 710.038 1262.81 709.818 1265.01Z" fill="#FF0000"/><path d="M2.1975-0.650171 8.43168 20.4206 4.03668 21.721-2.1975 0.650171ZM18.1188 12.7748 12.7359 43.0458-8.25117 20.5768Z" fill="#FF0000" transform="matrix(1 0 0 -1 714.5 1284.55)"/><path d="M737.507 1459.21 1037.29 1460.12 1037.27 1464.71 737.493 1463.79ZM1010.99 1444.31 1041.83 1462.43 1010.88 1480.36C1009.78 1480.99 1008.38 1480.62 1007.75 1479.52 1007.11 1478.43 1007.49 1477.02 1008.58 1476.39L1036.13 1460.43 1036.12 1464.39 1008.67 1448.27C1007.58 1447.62 1007.21 1446.22 1007.85 1445.13 1008.49 1444.04 1009.9 1443.67 1010.99 1444.31Z" fill="#4472C4"/></g></svg>