<svg width="3468" height="1579" xmlns="http://www.w3.org/2000/svg" xmlns:xlink="http://www.w3.org/1999/xlink" overflow="hidden"><defs><clipPath id="clip0"><rect x="312" y="287" width="3468" height="1579"/></clipPath><clipPath id="clip1"><rect x="1392" y="1148" width="180" height="179"/></clipPath><clipPath id="clip2"><rect x="1392" y="1148" width="180" height="179"/></clipPath><clipPath id="clip3"><rect x="1392" y="1148" width="180" height="179"/></clipPath><linearGradient x1="90.7926" y1="187.055" x2="88.0082" y2="-80.5499" gradientUnits="userSpaceOnUse" spreadMethod="pad" id="fill4"><stop offset="0" stop-color="#198AB3"/><stop offset="0" stop-color="#198AB3"/><stop offset="0.09" stop-color="#22A5CB"/><stop offset="0.19" stop-color="#29BADE"/><stop offset="0.29" stop-color="#2EC9EB"/><stop offset="0.42" stop-color="#31D1F3"/><stop offset="0.62" stop-color="#32D4F5"/><stop offset="1" stop-color="#32D4F5"/></linearGradient><clipPath id="clip5"><rect x="2162" y="1020" width="178" height="178"/></clipPath><clipPath id="clip6"><rect x="2162" y="1020" width="178" height="178"/></clipPath><clipPath id="clip7"><rect x="2162" y="1020" width="178" height="178"/></clipPath><linearGradient x1="2271.95" y1="1183.92" x2="2271.95" y2="1033.12" gradientUnits="userSpaceOnUse" spreadMethod="pad" id="fill8"><stop offset="0" stop-color="#949494"/><stop offset="0.33" stop-color="#9B9B9B"/><stop offset="0.82" stop-color="#AEAFB0"/><stop offset="1" stop-color="#B6B8B9"/></linearGradient><clipPath id="clip9"><rect x="2724" y="738" width="178" height="178"/></clipPath><clipPath id="clip10"><rect x="2724" y="738" width="178" height="178"/></clipPath><clipPath id="clip11"><rect x="2724" y="738" width="178" height="178"/></clipPath><linearGradient x1="1073" y1="948" x2="1073" y2="993" gradientUnits="userSpaceOnUse" spreadMethod="reflect" id="fill12"><stop offset="0" stop-color="#D2D2D2"/><stop offset="0.5" stop-color="#C8C8C8"/><stop offset="1" stop-color="#C0C0C0"/></linearGradient><linearGradient x1="1073" y1="993" x2="1073" y2="1097" gradientUnits="userSpaceOnUse" spreadMethod="reflect" id="fill13"><stop offset="0" stop-color="#D2D2D2"/><stop offset="0.5" stop-color="#C8C8C8"/><stop offset="1" stop-color="#C0C0C0"/></linearGradient><linearGradient x1="65.0001" y1="0" x2="65.0001" y2="44.9997" gradientUnits="userSpaceOnUse" spreadMethod="reflect" id="fill14"><stop offset="0" stop-color="#D2D2D2"/><stop offset="0.5" stop-color="#C8C8C8"/><stop offset="1" stop-color="#C0C0C0"/></linearGradient><linearGradient x1="1073" y1="1016" x2="1073" y2="1066" gradientUnits="userSpaceOnUse" spreadMethod="reflect" id="fill15"><stop offset="0" stop-color="#D2D2D2"/><stop offset="0.5" stop-color="#C8C8C8"/><stop offset="1" stop-color="#C0C0C0"/></linearGradient><clipPath id="clip16"><rect x="2724" y="1316" width="178" height="177"/></clipPath><clipPath id="clip17"><rect x="2724" y="1316" width="178" height="177"/></clipPath><clipPath id="clip18"><rect x="2724" y="1316" width="178" height="177"/></clipPath></defs><g clip-path="url(#clip0)" transform="translate(-312 -287)"><rect x="312.5" y="287.5" width="3467" height="1578" stroke="#2F528F" stroke-width="1.14583" stroke-miterlimit="8" fill="none"/><g clip-path="url(#clip1)"><g clip-path="url(#clip2)"><g clip-path="url(#clip3)"><path d="M132.957 83.931C132.957 94.7505 124.186 103.522 113.366 103.522 102.547 103.522 93.776 94.7505 93.776 83.931 93.776 73.1114 102.547 64.3405 113.366 64.3405 124.186 64.3405 132.957 73.1114 132.957 83.931Z" fill="#FFFFFF" transform="matrix(1 0 0 1 1393 1148)"/><path d="M161.597 142.205C161.597 150.718 154.696 157.619 146.183 157.619 137.67 157.619 130.769 150.718 130.769 142.205 130.769 133.693 137.67 126.791 146.183 126.791 154.696 126.791 161.597 133.692 161.597 142.205Z" fill="#FFFFFF" transform="matrix(1 0 0 1 1393 1148)"/><path d="M98.4498 131.664C98.4498 138.969 92.5283 144.89 85.2238 144.89 77.9192 144.89 71.9977 138.969 71.9977 131.664 71.9977 124.36 77.9192 118.438 85.2238 118.438 92.5283 118.438 98.4498 124.36 98.4498 131.664Z" fill="#FFFFFF" transform="matrix(1 0 0 1 1393 1148)"/><path d="M92.0854 30.9272C92.0854 39.9892 84.7392 47.3355 75.6771 47.3355 66.6151 47.3355 59.2688 39.9892 59.2688 30.9272 59.2688 21.8651 66.6151 14.5189 75.6771 14.5189 84.7392 14.5189 92.0854 21.8651 92.0854 30.9272Z" fill="#FFFFFF" transform="matrix(1 0 0 1 1393 1148)"/><path d="M44.9488 91.3893C44.9488 98.6939 39.0273 104.615 31.7227 104.615 24.4182 104.615 18.4966 98.6939 18.4966 91.3893 18.4966 84.0847 24.4182 78.1632 31.7227 78.1632 39.0273 78.1632 44.9488 84.0847 44.9488 91.3893Z" fill="#FFFFFF" transform="matrix(1 0 0 1 1393 1148)"/><path d="M149.763 139.123 116.648 81.1465 113.366 83.036 116.051 81.0471 78.561 27.745 71.6993 32.7172 104.914 79.9532 31.325 86.0193 32.0211 94.5715 104.914 88.5054 80.7488 128.681 88.0082 133.056 112.869 91.6876 142.404 143.299 149.763 139.123Z" fill="#949494" transform="matrix(1 0 0 1 1393 1148)"/><path d="M174.326 12.2316 174.326 12.2316C174.326 8.22237 171.076 4.97221 167.066 4.97221L129.278 4.97221C127.301 4.97221 125.698 6.57504 125.698 8.55221L125.698 22.5739C125.698 24.551 127.301 26.1539 129.278 26.1539L152.647 26.1539 152.647 49.026C152.7 51.0361 154.317 52.6533 156.326 52.7055L170.249 52.7055C172.258 52.6533 173.875 51.0361 173.928 49.026L173.928 12.2316Z" fill="#949494" transform="matrix(1 0 0 1 1393 1148)"/><path d="M49.7221 152.846 25.955 152.846 25.955 129.974C25.9028 127.964 24.2856 126.347 22.2755 126.294L8.35332 126.294C6.34325 126.347 4.72612 127.964 4.67388 129.974L4.67388 166.768 4.67388 166.768C4.72828 170.739 7.96255 173.928 11.9333 173.928L49.7221 173.928C51.6993 173.928 53.3021 172.325 53.3021 170.348L53.3021 156.426C53.3021 154.449 51.6993 152.846 49.7221 152.846Z" fill="#949494" transform="matrix(1 0 0 1 1393 1148)"/><path d="M113.366 64.5393C124.351 64.5428 133.252 73.4502 133.249 84.4344 133.245 95.4187 124.338 104.32 113.354 104.317 102.37 104.314 93.468 95.4063 93.4714 84.4219 93.4715 84.2583 93.4736 84.0946 93.4776 83.931 93.7474 73.1413 102.574 64.536 113.366 64.5393ZM59.6666 30.9272C59.6143 40.044 66.9626 47.477 76.0794 47.5293 85.1962 47.5816 92.6293 40.2333 92.6816 31.1165 92.7338 21.9997 85.3856 14.5666 76.2687 14.5144 76.1046 14.5134 75.9405 14.5149 75.7766 14.5189 66.8312 14.6816 59.6651 21.9804 59.6666 30.9272ZM18.4966 91.2899C18.4966 98.5944 24.4181 104.516 31.7227 104.516 39.0273 104.516 44.9488 98.5944 44.9488 91.2899 44.9488 83.9853 39.0273 78.0638 31.7227 78.0638 24.4181 78.0638 18.4966 83.9853 18.4966 91.2899ZM71.9977 131.565C71.9428 138.924 77.8641 144.934 85.2234 144.99 92.5826 145.044 98.593 139.123 98.6479 131.764 98.7029 124.405 92.7815 118.394 85.4222 118.339 85.3892 118.339 85.3562 118.339 85.3232 118.339 78.0188 118.284 72.053 124.16 71.9981 131.465 71.9978 131.498 71.9977 131.532 71.9977 131.565ZM130.869 142.205C130.814 150.718 137.67 157.663 146.183 157.719 154.696 157.773 161.641 150.917 161.695 142.404 161.751 133.892 154.894 126.947 146.382 126.891 146.348 126.891 146.315 126.891 146.283 126.891 137.881 126.781 130.98 133.503 130.87 141.905 130.869 142.005 130.868 142.105 130.869 142.205Z" fill="url(#fill4)" transform="matrix(1 0 0 1 1393 1148)"/></g></g></g><g clip-path="url(#clip5)"><g clip-path="url(#clip6)"><g clip-path="url(#clip7)"><path d="M2340 1116.28 2340 1098.68 2339.02 1097.8 2320.92 1091.7 2316.3 1080 2325.25 1061.51 2326.23 1059.45 2320.33 1053.45 2313.45 1046.66 2311.09 1047.84 2293.39 1056.79 2281.49 1053.45 2273.82 1033.78 2256.22 1033.78 2255.33 1034.67 2249.24 1052.66 2236.85 1057.28 2216.39 1047.45 2203.81 1059.74 2204.99 1062.1 2214.43 1080C2223.92 1074.28 2234.82 1071.35 2245.89 1071.54 2258.47 1071.61 2270.72 1075.52 2281 1082.75 2282.24 1083.53 2283.42 1084.38 2284.54 1085.31L2284.54 1085.31C2288.67 1088.88 2291.82 1093.45 2293.68 1098.58L2293.68 1098.58C2295.06 1102.06 2295.76 1105.76 2295.75 1109.5 2295.75 1127.04 2281.53 1141.26 2263.99 1141.26 2263.92 1141.26 2263.86 1141.26 2263.79 1141.26 2257.21 1141.25 2250.79 1139.23 2245.4 1135.46 2234.76 1145.69 2220.81 1151.8 2206.07 1152.67L2204.2 1156.5 2216.79 1169.19 2219.34 1168.5 2237.04 1158.67 2249.24 1163.68 2257.01 1184.92 2274.71 1184.92 2275.39 1182.46 2281.69 1163.68 2293.68 1158.67 2314.43 1168.5 2326.92 1156.11 2325.74 1153.75 2316.6 1136.15 2320.33 1123.86Z" fill="url(#fill8)"/><path d="M2202.33 1125.72 2202.33 1125.72C2192.9 1125.77 2183.84 1122.06 2177.16 1115.4 2175.03 1114.1 2174.35 1111.32 2175.65 1109.18 2176.95 1107.05 2179.73 1106.37 2181.87 1107.67 2182.59 1108.11 2183.17 1108.75 2183.55 1109.5 2188.6 1114.31 2195.36 1116.89 2202.33 1116.68L2202.33 1116.68C2209.21 1116.85 2215.86 1114.26 2220.82 1109.5 2227.53 1103 2236.56 1099.46 2245.89 1099.67 2255.28 1099.5 2264.36 1103.03 2271.17 1109.5 2273 1111.19 2273.12 1114.05 2271.43 1115.89 2269.73 1117.73 2266.87 1117.84 2265.03 1116.15 2264.94 1116.07 2264.86 1115.98 2264.77 1115.89 2259.83 1110.99 2253.15 1108.23 2246.19 1108.22L2246.19 1108.22C2239.24 1108.17 2232.57 1110.94 2227.7 1115.89 2220.89 1122.41 2211.76 1125.95 2202.33 1125.72Z" fill="#50E6FF"/><path d="M2202.33 1107.73 2202.33 1107.73C2197.69 1107.73 2193.24 1105.89 2189.94 1102.62 2188.25 1100.78 2188.37 1097.92 2190.2 1096.22 2191.94 1094.63 2194.6 1094.63 2196.33 1096.22 2197.92 1097.83 2200.08 1098.72 2202.33 1098.68L2202.33 1098.68C2204.51 1098.49 2206.57 1097.63 2208.23 1096.22 2229.14 1075.59 2262.75 1075.59 2283.65 1096.22 2285.35 1098.06 2285.23 1100.92 2283.39 1102.62 2281.66 1104.21 2279 1104.21 2277.26 1102.62 2259.82 1085.31 2231.68 1085.31 2214.23 1102.62 2210.98 1105.66 2206.77 1107.47 2202.33 1107.73Z" fill="#50E6FF"/><path d="M2202.33 1143.72C2188.06 1143.82 2174.35 1138.19 2164.28 1128.08 2162.63 1126.31 2162.63 1123.57 2164.28 1121.79 2166.08 1120.02 2168.97 1120.02 2170.77 1121.79 2179.11 1130.19 2190.49 1134.87 2202.33 1134.77 2214.15 1134.79 2225.48 1130.08 2233.8 1121.69 2237.09 1118.76 2241.29 1117.06 2245.7 1116.88 2250.3 1116.95 2254.7 1118.78 2257.99 1121.99 2259.75 1123.75 2259.75 1126.61 2257.99 1128.38 2256.19 1130.15 2253.3 1130.15 2251.5 1128.38 2249.97 1126.82 2247.88 1125.93 2245.7 1125.92L2245.7 1125.92C2243.5 1126.09 2241.42 1126.99 2239.8 1128.48 2229.8 1138.29 2216.34 1143.77 2202.33 1143.72Z" fill="#32BEDD"/></g></g></g><g clip-path="url(#clip9)"><g clip-path="url(#clip10)"><g clip-path="url(#clip11)"><path d="M2831.5 820.797C2831.55 822.173 2830.51 823.347 2829.14 823.452L2808.58 823.452C2807.21 823.509 2806.03 822.465 2805.93 821.092L2805.93 805.752C2805.87 804.375 2806.92 803.202 2808.29 803.097L2828.84 803.097C2830.22 803.04 2831.39 804.083 2831.5 805.457L2831.5 820.797Z" fill="#76BC2D"/><path d="M2867.98 836.333C2868.03 837.71 2866.99 838.883 2865.62 838.988L2845.06 838.988C2843.69 839.045 2842.52 838.002 2842.41 836.628L2842.41 821.387C2842.35 820.01 2843.4 818.836 2844.77 818.732L2865.32 818.732C2866.7 818.675 2867.87 819.718 2867.98 821.092L2867.98 836.333Z" fill="#76BC2D"/><path d="M2831.5 852.067C2831.55 853.443 2830.51 854.617 2829.14 854.722L2808.58 854.722C2807.21 854.779 2806.03 853.735 2805.93 852.362L2805.93 837.022C2805.87 835.646 2806.92 834.471 2808.29 834.367L2828.84 834.367C2830.22 834.31 2831.39 835.353 2831.5 836.727L2831.5 852.067Z" fill="#76BC2D"/><path d="M2795.01 805.26C2795.07 806.582 2794.07 807.712 2792.75 807.817L2771.61 807.817C2770.27 807.877 2769.11 806.889 2768.96 805.555L2768.96 789.625C2769 788.324 2770.02 787.266 2771.31 787.167L2791.87 787.167C2794.03 787.167 2795.01 788.248 2795.01 789.822Z" fill="#86D633"/><path d="M2795.01 836.333C2795.13 837.686 2794.12 838.874 2792.77 838.987 2792.76 838.987 2792.76 838.988 2792.75 838.988L2771.61 838.988C2770.2 839.043 2769.01 837.945 2768.96 836.534 2768.95 836.467 2768.95 836.4 2768.96 836.333L2768.96 820.797C2768.95 819.458 2769.98 818.343 2771.31 818.24L2791.87 818.24C2794.03 818.24 2795.01 819.322 2795.01 820.797Z" fill="#76BC2D"/><path d="M2795.01 867.702C2795.13 869.055 2794.12 870.243 2792.77 870.356 2792.76 870.356 2792.76 870.357 2792.75 870.357L2771.61 870.357C2770.23 870.414 2769.06 869.37 2768.96 867.997L2768.96 852.067C2768.9 850.71 2769.95 849.565 2771.31 849.51 2771.31 849.51 2771.31 849.51 2771.31 849.51L2791.87 849.51C2794.03 849.51 2795.01 850.493 2795.01 852.067Z" fill="#76BC2D"/><path d="M2735.52 752.848 2748.21 752.848 2748.21 752.848 2748.21 788.248C2748.21 789.823 2746.93 791.1 2745.35 791.1L2732.77 791.1C2731.19 791.1 2729.92 789.823 2729.92 788.248L2729.92 758.748C2729.75 755.657 2732.13 753.019 2735.22 752.856 2735.32 752.851 2735.42 752.848 2735.52 752.848Z" fill="#999999"/><path d="M2735.52 752.848 2748.21 752.848 2748.21 752.848 2748.21 788.248C2748.21 789.823 2746.93 791.1 2745.35 791.1L2732.77 791.1C2731.19 791.1 2729.92 789.823 2729.92 788.248L2729.92 758.748C2729.75 755.657 2732.13 753.019 2735.22 752.856 2735.32 752.851 2735.42 752.848 2735.52 752.848Z" fill="#999999" fill-opacity="0.5"/><path d="M2878.79 752.848 2891.48 752.848C2894.57 752.848 2897.08 755.358 2897.08 758.453L2897.08 787.953C2897.08 789.528 2895.81 790.805 2894.23 790.805L2881.55 790.805C2879.97 790.805 2878.7 789.528 2878.7 787.953L2878.7 752.848 2878.79 752.848Z" fill="#999999"/><path d="M2878.79 752.848 2891.48 752.848C2894.57 752.848 2897.08 755.358 2897.08 758.453L2897.08 787.953C2897.08 789.528 2895.81 790.805 2894.23 790.805L2881.55 790.805C2879.97 790.805 2878.7 789.528 2878.7 787.953L2878.7 752.848 2878.79 752.848Z" fill="#999999" fill-opacity="0.5"/><path d="M2897.08 758.453 2897.08 770.745 2897.08 770.745 2729.92 770.745 2729.92 770.745 2729.92 758.453C2729.92 755.358 2732.43 752.848 2735.52 752.848L2891.58 752.848C2894.63 752.902 2897.08 755.396 2897.08 758.453Z" fill="#949494"/><path d="M2732.77 863.473 2745.45 863.473C2747.03 863.473 2748.3 864.75 2748.3 866.325L2748.3 901.725 2748.3 901.725 2735.52 901.725C2732.43 901.725 2729.92 899.216 2729.92 896.12L2729.92 865.833C2730.16 864.453 2731.37 863.453 2732.77 863.473Z" fill="#999999"/><path d="M2732.77 863.473 2745.45 863.473C2747.03 863.473 2748.3 864.75 2748.3 866.325L2748.3 901.725 2748.3 901.725 2735.52 901.725C2732.43 901.725 2729.92 899.216 2729.92 896.12L2729.92 865.833C2730.16 864.453 2731.37 863.453 2732.77 863.473Z" fill="#999999" fill-opacity="0.5"/><path d="M2881.55 863.473 2894.23 863.473C2895.81 863.473 2897.08 864.75 2897.08 866.325L2897.08 895.825C2897.08 898.921 2894.57 901.43 2891.48 901.43L2878.79 901.43 2878.79 901.43 2878.79 865.833C2879.03 864.489 2880.18 863.5 2881.55 863.473Z" fill="#999999"/><path d="M2881.55 863.473 2894.23 863.473C2895.81 863.473 2897.08 864.75 2897.08 866.325L2897.08 895.825C2897.08 898.921 2894.57 901.43 2891.48 901.43L2878.79 901.43 2878.79 901.43 2878.79 865.833C2879.03 864.489 2880.18 863.5 2881.55 863.473Z" fill="#999999" fill-opacity="0.5"/><path d="M2729.92 896.12 2729.92 883.828 2729.92 883.828 2897.08 883.828 2897.08 883.828 2897.08 896.12C2897.08 899.216 2894.57 901.725 2891.48 901.725L2735.52 901.725C2732.43 901.725 2729.92 899.216 2729.92 896.12Z" fill="#949494"/></g></g></g><path d="M0-2.29167 225.84-2.29167 225.84 210.916 223.548 208.625 442.559 208.625 442.559 213.208 221.256 213.208 221.256 0 223.548 2.29167 0 2.29167ZM416.213 192.895 447.107 210.916 416.213 228.938C415.12 229.575 413.717 229.206 413.079 228.113 412.441 227.019 412.811 225.616 413.904 224.979L441.404 208.937 441.404 212.896 413.904 196.854C412.811 196.216 412.441 194.813 413.079 193.72 413.717 192.627 415.12 192.257 416.213 192.895Z" fill="#4472C4" transform="matrix(1 0 0 -1 1716.5 1321.42)"/><path d="M2249.21 1021.71 2249.21 824.208 2720.8 824.208 2720.8 828.792 2251.5 828.792 2253.79 826.5 2253.79 1021.71ZM2694.46 808.479 2725.35 826.5 2694.46 844.521C2693.36 845.159 2691.96 844.789 2691.32 843.696 2690.68 842.603 2691.05 841.2 2692.15 840.562L2719.65 824.52 2719.65 828.479 2692.15 812.438C2691.05 811.8 2690.68 810.397 2691.32 809.303 2691.96 808.21 2693.36 807.841 2694.46 808.479Z" fill="#4472C4"/><text font-family="Yu Gothic,Yu Gothic_MSFontService,sans-serif" font-weight="400" font-size="37" transform="matrix(1 0 0 1 2710.46 953)">Event Hub</text><rect x="590.5" y="1078.5" width="499" height="318" stroke="#4472C4" stroke-width="4.58333" stroke-miterlimit="8" fill="#FFFFFF"/><text font-family="Yu Gothic,Yu Gothic_MSFontService,sans-serif" font-weight="400" font-size="46" transform="matrix(1 0 0 1 719.53 1196)">Device<tspan font-size="46" x="156.979" y="0">App</tspan><tspan font-size="46" x="-37.2396" y="55">（</tspan><tspan font-size="46" x="8.59375" y="55">Simulator on </tspan><tspan font-size="46" x="0.847901" y="110">Windows</tspan><tspan font-size="46" x="192.775" y="110">）</tspan></text><path d="M1008 993 1019.25 948 1126.75 948 1138 993Z" stroke="#FFFFFF" stroke-width="2.29167" stroke-miterlimit="8" fill="url(#fill12)" fill-rule="evenodd"/><rect x="1008" y="993" width="130" height="104" stroke="#FFFFFF" stroke-width="2.29167" stroke-miterlimit="8" fill="url(#fill13)"/><path d="M0 44.9997 11.2499 0 118.75 0 130 44.9997Z" stroke="#FFFFFF" stroke-width="2.29167" stroke-miterlimit="8" fill="url(#fill14)" fill-rule="evenodd" transform="matrix(1 0 0 -1 1008 1139)"/><path d="M1048 1041C1048 1027.19 1059.19 1016 1073 1016 1086.81 1016 1098 1027.19 1098 1041 1098 1054.81 1086.81 1066 1073 1066 1059.19 1066 1048 1054.81 1048 1041Z" fill="url(#fill15)" fill-rule="evenodd"/><path d="M1034.18 1040.99 1034.96 1033.19 1037.3 1025.88 1040.88 1019.31 1045.61 1013.61 1051.31 1008.88 1057.88 1005.3 1065.19 1002.96 1072.99 1002.18 1080.86 1002.96 1088.18 1005.3 1094.75 1008.88 1100.45 1013.61 1105.19 1019.31 1108.8 1025.96 1111.05 1033.27 1111.82 1040.99 1111.05 1048.78 1108.8 1056.11 1105.19 1062.75 1100.45 1068.45 1094.75 1073.19 1088.11 1076.8 1080.78 1079.05 1072.99 1079.82 1065.27 1079.05 1057.96 1076.8 1051.31 1073.19 1045.61 1068.45 1040.88 1062.75 1037.3 1056.18 1034.96 1048.86ZM1051.21 1045.5 1052.54 1049.66 1054.6 1053.45 1057.33 1056.73 1060.61 1059.46 1064.38 1061.51 1068.55 1062.79 1073 1063.24 1077.52 1062.79 1081.68 1061.51 1085.45 1059.46 1088.73 1056.73 1091.46 1053.45 1093.51 1049.68 1094.79 1045.52 1095.24 1041 1094.79 1036.55 1093.51 1032.38 1091.46 1028.61 1088.73 1025.33 1085.45 1022.6 1081.66 1020.54 1077.5 1019.21 1073 1018.76 1068.56 1019.21 1064.4 1020.54 1060.61 1022.6 1057.33 1025.33 1054.6 1028.61 1052.54 1032.4 1051.21 1036.56 1050.76 1041ZM1056.29 1041.01 1056.62 1037.69 1057.62 1034.57 1059.17 1031.71 1061.23 1029.23 1063.71 1027.17 1066.57 1025.62 1069.69 1024.62 1073.01 1024.29 1076.38 1024.62 1079.49 1025.62 1082.35 1027.17 1084.83 1029.23 1086.89 1031.71 1088.42 1034.53 1089.37 1037.64 1089.71 1041.01 1089.37 1044.43 1088.42 1047.54 1086.89 1050.35 1084.83 1052.83 1082.35 1054.89 1079.54 1056.42 1076.43 1057.37 1073.01 1057.71 1069.64 1057.37 1066.53 1056.42 1063.71 1054.89 1061.23 1052.83 1059.17 1050.35 1057.62 1047.49 1056.62 1044.38ZM1062.04 1043.26 1062.7 1045.32 1063.75 1047.25 1065.14 1048.92 1066.81 1050.31 1068.67 1051.32 1070.73 1051.95 1073.01 1052.18 1075.34 1051.95 1077.39 1051.32 1079.25 1050.31 1080.92 1048.92 1082.31 1047.25 1083.32 1045.39 1083.95 1043.34 1084.18 1041.01 1083.95 1038.73 1083.32 1036.67 1082.31 1034.81 1080.92 1033.14 1079.25 1031.75 1077.32 1030.7 1075.26 1030.04 1073.01 1029.82 1070.81 1030.04 1068.74 1030.7 1066.81 1031.75 1065.14 1033.14 1063.75 1034.81 1062.7 1036.74 1062.04 1038.81 1061.82 1041.01Z" fill="#FF0000"/><path d="M2.1975-0.650171 8.43168 20.4206 4.03668 21.721-2.1975 0.650171ZM18.1188 12.7748 12.7359 43.0458-8.25117 20.5768Z" fill="#FF0000" transform="matrix(1 0 0 -1 1067.5 1060.55)"/><path d="M1089.51 1235.21 1389.29 1236.12 1389.27 1240.71 1089.49 1239.79ZM1362.99 1220.31 1393.83 1238.43 1362.88 1256.36C1361.78 1256.99 1360.38 1256.62 1359.75 1255.52 1359.11 1254.43 1359.49 1253.02 1360.58 1252.39L1388.13 1236.43 1388.12 1240.39 1360.67 1224.26C1359.58 1223.62 1359.21 1222.22 1359.85 1221.13 1360.49 1220.04 1361.9 1219.67 1362.99 1220.31Z" fill="#4472C4"/><rect x="832" y="1420" width="984" height="200" fill="#FFFFFF"/><text fill="#161616" font-family="Arial,Arial_MSFontService,sans-serif" font-weight="400" font-size="46" transform="matrix(1 0 0 1 865.208 1483)">{ "deviceid": "thermostatic-chamber<tspan font-size="46" x="710.417" y="0">-</tspan>1", <tspan font-size="46" x="0" y="55">"temperature": 30.009999991281315, </tspan><tspan font-size="46" x="0" y="110">"timestamp": "2021/09/28T10:21:02.895Z" }</tspan><tspan font-size="46" x="-274.388" y="-119">thermostatic</tspan><tspan font-size="46" x="-25.7418" y="-119">-</tspan><tspan font-size="46" x="-10.273" y="-119">chamber</tspan><tspan font-size="46" x="167.331" y="-119">-</tspan>1</text><rect x="1275.5" y="1076.5" width="373" height="330" stroke="#2F528F" stroke-width="1.14583" stroke-miterlimit="8" fill="none"/><path d="M1609.87 1181.5C1613.4 1181.5 1616.25 1170.08 1616.25 1156 1616.25 1141.92 1613.4 1130.5 1609.87 1130.5L1711.12 1130.5C1714.65 1130.5 1717.5 1141.92 1717.5 1156 1717.5 1170.08 1714.65 1181.5 1711.12 1181.5Z" fill="#4472C4" fill-rule="evenodd" fill-opacity="0.560784"/><path d="M1609.87 1181.5C1606.35 1181.5 1603.5 1170.08 1603.5 1156 1603.5 1141.92 1606.35 1130.5 1609.87 1130.5 1613.4 1130.5 1616.25 1141.92 1616.25 1156 1616.25 1170.08 1613.4 1181.5 1609.87 1181.5Z" fill="#8FAADC" fill-rule="evenodd" fill-opacity="0.560784"/><path d="M1609.87 1130.5C1613.4 1130.5 1616.25 1141.92 1616.25 1156 1616.25 1170.08 1613.4 1181.5 1609.87 1181.5 1606.35 1181.5 1603.5 1170.08 1603.5 1156 1603.5 1141.92 1606.35 1130.5 1609.87 1130.5L1711.12 1130.5C1714.65 1130.5 1717.5 1141.92 1717.5 1156 1717.5 1170.08 1714.65 1181.5 1711.12 1181.5L1609.87 1181.5" stroke="#2F528F" stroke-width="4.58333" stroke-miterlimit="8" fill="none" fill-rule="evenodd"/><path d="M1609.88 1264.5C1613.4 1264.5 1616.25 1253.08 1616.25 1239 1616.25 1224.92 1613.4 1213.5 1609.88 1213.5L1711.12 1213.5C1714.65 1213.5 1717.5 1224.92 1717.5 1239 1717.5 1253.08 1714.65 1264.5 1711.12 1264.5Z" fill="#4472C4" fill-rule="evenodd" fill-opacity="0.560784"/><path d="M1609.88 1264.5C1606.35 1264.5 1603.5 1253.08 1603.5 1239 1603.5 1224.92 1606.35 1213.5 1609.88 1213.5 1613.4 1213.5 1616.25 1224.92 1616.25 1239 1616.25 1253.08 1613.4 1264.5 1609.88 1264.5Z" fill="#8FAADC" fill-rule="evenodd" fill-opacity="0.560784"/><path d="M1609.88 1213.5C1613.4 1213.5 1616.25 1224.92 1616.25 1239 1616.25 1253.08 1613.4 1264.5 1609.88 1264.5 1606.35 1264.5 1603.5 1253.08 1603.5 1239 1603.5 1224.92 1606.35 1213.5 1609.88 1213.5L1711.12 1213.5C1714.65 1213.5 1717.5 1224.92 1717.5 1239 1717.5 1253.08 1714.65 1264.5 1711.12 1264.5L1609.88 1264.5" stroke="#2F528F" stroke-width="4.58333" stroke-miterlimit="8" fill="none" fill-rule="evenodd"/><path d="M1607.88 1346.5C1611.4 1346.5 1614.25 1335.08 1614.25 1321 1614.25 1306.92 1611.4 1295.5 1607.88 1295.5L1710.12 1295.5C1713.65 1295.5 1716.5 1306.92 1716.5 1321 1716.5 1335.08 1713.65 1346.5 1710.12 1346.5Z" fill="#4472C4" fill-rule="evenodd" fill-opacity="0.560784"/><path d="M1607.88 1346.5C1604.35 1346.5 1601.5 1335.08 1601.5 1321 1601.5 1306.92 1604.35 1295.5 1607.88 1295.5 1611.4 1295.5 1614.25 1306.92 1614.25 1321 1614.25 1335.08 1611.4 1346.5 1607.88 1346.5Z" fill="#8FAADC" fill-rule="evenodd" fill-opacity="0.560784"/><path d="M1607.88 1295.5C1611.4 1295.5 1614.25 1306.92 1614.25 1321 1614.25 1335.08 1611.4 1346.5 1607.88 1346.5 1604.35 1346.5 1601.5 1335.08 1601.5 1321 1601.5 1306.92 1604.35 1295.5 1607.88 1295.5L1710.12 1295.5C1713.65 1295.5 1716.5 1306.92 1716.5 1321 1716.5 1335.08 1713.65 1346.5 1710.12 1346.5L1607.88 1346.5" stroke="#2F528F" stroke-width="4.58333" stroke-miterlimit="8" fill="none" fill-rule="evenodd"/><text fill="#161616" font-family="Arial,Arial_MSFontService,sans-serif" font-weight="400" font-size="37" transform="matrix(1 0 0 1 1593.84 1171)">$Default</text><rect x="1556.5" y="983.5" width="266" height="384" stroke="#4472C4" stroke-width="4.58333" stroke-miterlimit="8" stroke-dasharray="13.75 4.58333" fill="none"/><text font-family="Yu Gothic,Yu Gothic_MSFontService,sans-serif" font-weight="400" font-size="37" transform="matrix(1 0 0 1 1603.12 1033)">Consumer <tspan font-size="37" x="34.948" y="44">Group</tspan><tspan fill="#161616" font-family="Arial,Arial_MSFontService,sans-serif" font-size="37" x="41.3638" y="223">tsi</tspan><tspan font-size="37" x="36.8916" y="302">sa</tspan></text><g clip-path="url(#clip16)"><g clip-path="url(#clip17)"><g clip-path="url(#clip18)"><path d="M105.893 82.3289C105.95 83.6974 104.913 84.8648 103.547 84.9689L83.1111 84.9689C81.7426 85.0255 80.5752 83.9879 80.4711 82.6222L80.4711 67.3689C80.4145 66.0004 81.4521 64.8331 82.8178 64.7289L103.253 64.7289C104.622 64.6723 105.789 65.7099 105.893 67.0756L105.893 82.3289Z" fill="#76BC2D" transform="matrix(1.00568 0 0 1 2725 1317)"/><path d="M142.169 97.7778C142.226 99.1467 141.188 100.313 139.822 100.418L119.387 100.418C118.018 100.474 116.851 99.4371 116.747 98.0711L116.747 82.9156C116.69 81.5471 117.727 80.3797 119.093 80.2756L139.529 80.2756C140.898 80.2189 142.064 81.2566 142.169 82.6222L142.169 97.7778Z" fill="#76BC2D" transform="matrix(1.00568 0 0 1 2725 1317)"/><path d="M105.893 113.422C105.95 114.791 104.913 115.958 103.547 116.062L83.1111 116.062C81.7426 116.119 80.5752 115.082 80.4711 113.716L80.4711 98.4622C80.4145 97.0937 81.4521 95.9264 82.8178 95.8222L103.253 95.8222C104.622 95.7656 105.789 96.8032 105.893 98.1689L105.893 113.422Z" fill="#76BC2D" transform="matrix(1.00568 0 0 1 2725 1317)"/><path d="M69.6178 66.88C69.6745 68.1945 68.6806 69.3182 67.3689 69.4222L46.3467 69.4222C45.0126 69.4824 43.8594 68.5 43.7067 67.1733L43.7067 51.3333C43.7526 50.04 44.763 48.9876 46.0533 48.8889L66.4889 48.8889C68.64 48.8889 69.6178 49.9644 69.6178 51.5289Z" fill="#86D633" transform="matrix(1.00568 0 0 1 2725 1317)"/><path d="M69.6178 97.7778C69.7297 99.1232 68.7299 100.304 67.3844 100.417 67.3792 100.417 67.3741 100.418 67.3689 100.418L46.3467 100.418C44.9437 100.473 43.7617 99.3804 43.7067 97.9772 43.704 97.9108 43.704 97.8443 43.7067 97.7778L43.7067 82.3289C43.7028 80.9978 44.7262 79.889 46.0533 79.7867L66.4889 79.7867C68.64 79.7867 69.6178 80.8622 69.6178 82.3289Z" fill="#76BC2D" transform="matrix(1.00568 0 0 1 2725 1317)"/><path d="M69.6178 128.969C69.7297 130.314 68.7299 131.495 67.3844 131.608 67.3792 131.608 67.3741 131.609 67.3689 131.609L46.3467 131.609C44.9782 131.666 43.8109 130.628 43.7067 129.262L43.7067 113.422C43.6516 112.073 44.7005 110.935 46.0494 110.88 46.0507 110.88 46.0521 110.88 46.0533 110.88L66.4889 110.88C68.64 110.88 69.6178 111.858 69.6178 113.422Z" fill="#76BC2D" transform="matrix(1.00568 0 0 1 2725 1317)"/><path d="M10.4622 14.7644 23.0756 14.7644 23.0756 14.7644 23.0756 49.9644C23.0756 51.5305 21.806 52.8 20.24 52.8L7.72444 52.8C6.15841 52.8 4.88889 51.5305 4.88889 49.9644L4.88889 20.6311C4.72688 17.5573 7.08735 14.9342 10.1612 14.7722 10.2614 14.7669 10.3618 14.7643 10.4622 14.7644Z" fill="#999999" transform="matrix(1.00568 0 0 1 2725 1317)"/><path d="M10.4622 14.7644 23.0756 14.7644 23.0756 14.7644 23.0756 49.9644C23.0756 51.5305 21.806 52.8 20.24 52.8L7.72444 52.8C6.15841 52.8 4.88889 51.5305 4.88889 49.9644L4.88889 20.6311C4.72688 17.5573 7.08735 14.9342 10.1612 14.7722 10.2614 14.7669 10.3618 14.7643 10.4622 14.7644Z" fill="#999999" fill-opacity="0.5" transform="matrix(1.00568 0 0 1 2725 1317)"/><path d="M152.924 14.7644 165.538 14.7644C168.616 14.7644 171.111 17.2597 171.111 20.3378L171.111 49.6711C171.111 51.2371 169.842 52.5067 168.276 52.5067L155.662 52.5067C154.096 52.5067 152.827 51.2371 152.827 49.6711L152.827 14.7644 152.924 14.7644Z" fill="#999999" transform="matrix(1.00568 0 0 1 2725 1317)"/><path d="M152.924 14.7644 165.538 14.7644C168.616 14.7644 171.111 17.2597 171.111 20.3378L171.111 49.6711C171.111 51.2371 169.842 52.5067 168.276 52.5067L155.662 52.5067C154.096 52.5067 152.827 51.2371 152.827 49.6711L152.827 14.7644 152.924 14.7644Z" fill="#999999" fill-opacity="0.5" transform="matrix(1.00568 0 0 1 2725 1317)"/><path d="M84.6756-59.4489 96.8978-59.4489 96.8978-59.4489 96.8978 106.773 96.8978 106.773 84.6756 106.773C81.5975 106.773 79.1022 104.278 79.1022 101.2L79.1022-53.9733C79.1556-57.0131 81.6353-59.4494 84.6756-59.4489Z" fill="#949494" transform="matrix(6.15802e-17 1 -1.00568 6.12323e-17 2837.3 1252.66)"/><path d="M7.72444 124.764 20.3378 124.764C21.9038 124.764 23.1733 126.034 23.1733 127.6L23.1733 162.8 23.1733 162.8 10.4622 162.8C7.38416 162.8 4.88889 160.305 4.88889 157.227L4.88889 127.111C5.129 125.738 6.33102 124.744 7.72444 124.764Z" fill="#999999" transform="matrix(1.00568 0 0 1 2725 1317)"/><path d="M7.72444 124.764 20.3378 124.764C21.9038 124.764 23.1733 126.034 23.1733 127.6L23.1733 162.8 23.1733 162.8 10.4622 162.8C7.38416 162.8 4.88889 160.305 4.88889 157.227L4.88889 127.111C5.129 125.738 6.33102 124.744 7.72444 124.764Z" fill="#999999" fill-opacity="0.5" transform="matrix(1.00568 0 0 1 2725 1317)"/><path d="M155.662 124.764 168.276 124.764C169.842 124.764 171.111 126.034 171.111 127.6L171.111 156.933C171.111 160.011 168.616 162.507 165.538 162.507L152.924 162.507 152.924 162.507 152.924 127.111C153.158 125.774 154.306 124.791 155.662 124.764Z" fill="#999999" transform="matrix(1.00568 0 0 1 2725 1317)"/><path d="M155.662 124.764 168.276 124.764C169.842 124.764 171.111 126.034 171.111 127.6L171.111 156.933C171.111 160.011 168.616 162.507 165.538 162.507L152.924 162.507 152.924 162.507 152.924 127.111C153.158 125.774 154.306 124.791 155.662 124.764Z" fill="#999999" fill-opacity="0.5" transform="matrix(1.00568 0 0 1 2725 1317)"/><path d="M84.6756 70.7911 96.8978 70.7911 96.8978 70.7911 96.8978 237.013 96.8978 237.013 84.6756 237.013C81.5975 237.013 79.1022 234.518 79.1022 231.44L79.1022 76.3644C79.1022 73.2864 81.5975 70.7911 84.6756 70.7911Z" fill="#949494" transform="matrix(6.15802e-17 -1 1.00568 6.12323e-17 2658.72 1558.9)"/></g></g></g><text font-family="Yu Gothic,Yu Gothic_MSFontService,sans-serif" font-weight="400" font-size="37" transform="matrix(1 0 0 1 2710.46 1532)">Event Hub</text><path d="M0-2.29167 209.23-2.29167 209.23 469.302 204.647 469.302 204.647 0 206.939 2.29167 0 2.29167ZM224.96 442.956 206.939 473.85 188.917 442.956C188.28 441.863 188.649 440.46 189.742 439.822 190.835 439.184 192.239 439.554 192.876 440.647L208.918 468.147 204.959 468.147 221.001 440.647C221.638 439.554 223.042 439.184 224.135 439.822 225.228 440.46 225.597 441.863 224.96 442.956Z" fill="#4472C4" transform="matrix(1.83697e-16 1 1 -1.83697e-16 2251.5 1198.5)"/><text font-family="Yu Gothic,Yu Gothic_MSFontService,sans-serif" font-weight="700" font-size="55" transform="matrix(1 0 0 1 1938.87 1077)">device<tspan font-size="55" x="439.241" y="-282">statistics</tspan><tspan font-size="55" x="439.241" y="296">rawdata</tspan><tspan font-weight="400" font-size="55" x="1127.79" y="-267">Azure</tspan><tspan font-weight="400" font-size="55" x="1287.06" y="-267">Digital</tspan><tspan font-weight="400" font-size="55" x="1467.53" y="-267">Twins</tspan><tspan font-weight="400" font-size="55" x="1127.79" y="-201">Twin</tspan><tspan font-weight="400" font-size="55" x="1266.43" y="-201">Graph</tspan><tspan font-weight="400" font-size="55" x="1437.16" y="-201">Updat</tspan><tspan font-weight="400" font-size="55" x="1592.42" y="-201">e</tspan></text><path d="M6.27801e-06-2.29167 18.3333-2.29162 18.3333 2.29172-6.27801e-06 2.29167ZM32.0833-2.29158 50.4167-2.29153 50.4167 2.2918 32.0833 2.29175ZM64.1667-2.29149 82.5-2.29144 82.5 2.29189 64.1667 2.29184ZM96.25-2.2914 114.583-2.29135 114.583 2.29198 96.25 2.29193ZM100.854-18.0209 131.748 0.000361016 100.854 18.0214C99.7608 18.6592 98.3576 18.2899 97.7199 17.1966 97.0822 16.1034 97.4514 14.7002 98.5447 14.0624L126.045-1.97915 126.045 1.97984 98.5447-14.0619C97.4515-14.6996 97.0822-16.1029 97.72-17.1961 98.3577-18.2893 99.7609-18.6586 100.854-18.0209Z" fill="#4472C4" transform="matrix(1 0 0 -1 2902.5 826.5)"/><text font-family="Yu Gothic,Yu Gothic_MSFontService,sans-serif" font-weight="400" font-size="55" transform="matrix(1 0 0 1 3066.65 1388)">生<tspan font-size="55" x="55" y="0">データが必要な</tspan><tspan font-size="55" x="0" y="66">サービスへ</tspan></text><path d="M0.0189275-2.29159 18.3516-2.14017 18.3138 2.44301-0.0189275 2.29159ZM32.1012-2.0266 50.4339-1.87518 50.396 2.70799 32.0633 2.55657ZM64.1834-1.76162 82.5161-1.6102 82.4783 2.97298 64.1455 2.82156ZM96.2656-1.49663 114.598-1.34521 114.56 3.23797 96.2278 3.08655ZM101.004-17.1875 131.748 1.08818 100.706 18.8536C99.6079 19.4822 98.2077 19.1014 97.579 18.0029 96.9504 16.9044 97.3312 15.5043 98.4297 14.8756L126.061-0.938349 126.029 3.0205 98.662-13.2477C97.574-13.8945 97.2164-15.3007 97.8631-16.3886 98.5098-17.4766 99.9161-17.8343 101.004-17.1875Z" fill="#4472C4" transform="matrix(1 0 0 -1 2902.5 1405.59)"/><path d="M1891.5 640.5 2073.5 640.5 2073.5 640.5 2151.5 640.5 2203.5 640.5 2203.5 785.75 2203.5 785.75 2203.5 848 2203.5 889.5 2151.5 889.5 2214.05 1026.56 2073.5 889.5 1891.5 889.5 1891.5 848 1891.5 785.75 1891.5 785.75Z" stroke="#4472C4" stroke-width="4.58333" stroke-miterlimit="8" fill="#FFFFFF" fill-rule="evenodd"/><text font-family="Yu Gothic,Yu Gothic_MSFontService,sans-serif" font-style="oblique" font-weight="700" font-size="55" transform="matrix(1 0 0 1 1967.44 782)">Query</text><path d="M1856.5 555.126C1856.5 509.493 1893.49 472.5 1939.13 472.5L2615.87 472.5C2661.51 472.5 2698.5 509.493 2698.5 555.126L2698.5 1398.87C2698.5 1444.51 2661.51 1481.5 2615.87 1481.5L1939.13 1481.5C1893.49 1481.5 1856.5 1444.51 1856.5 1398.87Z" stroke="#FF0000" stroke-width="1.14583" stroke-miterlimit="8" fill="none" fill-rule="evenodd"/><text font-family="Yu Gothic,Yu Gothic_MSFontService,sans-serif" font-weight="700" font-size="55" transform="matrix(1 0 0 1 2050.36 564)">Stream Analytics</text></g></svg>