<svg width="3467" height="834" xmlns="http://www.w3.org/2000/svg" xmlns:xlink="http://www.w3.org/1999/xlink" overflow="hidden"><defs><clipPath id="clip0"><rect x="150" y="1095" width="3467" height="834"/></clipPath><clipPath id="clip1"><rect x="1767" y="1368" width="179" height="178"/></clipPath><clipPath id="clip2"><rect x="1767" y="1368" width="179" height="178"/></clipPath><clipPath id="clip3"><rect x="1767" y="1368" width="179" height="178"/></clipPath><linearGradient x1="89.2965" y1="132.313" x2="89.2965" y2="45.7855" gradientUnits="userSpaceOnUse" spreadMethod="pad" id="fill4"><stop offset="0" stop-color="#198AB3"/><stop offset="0.4" stop-color="#25AED3"/><stop offset="0.78" stop-color="#2FCAEC"/><stop offset="1" stop-color="#32D4F5"/></linearGradient><clipPath id="clip5"><rect x="2274" y="1368" width="181" height="178"/></clipPath><clipPath id="clip6"><rect x="2274" y="1368" width="181" height="178"/></clipPath><clipPath id="clip7"><rect x="2274" y="1368" width="181" height="178"/></clipPath><linearGradient x1="88.99" y1="0.801539" x2="88.99" y2="177.198" gradientUnits="userSpaceOnUse" spreadMethod="pad" id="fill8"><stop offset="0" stop-color="#B3B2B3"/><stop offset="0.216" stop-color="#AFAEAF"/><stop offset="0.44" stop-color="#A2A2A2"/><stop offset="0.577" stop-color="#979797"/><stop offset="1" stop-color="#979797"/></linearGradient><clipPath id="clip9"><rect x="2021" y="1664" width="179" height="179"/></clipPath><clipPath id="clip10"><rect x="2021" y="1664" width="179" height="179"/></clipPath><clipPath id="clip11"><rect x="2021" y="1664" width="179" height="179"/></clipPath><linearGradient x1="2111" y1="1820.54" x2="2111" y2="1721.26" gradientUnits="userSpaceOnUse" spreadMethod="pad" id="fill12"><stop offset="0" stop-color="#B3B3B3"/><stop offset="0.26" stop-color="#C1C1C1"/><stop offset="1" stop-color="#E6E6E6"/></linearGradient><clipPath id="clip13"><rect x="2810" y="1368" width="179" height="178"/></clipPath><clipPath id="clip14"><rect x="2810" y="1368" width="179" height="178"/></clipPath><clipPath id="clip15"><rect x="2810" y="1368" width="179" height="178"/></clipPath><radialGradient cx="13428.8" cy="3518.86" r="56.67" gradientUnits="userSpaceOnUse" spreadMethod="pad" id="fill16" gradientTransform="matrix(1.48333 0 0 1.48333 -19830.5 -5130.64)"><stop offset="0" stop-color="#5EA0EF"/><stop offset="0.18" stop-color="#5EA0EF"/><stop offset="1" stop-color="#0078D4"/></radialGradient><linearGradient x1="43.511" y1="113.524" x2="43.2144" y2="74.4632" gradientUnits="userSpaceOnUse" spreadMethod="pad" id="fill17"><stop offset="0" stop-color="#CCCCCC"/><stop offset="1" stop-color="#FCFCFC"/></linearGradient><linearGradient x1="100.174" y1="152.783" x2="100.174" y2="117.678" gradientUnits="userSpaceOnUse" spreadMethod="pad" id="fill18"><stop offset="0" stop-color="#CCCCCC"/><stop offset="1" stop-color="#FCFCFC"/></linearGradient><linearGradient x1="140.224" y1="110.261" x2="140.224" y2="72.9799" gradientUnits="userSpaceOnUse" spreadMethod="pad" id="fill19"><stop offset="0" stop-color="#CCCCCC"/><stop offset="1" stop-color="#FCFCFC"/></linearGradient><linearGradient x1="43.511" y1="113.524" x2="43.2144" y2="74.4632" gradientUnits="userSpaceOnUse" spreadMethod="pad" id="fill20"><stop offset="0" stop-color="#CCCCCC"/><stop offset="1" stop-color="#FCFCFC"/></linearGradient><linearGradient x1="100.174" y1="152.783" x2="100.174" y2="117.678" gradientUnits="userSpaceOnUse" spreadMethod="pad" id="fill21"><stop offset="0" stop-color="#CCCCCC"/><stop offset="1" stop-color="#FCFCFC"/></linearGradient><clipPath id="clip22"><rect x="1336" y="1364" width="178" height="179"/></clipPath><clipPath id="clip23"><rect x="1336" y="1364" width="178" height="179"/></clipPath><clipPath id="clip24"><rect x="1336" y="1364" width="178" height="179"/></clipPath><linearGradient x1="90.2854" y1="186.01" x2="87.5165" y2="-80.0999" gradientUnits="userSpaceOnUse" spreadMethod="pad" id="fill25"><stop offset="0" stop-color="#198AB3"/><stop offset="0" stop-color="#198AB3"/><stop offset="0.09" stop-color="#22A5CB"/><stop offset="0.19" stop-color="#29BADE"/><stop offset="0.29" stop-color="#2EC9EB"/><stop offset="0.42" stop-color="#31D1F3"/><stop offset="0.62" stop-color="#32D4F5"/><stop offset="1" stop-color="#32D4F5"/></linearGradient><linearGradient x1="714" y1="1164" x2="714" y2="1209" gradientUnits="userSpaceOnUse" spreadMethod="reflect" id="fill26"><stop offset="0" stop-color="#D2D2D2"/><stop offset="0.5" stop-color="#C8C8C8"/><stop offset="1" stop-color="#C0C0C0"/></linearGradient><linearGradient x1="714" y1="1209" x2="714" y2="1313" gradientUnits="userSpaceOnUse" spreadMethod="reflect" id="fill27"><stop offset="0" stop-color="#D2D2D2"/><stop offset="0.5" stop-color="#C8C8C8"/><stop offset="1" stop-color="#C0C0C0"/></linearGradient><linearGradient x1="65" y1="0" x2="65" y2="45" gradientUnits="userSpaceOnUse" spreadMethod="reflect" id="fill28"><stop offset="0" stop-color="#D2D2D2"/><stop offset="0.5" stop-color="#C8C8C8"/><stop offset="1" stop-color="#C0C0C0"/></linearGradient><linearGradient x1="714" y1="1232" x2="714" y2="1282" gradientUnits="userSpaceOnUse" spreadMethod="reflect" id="fill29"><stop offset="0" stop-color="#D2D2D2"/><stop offset="0.5" stop-color="#C8C8C8"/><stop offset="1" stop-color="#C0C0C0"/></linearGradient></defs><g clip-path="url(#clip0)" transform="translate(-150 -1095)"><rect x="150.5" y="1095.5" width="3466" height="833" stroke="#2F528F" stroke-width="1.14583" stroke-miterlimit="8" fill="none"/><g clip-path="url(#clip1)"><g clip-path="url(#clip2)"><g clip-path="url(#clip3)"><path d="M128.456 45.7855C130.696 45.7855 132.511 47.6007 132.511 49.8399L132.511 128.259C132.511 130.498 130.696 132.313 128.456 132.313L50.0377 132.313C47.7985 132.313 45.9833 130.498 45.9833 128.259L45.9833 49.8399C45.9833 47.6007 47.7985 45.7855 50.0377 45.7855Z" fill="url(#fill4)" transform="matrix(1 0 0 1 1768 1368)"/><path d="M116.491 120.446 159.804 90.0876C160.405 89.7092 160.585 88.9155 160.207 88.3147 160.104 88.1521 159.967 88.0145 159.804 87.9121L116.491 57.6521C115.932 57.214 115.124 57.3116 114.686 57.8703 114.492 58.1173 114.396 58.4266 114.414 58.7399L114.414 76.1443 45.9833 76.1443 45.9833 101.855 114.414 101.855 114.414 119.359C114.474 120.121 115.141 120.69 115.903 120.63 116.11 120.614 116.311 120.551 116.491 120.446Z" fill="#C3F1FF" transform="matrix(1 0 0 1 1768 1368)"/><path d="M168.111 174.044 9.88887 174.044C7.04891 174.044 4.74666 171.742 4.74666 168.902L4.74666 9.09776C4.74666 6.2578 7.04891 3.95555 9.88887 3.95555L168.111 3.95555C170.951 3.95555 173.253 6.2578 173.253 9.09776L173.253 59.3332C173.295 60.7526 172.179 61.9374 170.759 61.9795 170.202 61.996 169.654 61.8308 169.199 61.5088L159.31 54.5866C158.619 54.0783 158.214 53.2688 158.222 52.411L158.222 19.7777 20.3711 19.7777 20.3711 158.222 157.629 158.222 157.629 126.578C157.636 125.751 158.041 124.978 158.716 124.501L168.605 117.282C169.765 116.462 171.369 116.737 172.189 117.897 172.511 118.352 172.676 118.9 172.66 119.458L172.66 168.902C172.677 171.525 170.717 173.741 168.111 174.044Z" fill="#949494" transform="matrix(1 0 0 1 1768 1368)"/><path d="M157.629 19.7777 157.629 51.9166C157.621 52.7744 158.025 53.5838 158.716 54.0921L168.605 61.0143C169.574 62.0526 171.201 62.109 172.239 61.1403 172.742 60.6713 173.036 60.0205 173.055 59.3332L173.055 19.7777Z" fill="#767676" transform="matrix(1 0 0 1 1768 1368)"/><path d="M157.629 158.222 157.629 126.083C157.619 125.252 158.028 124.472 158.716 124.006L168.605 116.985C169.865 116.22 171.508 116.62 172.274 117.881 172.509 118.268 172.642 118.708 172.66 119.161L172.66 158.716Z" fill="#767676" transform="matrix(1 0 0 1 1768 1368)"/></g></g></g><g clip-path="url(#clip5)"><g clip-path="url(#clip6)"><g clip-path="url(#clip7)"><path d="M4.02477 65.4742C17.0014 18.552 65.559-8.96639 112.481 4.01024 142.349 12.2703 165.685 35.6068 173.945 65.4742L157.134 65.4742C144.148 27.8201 103.096 7.82266 65.442 20.8087 44.4785 28.0386 28.0064 44.5106 20.7765 65.4742ZM156.818 113.564C143.25 151.024 101.884 170.393 64.4242 156.826 44.2997 149.537 28.4509 133.688 21.1622 113.564L4.32144 113.564C17.8766 160.322 66.7704 187.239 113.529 173.684 142.548 165.271 165.236 142.583 173.649 113.564Z" fill="url(#fill8)" transform="matrix(1.00562 0 0 1 2275 1368)"/><path d="M95.3287 129.95 74.1665 82.3743 65.2666 97.7515 10.8085 97.7515C6.37928 97.7515 2.78866 94.1609 2.78866 89.7316 2.78866 85.3024 6.37928 81.7118 10.8085 81.7118L56.0303 81.7117 76.0553 47.1007 99.1162 98.9777 112.733 81.5436 167.221 81.6623C171.65 81.6623 175.241 85.2529 175.241 89.6822 175.241 94.1114 171.65 97.7021 167.221 97.7021L167.221 97.7021 120.585 97.5933Z" fill="#50E6FF" transform="matrix(1.00562 0 0 1 2275 1368)"/></g></g></g><g clip-path="url(#clip9)"><g clip-path="url(#clip10)"><g clip-path="url(#clip11)"><path d="M2026.94 1721.26 2195.06 1721.26 2195.06 1721.26 2195.06 1815C2195.06 1818.12 2192.53 1820.64 2189.42 1820.64L2032.58 1820.64C2029.47 1820.64 2026.94 1818.12 2026.94 1815L2026.94 1721.26 2026.94 1721.26Z" fill="url(#fill12)"/><path d="M2032.58 1685.46 2189.42 1685.46C2192.53 1685.46 2195.06 1687.98 2195.06 1691.1L2195.06 1721.26 2195.06 1721.26 2026.94 1721.26 2026.94 1721.26 2026.94 1691C2027 1687.92 2029.51 1685.46 2032.58 1685.46Z" fill="#37C2B1"/><path d="M2049.79 1732.13 2172.11 1732.13C2173.55 1732.19 2174.69 1733.37 2174.68 1734.8L2174.68 1748.65C2174.69 1750.09 2173.55 1751.27 2172.11 1751.32L2049.79 1751.32C2048.35 1751.27 2047.22 1750.09 2047.22 1748.65L2047.22 1734.8C2047.22 1733.37 2048.35 1732.19 2049.79 1732.13Z" fill="#FFFFFF"/><path d="M2049.89 1759.72 2172.21 1759.72C2173.65 1759.78 2174.78 1760.96 2174.78 1762.39L2174.78 1776.34C2174.78 1777.77 2173.65 1778.95 2172.21 1779.01L2049.89 1779.01C2048.45 1778.95 2047.31 1777.77 2047.32 1776.34L2047.32 1762.89C2047.04 1761.44 2048 1760.04 2049.44 1759.77 2049.59 1759.74 2049.74 1759.73 2049.89 1759.72Z" fill="#37C2B1"/><path d="M2049.89 1787.61 2172.21 1787.61C2173.65 1787.66 2174.78 1788.84 2174.78 1790.28L2174.78 1804.22C2174.78 1805.66 2173.65 1806.84 2172.21 1806.89L2049.89 1806.89C2048.45 1806.84 2047.31 1805.66 2047.32 1804.22L2047.32 1790.28C2047.31 1788.84 2048.45 1787.66 2049.89 1787.61Z" fill="#258277"/></g></g></g><path d="M1514.54 1451.21 1763.59 1455.1 1763.52 1459.68 1514.46 1455.79ZM1737.49 1438.96 1768.1 1457.46 1736.93 1475C1735.83 1475.62 1734.43 1475.23 1733.81 1474.12 1733.19 1473.02 1733.58 1471.62 1734.68 1471L1762.43 1455.39 1762.37 1459.35 1735.12 1442.88C1734.04 1442.23 1733.69 1440.82 1734.35 1439.74 1735 1438.65 1736.41 1438.31 1737.49 1438.96Z" fill="#4472C4"/><path d="M1859.29 1545.07 2021.06 1748.6 2017.47 1751.46 1855.71 1547.93ZM2016.98 1718.19 2022.1 1753.59 1988.77 1740.62C1987.59 1740.16 1987.01 1738.83 1987.46 1737.65 1987.92 1736.47 1989.25 1735.89 1990.43 1736.35L2020.1 1747.9 2017 1750.36 2012.45 1718.85C2012.27 1717.6 2013.14 1716.43 2014.39 1716.25 2015.64 1716.07 2016.8 1716.94 2016.98 1718.19Z" fill="#4472C4"/><path d="M2.31834e-06-2.29167 333.823-2.29133 333.823 2.292-2.31834e-06 2.29167ZM329.24-13.7497 356.74 0.000360892 329.24 13.7503Z" fill="#4472C4" transform="matrix(-1 0 0 1 2811.24 1457.5)"/><path d="M1.79402-1.42592 152.128 187.717 148.54 190.569-1.79402 1.42592ZM158.246 177 164.593 207.083 136.718 194.111Z" fill="#4472C4" transform="matrix(-1 0 0 1 2365.09 1546.5)"/><path d="M7.60674e-06-2.29167 85.8087-2.29138 85.8087 2.29195-7.60674e-06 2.29167ZM81.2254-13.7497 108.725 0.000360892 81.2253 13.7503Z" fill="#4472C4" transform="matrix(1 0 0 -1 2590.5 1412.5)"/><g clip-path="url(#clip13)"><g clip-path="url(#clip14)"><g clip-path="url(#clip15)"><path d="M140.521 155.453C103.82 183.907 51.0009 177.222 22.5466 140.521-5.90765 103.82 0.777725 51.0009 37.4788 22.5466L38.3688 21.9533C75.5702-5.81555 128.239 1.83101 156.008 39.0324 183.309 75.6079 176.435 127.287 140.521 155.453" fill="url(#fill16)" transform="matrix(1 0 0 1 2811 1368)"/><path d="M66.1566 71.4965C89.9323 48.8839 121.455 36.2183 154.266 36.0944 149.956 30.7626 145.008 25.9801 139.532 21.8544 123.57 22.8391 107.889 26.5169 93.1532 32.7322 77.9819 39.2489 64.2647 48.7298 52.8066 60.6188 58.3138 62.7091 62.997 66.525 66.1566 71.4965Z" fill="#FFFFFF" fill-opacity="0.6" transform="matrix(1 0 0 1 2811 1368)"/><path d="M24.5244 105.316C21.1271 113.729 18.383 122.391 16.3166 131.225 18.1424 134.399 20.1912 137.439 22.4477 140.323 24.2277 142.598 25.9088 144.674 27.8866 146.751 30.2759 134.981 33.8543 123.484 38.5666 112.436 33.2881 111.494 28.4041 109.018 24.5244 105.316Z" fill="#FFFFFF" fill-opacity="0.6" transform="matrix(1 0 0 1 2811 1368)"/><path d="M34.2155 60.421C30.7259 51.0559 28.4333 41.2875 27.3922 31.3477 23.2423 35.7062 19.5936 40.5158 16.5144 45.6866 17.6307 53.695 19.5183 61.5769 22.1511 69.2221 25.2497 65.1966 29.4362 62.1426 34.2155 60.421Z" fill="#F2F2F2" fill-opacity="0.55" transform="matrix(1 0 0 1 2811 1368)"/><path d="M70.3099 85.8354C70.3099 100.745 58.2231 112.832 43.3133 112.832 28.4034 112.832 16.3166 100.745 16.3166 85.8354 16.3166 70.9256 28.4034 58.8388 43.3133 58.8388 58.2231 58.8388 70.3099 70.9256 70.3099 85.8354Z" fill="url(#fill17)" transform="matrix(1 0 0 1 2811 1368)"/><path d="M82.671 135.181C82.6784 130.445 84.6051 125.913 88.011 122.622 78.8942 117.625 70.4811 111.44 62.9921 104.229 59.0789 108.463 53.9173 111.338 48.2577 112.436 52.7189 117.003 57.5116 121.234 62.5966 125.094 68.9282 129.875 75.7189 134.016 82.8687 137.455 82.7539 136.702 82.6879 135.942 82.671 135.181Z" fill="#F2F2F2" fill-opacity="0.55" transform="matrix(1 0 0 1 2811 1368)"/><path d="M144.971 137.258C135.781 137.263 126.622 136.201 117.678 134.093 117.726 134.454 117.726 134.82 117.678 135.181 117.691 139.776 115.877 144.187 112.634 147.443 123.764 149.648 135.126 150.446 146.454 149.816 150.849 145.842 154.795 141.399 158.222 136.565 153.822 137.054 149.398 137.285 144.971 137.258Z" fill="#F2F2F2" fill-opacity="0.55" transform="matrix(1 0 0 1 2811 1368)"/><path d="M117.776 135.181C117.776 144.902 109.896 152.783 100.174 152.783 90.4529 152.783 82.5721 144.902 82.5721 135.181 82.5721 125.459 90.4529 117.579 100.174 117.579 109.896 117.579 117.776 125.459 117.776 135.181Z" fill="url(#fill18)" transform="matrix(1 0 0 1 2811 1368)"/><path d="M121.831 88.3076C122.704 84.4395 124.823 80.9651 127.863 78.4188 111.58 66.5815 96.7733 52.837 83.7587 37.4788 76.1743 28.572 69.5454 18.8938 63.981 8.60332 60.2873 9.71066 56.6838 11.0992 53.2021 12.7566 59.157 23.9613 66.2839 34.5025 74.4632 44.2033 88.3649 60.8097 104.276 75.6247 121.831 88.3076Z" fill="#F2F2F2" fill-opacity="0.7" transform="matrix(1 0 0 1 2811 1368)"/><path d="M158.914 91.6698C158.914 101.992 150.546 110.36 140.224 110.36 129.902 110.36 121.534 101.992 121.534 91.6698 121.534 81.3477 129.902 72.9799 140.224 72.9799 150.546 72.9799 158.914 81.3477 158.914 91.6698Z" fill="url(#fill19)" transform="matrix(1 0 0 1 2811 1368)"/><path d="M171.572 104.229 168.111 102.548 168.111 102.548 165.144 100.965 164.551 100.965 161.98 98.8887 161.288 98.8887 158.222 96.9109C157.16 100.552 154.938 103.747 151.893 106.009 153.08 106.8 154.365 107.492 155.651 108.184L156.442 108.679 159.903 110.558 159.903 110.558 168.408 115.008 168.408 115.008C169.606 111.416 170.564 107.749 171.275 104.031Z" fill="#F2F2F2" fill-opacity="0.55" transform="matrix(1 0 0 1 2811 1368)"/><path d="M70.3099 85.8354C70.3099 100.745 58.2231 112.832 43.3133 112.832 28.4034 112.832 16.3166 100.745 16.3166 85.8354 16.3166 70.9256 28.4034 58.8388 43.3133 58.8388 58.2231 58.8388 70.3099 70.9256 70.3099 85.8354Z" fill="url(#fill20)" transform="matrix(1 0 0 1 2811 1368)"/><path d="M117.776 135.181C117.776 144.902 109.896 152.783 100.174 152.783 90.4529 152.783 82.5721 144.902 82.5721 135.181 82.5721 125.459 90.4529 117.579 100.174 117.579 109.896 117.579 117.776 125.459 117.776 135.181Z" fill="url(#fill21)" transform="matrix(1 0 0 1 2811 1368)"/></g></g></g><text font-family="Yu Gothic,Yu Gothic_MSFontService,sans-serif" font-weight="400" font-size="55" transform="matrix(1 0 0 1 2760.28 1268)">TSI<tspan font-size="55" x="84.7915" y="0">の</tspan><tspan font-size="55" x="139.792" y="0">API</tspan><tspan font-size="55" x="227.448" y="0">にアクセスして、</tspan><tspan font-size="55" x="0" y="66">データをオンデマンドで取得</tspan><tspan font-size="55" x="-847.135" y="332">階層モデルに従い</tspan><tspan font-size="55" x="-847.135" y="398">データ保存・取出し</tspan><tspan font-size="37" x="-742.416" y="599">Blob Storage</tspan><tspan font-size="37" x="-528.194" y="84">TSI Environment</tspan><tspan font-size="37" x="-1057.05" y="73">TSI Event Source</tspan><tspan font-size="55" x="0" y="351">データ取得時に、統計計算適用</tspan></text><g clip-path="url(#clip22)"><g clip-path="url(#clip23)"><g clip-path="url(#clip24)"><path d="M132.214 83.4621C132.214 94.2212 123.492 102.943 112.733 102.943 101.974 102.943 93.2521 94.2212 93.2521 83.4621 93.2521 72.703 101.974 63.981 112.733 63.981 123.492 63.981 132.214 72.703 132.214 83.4621Z" fill="#FFFFFF" transform="matrix(1 0 0 1 1336 1364)"/><path d="M160.694 141.411C160.694 149.876 153.832 156.739 145.366 156.739 136.901 156.739 130.039 149.876 130.039 141.411 130.039 132.946 136.901 126.083 145.366 126.083 153.832 126.083 160.694 132.946 160.694 141.411Z" fill="#FFFFFF" transform="matrix(1 0 0 1 1336 1364)"/><path d="M97.8998 130.929C97.8998 138.192 92.0114 144.081 84.7476 144.081 77.4839 144.081 71.5954 138.192 71.5954 130.929 71.5954 123.665 77.4839 117.776 84.7476 117.776 92.0114 117.776 97.8998 123.665 97.8998 130.929Z" fill="#FFFFFF" transform="matrix(1 0 0 1 1336 1364)"/><path d="M91.571 30.7544C91.571 39.7658 84.2657 47.071 75.2543 47.071 66.2429 47.071 58.9377 39.7658 58.9377 30.7544 58.9377 21.743 66.2429 14.4377 75.2543 14.4377 84.2657 14.4377 91.571 21.743 91.571 30.7544Z" fill="#FFFFFF" transform="matrix(1 0 0 1 1336 1364)"/><path d="M44.6977 90.8787C44.6977 98.1425 38.8093 104.031 31.5455 104.031 24.2817 104.031 18.3933 98.1425 18.3933 90.8787 18.3933 83.615 24.2817 77.7265 31.5455 77.7265 38.8093 77.7265 44.6977 83.615 44.6977 90.8787Z" fill="#FFFFFF" transform="matrix(1 0 0 1 1336 1364)"/><path d="M148.926 138.345 115.996 80.6932 112.733 82.5721 115.403 80.5943 78.1221 27.59 71.2988 32.5344 104.328 79.5065 31.1499 85.5387 31.8422 94.0432 104.328 88.011 80.2976 127.962 87.5165 132.313 112.239 91.1754 141.609 142.499 148.926 138.345Z" fill="#949494" transform="matrix(1 0 0 1 1336 1364)"/><path d="M173.352 12.1633 173.352 12.1633C173.352 8.17644 170.12 4.94444 166.133 4.94444L128.555 4.94444C126.589 4.94444 124.995 6.5383 124.995 8.50443L124.995 22.4477C124.995 24.4139 126.589 26.0077 128.555 26.0077L151.794 26.0077 151.794 48.7521C151.846 50.751 153.454 52.3591 155.453 52.411L169.298 52.411C171.296 52.3591 172.904 50.751 172.956 48.7521L172.956 12.1633Z" fill="#949494" transform="matrix(1 0 0 1 1336 1364)"/><path d="M49.4444 151.992 25.81 151.992 25.81 129.248C25.758 127.249 24.1499 125.641 22.1511 125.589L8.30665 125.589C6.30782 125.641 4.69971 127.249 4.64777 129.248L4.64777 165.836 4.64777 165.836C4.70186 169.785 7.91807 172.957 11.8666 172.956L49.4444 172.956C51.4105 172.956 53.0044 171.363 53.0044 169.396L53.0044 155.552C53.0044 153.586 51.4105 151.992 49.4444 151.992Z" fill="#949494" transform="matrix(1 0 0 1 1336 1364)"/><path d="M112.733 64.1788C123.656 64.1822 132.508 73.0398 132.505 83.9627 132.501 94.8856 123.644 103.738 112.721 103.734 101.798 103.731 92.9458 94.8733 92.9492 83.9503 92.9493 83.7876 92.9513 83.6248 92.9554 83.4621 93.2237 72.7327 102 64.1754 112.733 64.1788ZM59.3332 30.7544C59.2812 39.8203 66.5885 47.2118 75.6544 47.2638 84.7203 47.3158 92.1118 40.0085 92.1637 30.9426 92.2157 21.8768 84.9085 14.4852 75.8426 14.4333 75.6795 14.4323 75.5163 14.4338 75.3532 14.4378 66.4578 14.5995 59.3318 21.8576 59.3332 30.7544ZM18.3933 90.7798C18.3933 98.0436 24.2817 103.932 31.5455 103.932 38.8093 103.932 44.6977 98.0436 44.6977 90.7798 44.6977 83.5161 38.8093 77.6276 31.5455 77.6276 24.2817 77.6276 18.3933 83.5161 18.3933 90.7798ZM71.5954 130.83C71.5408 138.148 77.4291 144.125 84.7473 144.179 92.0654 144.234 98.0423 138.346 98.0969 131.028 98.1515 123.709 92.2632 117.733 84.945 117.678 84.9122 117.678 84.8794 117.678 84.8465 117.678 77.583 117.623 71.6504 123.467 71.5958 130.731 71.5955 130.764 71.5954 130.797 71.5954 130.83ZM130.138 141.411C130.083 149.876 136.901 156.783 145.366 156.837 153.831 156.892 160.738 150.074 160.792 141.609 160.847 133.144 154.029 126.237 145.564 126.182 145.531 126.182 145.498 126.182 145.465 126.182 137.11 126.073 130.248 132.757 130.139 141.113 130.137 141.212 130.137 141.311 130.138 141.411Z" fill="url(#fill25)" transform="matrix(1 0 0 1 1336 1364)"/></g></g></g><rect x="230.5" y="1294.5" width="500" height="318" stroke="#4472C4" stroke-width="4.58333" stroke-miterlimit="8" fill="#FFFFFF"/><text font-family="Yu Gothic,Yu Gothic_MSFontService,sans-serif" font-weight="400" font-size="46" transform="matrix(1 0 0 1 360.199 1412)">Device<tspan font-size="46" x="156.979" y="0">App</tspan><tspan font-size="46" x="-37.2396" y="55">（</tspan><tspan font-size="46" x="8.59375" y="55">Simulator on </tspan><tspan font-size="46" x="0.847931" y="110">Windows</tspan>）</text><path d="M730.5 1451.21 1332.17 1451.21 1332.17 1455.79 730.5 1455.79ZM1305.82 1435.48 1336.72 1453.5 1305.82 1471.52C1304.73 1472.16 1303.33 1471.79 1302.69 1470.7 1302.05 1469.6 1302.42 1468.2 1303.52 1467.56L1331.02 1451.52 1331.02 1455.48 1303.52 1439.44C1302.42 1438.8 1302.05 1437.4 1302.69 1436.3 1303.33 1435.21 1304.73 1434.84 1305.82 1435.48Z" fill="#4472C4"/><text font-family="Yu Gothic,Yu Gothic_MSFontService,sans-serif" font-weight="400" font-size="37" transform="matrix(1 0 0 1 1338.92 1601)">IoT Hub</text><path d="M649 1209 660.25 1164 767.75 1164 779 1209Z" stroke="#FFFFFF" stroke-width="2.29167" stroke-miterlimit="8" fill="url(#fill26)" fill-rule="evenodd"/><rect x="649" y="1209" width="130" height="104" stroke="#FFFFFF" stroke-width="2.29167" stroke-miterlimit="8" fill="url(#fill27)"/><path d="M0 45 11.25 0 118.75 0 130 45Z" stroke="#FFFFFF" stroke-width="2.29167" stroke-miterlimit="8" fill="url(#fill28)" fill-rule="evenodd" transform="matrix(1 0 0 -1 649 1355)"/><path d="M689 1257C689 1243.19 700.193 1232 714 1232 727.807 1232 739 1243.19 739 1257 739 1270.81 727.807 1282 714 1282 700.193 1282 689 1270.81 689 1257Z" fill="url(#fill29)" fill-rule="evenodd"/><path d="M675.182 1256.99 675.962 1249.19 678.3 1241.88 681.877 1235.31 686.611 1229.61 692.311 1224.88 698.883 1221.3 706.19 1218.96 713.991 1218.18 721.865 1218.96 729.179 1221.3 735.751 1224.88 741.452 1229.61 746.186 1235.31 749.802 1241.96 752.046 1249.27 752.818 1256.99 752.048 1264.78 749.802 1272.11 746.186 1278.75 741.452 1284.45 735.751 1289.19 729.105 1292.8 721.781 1295.05 713.991 1295.82 706.273 1295.05 698.957 1292.8 692.311 1289.19 686.611 1284.45 681.877 1278.75 678.3 1272.18 675.96 1264.86ZM692.208 1261.5 693.54 1265.66 695.6 1269.45 698.328 1272.73 701.613 1275.46 705.383 1277.51 709.545 1278.79 714.002 1279.24 718.519 1278.79 722.679 1277.51 726.45 1275.46 729.734 1272.73 732.463 1269.45 734.514 1265.68 735.79 1261.52 736.236 1257 735.791 1252.55 734.514 1248.38 732.463 1244.61 729.734 1241.33 726.45 1238.6 722.664 1236.54 718.502 1235.21 714.002 1234.76 709.562 1235.21 705.398 1236.54 701.613 1238.6 698.328 1241.33 695.6 1244.61 693.54 1248.4 692.207 1252.56 691.763 1257ZM697.291 1257.01 697.622 1253.69 698.62 1250.57 700.174 1247.71 702.233 1245.23 704.713 1243.17 707.57 1241.62 710.686 1240.62 714.005 1240.29 717.381 1240.62 720.492 1241.62 723.349 1243.17 725.829 1245.23 727.888 1247.71 729.419 1250.53 730.372 1253.64 730.709 1257.01 730.371 1260.43 729.419 1263.54 727.888 1266.35 725.829 1268.83 723.349 1270.89 720.537 1272.42 717.431 1273.37 714.005 1273.71 710.636 1273.37 707.526 1272.42 704.713 1270.89 702.233 1268.83 700.174 1266.35 698.62 1263.49 697.624 1260.38ZM703.04 1259.26 703.699 1261.32 704.748 1263.25 706.139 1264.92 707.814 1266.31 709.668 1267.32 711.726 1267.95 714.008 1268.18 716.344 1267.95 718.395 1267.32 720.248 1266.31 721.923 1264.92 723.314 1263.25 724.323 1261.39 724.951 1259.34 725.182 1257.01 724.954 1254.73 724.323 1252.67 723.314 1250.81 721.923 1249.14 720.248 1247.75 718.32 1246.7 716.26 1246.04 714.008 1245.82 711.81 1246.04 709.742 1246.7 707.814 1247.75 706.139 1249.14 704.748 1250.81 703.699 1252.74 703.037 1254.81 702.818 1257.01Z" fill="#FF0000"/><path d="M2.1975-0.650171 8.43168 20.4206 4.03668 21.721-2.1975 0.650171ZM18.1188 12.7748 12.7359 43.0458-8.25117 20.5768Z" fill="#FF0000" transform="matrix(1 0 0 -1 707.5 1276.55)"/><rect x="871" y="1104" width="983" height="200" fill="#FFFFFF"/><text fill="#161616" font-family="Arial,Arial_MSFontService,sans-serif" font-weight="400" font-size="46" transform="matrix(1 0 0 1 903.716 1167)">{ "deviceid": "thermostatic-chamber<tspan font-size="46" x="710.417" y="0">-</tspan>1", <tspan font-size="46" x="0" y="55">"temperature": 30.009999991281315, </tspan><tspan font-size="46" x="0" y="110">"timestamp": "2021/09/28T10:21:02.895Z" }</tspan></text></g></svg>