<svg width="3971" height="930" xmlns="http://www.w3.org/2000/svg" xmlns:xlink="http://www.w3.org/1999/xlink" overflow="hidden"><defs><clipPath id="clip0"><rect x="203" y="384" width="3971" height="930"/></clipPath><linearGradient x1="782" y1="541" x2="782" y2="586" gradientUnits="userSpaceOnUse" spreadMethod="reflect" id="fill1"><stop offset="0" stop-color="#D2D2D2"/><stop offset="0.5" stop-color="#C8C8C8"/><stop offset="1" stop-color="#C0C0C0"/></linearGradient><linearGradient x1="782" y1="586" x2="782" y2="689" gradientUnits="userSpaceOnUse" spreadMethod="reflect" id="fill2"><stop offset="0" stop-color="#D2D2D2"/><stop offset="0.5" stop-color="#C8C8C8"/><stop offset="1" stop-color="#C0C0C0"/></linearGradient><linearGradient x1="65" y1="0" x2="65" y2="45" gradientUnits="userSpaceOnUse" spreadMethod="reflect" id="fill3"><stop offset="0" stop-color="#D2D2D2"/><stop offset="0.5" stop-color="#C8C8C8"/><stop offset="1" stop-color="#C0C0C0"/></linearGradient><linearGradient x1="782" y1="608" x2="782" y2="658" gradientUnits="userSpaceOnUse" spreadMethod="reflect" id="fill4"><stop offset="0" stop-color="#D2D2D2"/><stop offset="0.5" stop-color="#C8C8C8"/><stop offset="1" stop-color="#C0C0C0"/></linearGradient><linearGradient x1="979" y1="546" x2="979" y2="591" gradientUnits="userSpaceOnUse" spreadMethod="reflect" id="fill5"><stop offset="0" stop-color="#D2D2D2"/><stop offset="0.5" stop-color="#C8C8C8"/><stop offset="1" stop-color="#C0C0C0"/></linearGradient><linearGradient x1="979" y1="591" x2="979" y2="694" gradientUnits="userSpaceOnUse" spreadMethod="reflect" id="fill6"><stop offset="0" stop-color="#D2D2D2"/><stop offset="0.5" stop-color="#C8C8C8"/><stop offset="1" stop-color="#C0C0C0"/></linearGradient><linearGradient x1="65" y1="0" x2="65" y2="45" gradientUnits="userSpaceOnUse" spreadMethod="reflect" id="fill7"><stop offset="0" stop-color="#D2D2D2"/><stop offset="0.5" stop-color="#C8C8C8"/><stop offset="1" stop-color="#C0C0C0"/></linearGradient><linearGradient x1="979" y1="613" x2="979" y2="663" gradientUnits="userSpaceOnUse" spreadMethod="reflect" id="fill8"><stop offset="0" stop-color="#D2D2D2"/><stop offset="0.5" stop-color="#C8C8C8"/><stop offset="1" stop-color="#C0C0C0"/></linearGradient><linearGradient x1="1176.5" y1="551" x2="1176.5" y2="596" gradientUnits="userSpaceOnUse" spreadMethod="reflect" id="fill9"><stop offset="0" stop-color="#D2D2D2"/><stop offset="0.5" stop-color="#C8C8C8"/><stop offset="1" stop-color="#C0C0C0"/></linearGradient><linearGradient x1="1176.5" y1="596" x2="1176.5" y2="700" gradientUnits="userSpaceOnUse" spreadMethod="reflect" id="fill10"><stop offset="0" stop-color="#D2D2D2"/><stop offset="0.5" stop-color="#C8C8C8"/><stop offset="1" stop-color="#C0C0C0"/></linearGradient><linearGradient x1="64.5" y1="0" x2="64.5" y2="45" gradientUnits="userSpaceOnUse" spreadMethod="reflect" id="fill11"><stop offset="0" stop-color="#D2D2D2"/><stop offset="0.5" stop-color="#C8C8C8"/><stop offset="1" stop-color="#C0C0C0"/></linearGradient><linearGradient x1="1176.5" y1="619" x2="1176.5" y2="669" gradientUnits="userSpaceOnUse" spreadMethod="reflect" id="fill12"><stop offset="0" stop-color="#D2D2D2"/><stop offset="0.5" stop-color="#C8C8C8"/><stop offset="1" stop-color="#C0C0C0"/></linearGradient><linearGradient x1="785" y1="933" x2="785" y2="978" gradientUnits="userSpaceOnUse" spreadMethod="reflect" id="fill13"><stop offset="0" stop-color="#D2D2D2"/><stop offset="0.5" stop-color="#C8C8C8"/><stop offset="1" stop-color="#C0C0C0"/></linearGradient><linearGradient x1="785" y1="978" x2="785" y2="1081" gradientUnits="userSpaceOnUse" spreadMethod="reflect" id="fill14"><stop offset="0" stop-color="#D2D2D2"/><stop offset="0.5" stop-color="#C8C8C8"/><stop offset="1" stop-color="#C0C0C0"/></linearGradient><linearGradient x1="65" y1="0" x2="65" y2="45" gradientUnits="userSpaceOnUse" spreadMethod="reflect" id="fill15"><stop offset="0" stop-color="#D2D2D2"/><stop offset="0.5" stop-color="#C8C8C8"/><stop offset="1" stop-color="#C0C0C0"/></linearGradient><linearGradient x1="785" y1="1000" x2="785" y2="1050" gradientUnits="userSpaceOnUse" spreadMethod="reflect" id="fill16"><stop offset="0" stop-color="#D2D2D2"/><stop offset="0.5" stop-color="#C8C8C8"/><stop offset="1" stop-color="#C0C0C0"/></linearGradient><linearGradient x1="983" y1="938" x2="983" y2="983" gradientUnits="userSpaceOnUse" spreadMethod="reflect" id="fill17"><stop offset="0" stop-color="#D2D2D2"/><stop offset="0.5" stop-color="#C8C8C8"/><stop offset="1" stop-color="#C0C0C0"/></linearGradient><linearGradient x1="983" y1="983" x2="983" y2="1087" gradientUnits="userSpaceOnUse" spreadMethod="reflect" id="fill18"><stop offset="0" stop-color="#D2D2D2"/><stop offset="0.5" stop-color="#C8C8C8"/><stop offset="1" stop-color="#C0C0C0"/></linearGradient><linearGradient x1="65" y1="0" x2="65" y2="45" gradientUnits="userSpaceOnUse" spreadMethod="reflect" id="fill19"><stop offset="0" stop-color="#D2D2D2"/><stop offset="0.5" stop-color="#C8C8C8"/><stop offset="1" stop-color="#C0C0C0"/></linearGradient><linearGradient x1="983" y1="1006" x2="983" y2="1056" gradientUnits="userSpaceOnUse" spreadMethod="reflect" id="fill20"><stop offset="0" stop-color="#D2D2D2"/><stop offset="0.5" stop-color="#C8C8C8"/><stop offset="1" stop-color="#C0C0C0"/></linearGradient><linearGradient x1="875.5" y1="602" x2="875.5" y2="690" gradientUnits="userSpaceOnUse" spreadMethod="reflect" id="fill21"><stop offset="0" stop-color="#A8B7DF"/><stop offset="0.5" stop-color="#9AABD9"/><stop offset="1" stop-color="#879ED7"/></linearGradient><linearGradient x1="1080" y1="602" x2="1080" y2="691" gradientUnits="userSpaceOnUse" spreadMethod="reflect" id="fill22"><stop offset="0" stop-color="#A8B7DF"/><stop offset="0.5" stop-color="#9AABD9"/><stop offset="1" stop-color="#879ED7"/></linearGradient><linearGradient x1="875.5" y1="993" x2="875.5" y2="1081" gradientUnits="userSpaceOnUse" spreadMethod="reflect" id="fill23"><stop offset="0" stop-color="#A8B7DF"/><stop offset="0.5" stop-color="#9AABD9"/><stop offset="1" stop-color="#879ED7"/></linearGradient><linearGradient x1="1185" y1="905" x2="1185" y2="935" gradientUnits="userSpaceOnUse" spreadMethod="reflect" id="fill24"><stop offset="0" stop-color="#D2D2D2"/><stop offset="0.5" stop-color="#C8C8C8"/><stop offset="1" stop-color="#C0C0C0"/></linearGradient><linearGradient x1="1185" y1="935" x2="1185" y2="1003" gradientUnits="userSpaceOnUse" spreadMethod="reflect" id="fill25"><stop offset="0" stop-color="#D2D2D2"/><stop offset="0.5" stop-color="#C8C8C8"/><stop offset="1" stop-color="#C0C0C0"/></linearGradient><linearGradient x1="43" y1="0" x2="43" y2="30.0001" gradientUnits="userSpaceOnUse" spreadMethod="reflect" id="fill26"><stop offset="0" stop-color="#D2D2D2"/><stop offset="0.5" stop-color="#C8C8C8"/><stop offset="1" stop-color="#C0C0C0"/></linearGradient><linearGradient x1="1184.5" y1="949" x2="1184.5" y2="982" gradientUnits="userSpaceOnUse" spreadMethod="reflect" id="fill27"><stop offset="0" stop-color="#D2D2D2"/><stop offset="0.5" stop-color="#C8C8C8"/><stop offset="1" stop-color="#C0C0C0"/></linearGradient><linearGradient x1="1182" y1="1061" x2="1182" y2="1090" gradientUnits="userSpaceOnUse" spreadMethod="reflect" id="fill28"><stop offset="0" stop-color="#D2D2D2"/><stop offset="0.5" stop-color="#C8C8C8"/><stop offset="1" stop-color="#C0C0C0"/></linearGradient><linearGradient x1="1182" y1="1090" x2="1182" y2="1158" gradientUnits="userSpaceOnUse" spreadMethod="reflect" id="fill29"><stop offset="0" stop-color="#D2D2D2"/><stop offset="0.5" stop-color="#C8C8C8"/><stop offset="1" stop-color="#C0C0C0"/></linearGradient><linearGradient x1="43.0001" y1="0" x2="43.0001" y2="28.9999" gradientUnits="userSpaceOnUse" spreadMethod="reflect" id="fill30"><stop offset="0" stop-color="#D2D2D2"/><stop offset="0.5" stop-color="#C8C8C8"/><stop offset="1" stop-color="#C0C0C0"/></linearGradient><linearGradient x1="1182.5" y1="1105" x2="1182.5" y2="1138" gradientUnits="userSpaceOnUse" spreadMethod="reflect" id="fill31"><stop offset="0" stop-color="#D2D2D2"/><stop offset="0.5" stop-color="#C8C8C8"/><stop offset="1" stop-color="#C0C0C0"/></linearGradient><linearGradient x1="1083.5" y1="933" x2="1083.5" y2="1021" gradientUnits="userSpaceOnUse" spreadMethod="reflect" id="fill32"><stop offset="0" stop-color="#A8B7DF"/><stop offset="0.5" stop-color="#9AABD9"/><stop offset="1" stop-color="#879ED7"/></linearGradient><linearGradient x1="1084.5" y1="1073" x2="1084.5" y2="1161" gradientUnits="userSpaceOnUse" spreadMethod="reflect" id="fill33"><stop offset="0" stop-color="#A8B7DF"/><stop offset="0.5" stop-color="#9AABD9"/><stop offset="1" stop-color="#879ED7"/></linearGradient><linearGradient x1="2497.5" y1="909" x2="2497.5" y2="954" gradientUnits="userSpaceOnUse" spreadMethod="reflect" id="fill34"><stop offset="0" stop-color="#D2D2D2"/><stop offset="0.5" stop-color="#C8C8C8"/><stop offset="1" stop-color="#C0C0C0"/></linearGradient><linearGradient x1="2497.5" y1="954" x2="2497.5" y2="1057" gradientUnits="userSpaceOnUse" spreadMethod="reflect" id="fill35"><stop offset="0" stop-color="#D2D2D2"/><stop offset="0.5" stop-color="#C8C8C8"/><stop offset="1" stop-color="#C0C0C0"/></linearGradient><linearGradient x1="64.5" y1="0" x2="64.5" y2="45" gradientUnits="userSpaceOnUse" spreadMethod="reflect" id="fill36"><stop offset="0" stop-color="#D2D2D2"/><stop offset="0.5" stop-color="#C8C8C8"/><stop offset="1" stop-color="#C0C0C0"/></linearGradient><linearGradient x1="2497.5" y1="976" x2="2497.5" y2="1026" gradientUnits="userSpaceOnUse" spreadMethod="reflect" id="fill37"><stop offset="0" stop-color="#D2D2D2"/><stop offset="0.5" stop-color="#C8C8C8"/><stop offset="1" stop-color="#C0C0C0"/></linearGradient><linearGradient x1="2696" y1="901" x2="2696" y2="946" gradientUnits="userSpaceOnUse" spreadMethod="reflect" id="fill38"><stop offset="0" stop-color="#D2D2D2"/><stop offset="0.5" stop-color="#C8C8C8"/><stop offset="1" stop-color="#C0C0C0"/></linearGradient><linearGradient x1="2696" y1="946" x2="2696" y2="1050" gradientUnits="userSpaceOnUse" spreadMethod="reflect" id="fill39"><stop offset="0" stop-color="#D2D2D2"/><stop offset="0.5" stop-color="#C8C8C8"/><stop offset="1" stop-color="#C0C0C0"/></linearGradient><linearGradient x1="65" y1="0" x2="65" y2="45" gradientUnits="userSpaceOnUse" spreadMethod="reflect" id="fill40"><stop offset="0" stop-color="#D2D2D2"/><stop offset="0.5" stop-color="#C8C8C8"/><stop offset="1" stop-color="#C0C0C0"/></linearGradient><linearGradient x1="2696" y1="968" x2="2696" y2="1019" gradientUnits="userSpaceOnUse" spreadMethod="reflect" id="fill41"><stop offset="0" stop-color="#D2D2D2"/><stop offset="0.5" stop-color="#C8C8C8"/><stop offset="1" stop-color="#C0C0C0"/></linearGradient><linearGradient x1="2892.5" y1="909" x2="2892.5" y2="954" gradientUnits="userSpaceOnUse" spreadMethod="reflect" id="fill42"><stop offset="0" stop-color="#D2D2D2"/><stop offset="0.5" stop-color="#C8C8C8"/><stop offset="1" stop-color="#C0C0C0"/></linearGradient><linearGradient x1="2892.5" y1="954" x2="2892.5" y2="1058" gradientUnits="userSpaceOnUse" spreadMethod="reflect" id="fill43"><stop offset="0" stop-color="#D2D2D2"/><stop offset="0.5" stop-color="#C8C8C8"/><stop offset="1" stop-color="#C0C0C0"/></linearGradient><linearGradient x1="64.5" y1="0" x2="64.5" y2="45" gradientUnits="userSpaceOnUse" spreadMethod="reflect" id="fill44"><stop offset="0" stop-color="#D2D2D2"/><stop offset="0.5" stop-color="#C8C8C8"/><stop offset="1" stop-color="#C0C0C0"/></linearGradient><linearGradient x1="2893" y1="977" x2="2893" y2="1027" gradientUnits="userSpaceOnUse" spreadMethod="reflect" id="fill45"><stop offset="0" stop-color="#D2D2D2"/><stop offset="0.5" stop-color="#C8C8C8"/><stop offset="1" stop-color="#C0C0C0"/></linearGradient><linearGradient x1="3278" y1="907" x2="3278" y2="952" gradientUnits="userSpaceOnUse" spreadMethod="reflect" id="fill46"><stop offset="0" stop-color="#D2D2D2"/><stop offset="0.5" stop-color="#C8C8C8"/><stop offset="1" stop-color="#C0C0C0"/></linearGradient><linearGradient x1="3278" y1="952" x2="3278" y2="1056" gradientUnits="userSpaceOnUse" spreadMethod="reflect" id="fill47"><stop offset="0" stop-color="#D2D2D2"/><stop offset="0.5" stop-color="#C8C8C8"/><stop offset="1" stop-color="#C0C0C0"/></linearGradient><linearGradient x1="65" y1="0" x2="65" y2="45" gradientUnits="userSpaceOnUse" spreadMethod="reflect" id="fill48"><stop offset="0" stop-color="#D2D2D2"/><stop offset="0.5" stop-color="#C8C8C8"/><stop offset="1" stop-color="#C0C0C0"/></linearGradient><linearGradient x1="3278" y1="974" x2="3278" y2="1025" gradientUnits="userSpaceOnUse" spreadMethod="reflect" id="fill49"><stop offset="0" stop-color="#D2D2D2"/><stop offset="0.5" stop-color="#C8C8C8"/><stop offset="1" stop-color="#C0C0C0"/></linearGradient><linearGradient x1="3475" y1="909" x2="3475" y2="954" gradientUnits="userSpaceOnUse" spreadMethod="reflect" id="fill50"><stop offset="0" stop-color="#D2D2D2"/><stop offset="0.5" stop-color="#C8C8C8"/><stop offset="1" stop-color="#C0C0C0"/></linearGradient><linearGradient x1="3475" y1="954" x2="3475" y2="1057" gradientUnits="userSpaceOnUse" spreadMethod="reflect" id="fill51"><stop offset="0" stop-color="#D2D2D2"/><stop offset="0.5" stop-color="#C8C8C8"/><stop offset="1" stop-color="#C0C0C0"/></linearGradient><linearGradient x1="65" y1="0" x2="65" y2="46.0001" gradientUnits="userSpaceOnUse" spreadMethod="reflect" id="fill52"><stop offset="0" stop-color="#D2D2D2"/><stop offset="0.5" stop-color="#C8C8C8"/><stop offset="1" stop-color="#C0C0C0"/></linearGradient><linearGradient x1="3475" y1="976" x2="3475" y2="1026" gradientUnits="userSpaceOnUse" spreadMethod="reflect" id="fill53"><stop offset="0" stop-color="#D2D2D2"/><stop offset="0.5" stop-color="#C8C8C8"/><stop offset="1" stop-color="#C0C0C0"/></linearGradient><linearGradient x1="3673" y1="907" x2="3673" y2="952" gradientUnits="userSpaceOnUse" spreadMethod="reflect" id="fill54"><stop offset="0" stop-color="#D2D2D2"/><stop offset="0.5" stop-color="#C8C8C8"/><stop offset="1" stop-color="#C0C0C0"/></linearGradient><linearGradient x1="3673" y1="952" x2="3673" y2="1056" gradientUnits="userSpaceOnUse" spreadMethod="reflect" id="fill55"><stop offset="0" stop-color="#D2D2D2"/><stop offset="0.5" stop-color="#C8C8C8"/><stop offset="1" stop-color="#C0C0C0"/></linearGradient><linearGradient x1="65" y1="0" x2="65" y2="45" gradientUnits="userSpaceOnUse" spreadMethod="reflect" id="fill56"><stop offset="0" stop-color="#D2D2D2"/><stop offset="0.5" stop-color="#C8C8C8"/><stop offset="1" stop-color="#C0C0C0"/></linearGradient><linearGradient x1="3673" y1="974" x2="3673" y2="1025" gradientUnits="userSpaceOnUse" spreadMethod="reflect" id="fill57"><stop offset="0" stop-color="#D2D2D2"/><stop offset="0.5" stop-color="#C8C8C8"/><stop offset="1" stop-color="#C0C0C0"/></linearGradient><linearGradient x1="3870" y1="904" x2="3870" y2="949" gradientUnits="userSpaceOnUse" spreadMethod="reflect" id="fill58"><stop offset="0" stop-color="#D2D2D2"/><stop offset="0.5" stop-color="#C8C8C8"/><stop offset="1" stop-color="#C0C0C0"/></linearGradient><linearGradient x1="3870" y1="949" x2="3870" y2="1053" gradientUnits="userSpaceOnUse" spreadMethod="reflect" id="fill59"><stop offset="0" stop-color="#D2D2D2"/><stop offset="0.5" stop-color="#C8C8C8"/><stop offset="1" stop-color="#C0C0C0"/></linearGradient><linearGradient x1="65" y1="0" x2="65" y2="44.9997" gradientUnits="userSpaceOnUse" spreadMethod="reflect" id="fill60"><stop offset="0" stop-color="#D2D2D2"/><stop offset="0.5" stop-color="#C8C8C8"/><stop offset="1" stop-color="#C0C0C0"/></linearGradient><linearGradient x1="3870" y1="972" x2="3870" y2="1022" gradientUnits="userSpaceOnUse" spreadMethod="reflect" id="fill61"><stop offset="0" stop-color="#D2D2D2"/><stop offset="0.5" stop-color="#C8C8C8"/><stop offset="1" stop-color="#C0C0C0"/></linearGradient><clipPath id="clip62"><rect x="4038" y="405" width="105" height="106"/></clipPath><clipPath id="clip63"><rect x="4038" y="405" width="105" height="106"/></clipPath><clipPath id="clip64"><rect x="4038" y="405" width="105" height="106"/></clipPath><linearGradient x1="51.9943" y1="0.468317" x2="51.9943" y2="103.532" gradientUnits="userSpaceOnUse" spreadMethod="pad" id="fill65"><stop offset="0" stop-color="#B3B2B3"/><stop offset="0.216" stop-color="#AFAEAF"/><stop offset="0.44" stop-color="#A2A2A2"/><stop offset="0.577" stop-color="#979797"/><stop offset="1" stop-color="#979797"/></linearGradient></defs><g clip-path="url(#clip0)" transform="translate(-203 -384)"><path d="M354 628 354 740.35 436.395 740.35 436.395 703.435 477.326 703.435 477.326 740.35 560.252 740.35 560.252 628Z" fill="#7F7F7F" fill-rule="evenodd"/><path d="M385 659 398.2 659 398.2 672.2 385 672.2Z" fill-rule="evenodd"/><path d="M419 659 432.2 659 432.2 672.2 419 672.2Z" fill-rule="evenodd"/><path d="M454 659 466 659 466 672.2 454 672.2Z" fill-rule="evenodd"/><path d="M488 659 501.2 659 501.2 672.2 488 672.2Z" fill-rule="evenodd"/><path d="M523 659 536.2 659 536.2 672.2 523 672.2Z" fill-rule="evenodd"/><path d="M560 627 614.06 627 614.06 741.134 560 741.134Z" fill="#5B5C5E" fill-rule="evenodd"/><path d="M544.231 639.5 561.702 663.426 554.495 666.247 576.501 686.75 569.294 690.173 596.5 724.5 550.363 698.193 559.162 694.542 530.495 677.691 540.767 672.485 510.5 654.808Z" stroke="#BC8C00" stroke-width="4.58333" stroke-miterlimit="8" fill="#FFC000" fill-rule="evenodd" fill-opacity="0.8"/><path d="M717 586 728.25 541 835.75 541 847 586Z" stroke="#FFFFFF" stroke-width="2.29167" stroke-miterlimit="8" fill="url(#fill1)" fill-rule="evenodd"/><rect x="717" y="586" width="130" height="103" stroke="#FFFFFF" stroke-width="2.29167" stroke-miterlimit="8" fill="url(#fill2)"/><path d="M0 45 11.25 0 118.75 0 130 45Z" stroke="#FFFFFF" stroke-width="2.29167" stroke-miterlimit="8" fill="url(#fill3)" fill-rule="evenodd" transform="matrix(1 0 0 -1 717 731)"/><path d="M757 633C757 619.193 768.193 608 782 608 795.807 608 807 619.193 807 633 807 646.807 795.807 658 782 658 768.193 658 757 646.807 757 633Z" fill="url(#fill4)" fill-rule="evenodd"/><path d="M743.182 632.992 743.962 625.19 746.3 617.883 749.877 611.311 754.611 605.611 760.311 600.877 766.883 597.301 774.19 594.963 781.992 594.182 789.865 594.96 797.179 597.301 803.752 600.877 809.452 605.611 814.186 611.311 817.802 617.957 820.046 625.274 820.818 632.992 820.048 640.781 817.802 648.105 814.186 654.752 809.452 660.452 803.752 665.186 797.105 668.802 789.781 671.049 781.992 671.818 774.274 671.046 766.957 668.802 760.311 665.186 754.611 660.452 749.877 654.752 746.3 648.18 743.96 640.865ZM760.208 637.502 761.54 641.664 763.6 645.45 766.328 648.735 769.613 651.463 773.383 653.515 777.545 654.791 782.002 655.237 786.519 654.79 790.679 653.515 794.45 651.463 797.735 648.735 800.463 645.45 802.514 641.679 803.79 637.519 804.236 633.002 803.791 628.545 802.514 624.384 800.463 620.613 797.735 617.328 794.45 614.6 790.664 612.54 786.502 611.208 782.002 610.764 777.562 611.208 773.398 612.54 769.613 614.6 766.328 617.328 763.6 620.613 761.54 624.398 760.207 628.562 759.763 633.002ZM765.291 633.005 765.622 629.686 766.62 626.57 768.174 623.714 770.234 621.234 772.713 619.174 775.57 617.62 778.686 616.623 782.005 616.291 785.381 616.624 788.492 617.62 791.349 619.174 793.829 621.234 795.888 623.714 797.419 626.526 798.372 629.636 798.709 633.005 798.371 636.432 797.419 639.537 795.888 642.349 793.829 644.829 791.349 646.889 788.537 648.419 785.431 649.371 782.005 649.709 778.636 649.373 775.526 648.419 772.713 646.889 770.234 644.829 768.174 642.349 766.62 639.492 765.624 636.381ZM771.04 635.26 771.699 637.321 772.748 639.249 774.139 640.923 775.814 642.314 777.668 643.323 779.726 643.954 782.008 644.182 784.344 643.952 786.395 643.323 788.248 642.314 789.923 640.923 791.314 639.249 792.323 637.395 792.952 635.344 793.182 633.009 792.954 630.727 792.323 628.668 791.314 626.814 789.923 625.139 788.248 623.748 786.321 622.7 784.26 622.04 782.008 621.818 779.81 622.038 777.742 622.7 775.814 623.748 774.139 625.139 772.748 626.814 771.699 628.742 771.037 630.81 770.818 633.009Z" fill="#FF0000"/><path d="M3.29625-0.975257 9.53043 20.0955 2.93793 22.046-3.29625 0.975257ZM18.1188 12.7748 12.7359 43.0458-8.25117 20.5768Z" fill="#FF0000" transform="matrix(1 0 0 -1 775.5 652.546)"/><path d="M914 591 925.25 546 1032.75 546 1044 591Z" stroke="#FFFFFF" stroke-width="2.29167" stroke-miterlimit="8" fill="url(#fill5)" fill-rule="evenodd"/><rect x="914" y="591" width="130" height="103" stroke="#FFFFFF" stroke-width="2.29167" stroke-miterlimit="8" fill="url(#fill6)"/><path d="M0 45 11.25 0 118.75 0 130 45Z" stroke="#FFFFFF" stroke-width="2.29167" stroke-miterlimit="8" fill="url(#fill7)" fill-rule="evenodd" transform="matrix(1 0 0 -1 914 737)"/><path d="M954 638C954 624.193 965.193 613 979 613 992.807 613 1004 624.193 1004 638 1004 651.807 992.807 663 979 663 965.193 663 954 651.807 954 638Z" fill="url(#fill8)" fill-rule="evenodd"/><path d="M940.182 637.991 940.962 630.19 943.3 622.883 946.877 616.311 951.611 610.611 957.311 605.877 963.883 602.3 971.19 599.962 978.991 599.182 986.865 599.96 994.179 602.3 1000.75 605.877 1006.45 610.611 1011.19 616.311 1014.8 622.957 1017.05 630.273 1017.82 637.991 1017.05 645.781 1014.8 653.105 1011.19 659.751 1006.45 665.452 1000.75 670.186 994.105 673.802 986.781 676.048 978.991 676.818 971.273 676.046 963.957 673.802 957.311 670.186 951.611 665.452 946.877 659.751 943.3 653.179 940.96 645.865ZM957.208 642.502 958.54 646.664 960.6 650.45 963.328 653.734 966.613 656.463 970.383 658.514 974.545 659.791 979.002 660.236 983.519 659.79 987.679 658.514 991.45 656.463 994.734 653.734 997.463 650.45 999.514 646.679 1000.79 642.519 1001.24 638.002 1000.79 633.545 999.514 629.383 997.463 625.613 994.734 622.328 991.45 619.6 987.664 617.54 983.502 616.208 979.002 615.763 974.562 616.207 970.398 617.54 966.613 619.6 963.328 622.328 960.6 625.613 958.54 629.398 957.207 633.562 956.763 638.002ZM962.291 638.005 962.622 634.686 963.62 631.57 965.174 628.713 967.233 626.233 969.713 624.174 972.57 622.62 975.686 621.622 979.005 621.291 982.381 621.624 985.492 622.62 988.349 624.174 990.829 626.233 992.888 628.713 994.419 631.526 995.372 634.636 995.709 638.005 995.371 641.431 994.419 644.537 992.888 647.349 990.829 649.829 988.349 651.888 985.537 653.419 982.431 654.371 979.005 654.709 975.636 654.372 972.526 653.419 969.713 651.888 967.233 649.829 965.174 647.349 963.62 644.492 962.624 641.381ZM968.04 640.26 968.699 642.32 969.748 644.248 971.139 645.923 972.814 647.314 974.668 648.323 976.726 648.954 979.008 649.182 981.344 648.951 983.395 648.323 985.248 647.314 986.923 645.923 988.314 644.248 989.323 642.395 989.951 640.344 990.182 638.008 989.954 635.726 989.323 633.668 988.314 631.814 986.923 630.139 985.248 628.748 983.32 627.699 981.26 627.04 979.008 626.818 976.81 627.037 974.742 627.699 972.814 628.748 971.139 630.139 969.748 631.814 968.699 633.742 968.037 635.81 967.818 638.008Z" fill="#FF0000"/><path d="M2.1975-0.650171 8.43168 20.4206 4.03668 21.721-2.1975 0.650171ZM18.1188 12.7748 12.7359 43.0458-8.25117 20.5768Z" fill="#FF0000" transform="matrix(1 0 0 -1 973.5 657.546)"/><path d="M1112 596 1123.25 551 1229.75 551 1241 596Z" stroke="#FFFFFF" stroke-width="2.29167" stroke-miterlimit="8" fill="url(#fill9)" fill-rule="evenodd"/><rect x="1112" y="596" width="129" height="104" stroke="#FFFFFF" stroke-width="2.29167" stroke-miterlimit="8" fill="url(#fill10)"/><path d="M0 45 11.25 0 117.75 0 129 45Z" stroke="#FFFFFF" stroke-width="2.29167" stroke-miterlimit="8" fill="url(#fill11)" fill-rule="evenodd" transform="matrix(1 0 0 -1 1112 742)"/><path d="M1151 644C1151 630.193 1162.42 619 1176.5 619 1190.58 619 1202 630.193 1202 644 1202 657.807 1190.58 669 1176.5 669 1162.42 669 1151 657.807 1151 644Z" fill="url(#fill12)" fill-rule="evenodd"/><path d="M1137.18 643.992 1137.96 636.19 1140.32 628.809 1144.02 622.191 1148.83 616.523 1154.58 611.823 1161.22 608.263 1168.63 605.952 1176.5 605.185 1184.37 605.952 1191.78 608.263 1198.37 611.796 1204.25 616.524 1209.01 622.251 1212.68 628.809 1215.04 636.19 1215.82 643.992 1215.04 651.865 1212.68 659.254 1209.01 665.812 1204.25 671.539 1198.37 676.267 1191.71 679.839 1184.28 682.056 1176.5 682.815 1168.71 682.056 1161.29 679.839 1154.58 676.24 1148.83 671.54 1144.02 665.872 1140.32 659.254 1137.96 651.865ZM1154.21 648.502 1155.54 652.649 1157.65 656.426 1160.43 659.717 1163.78 662.452 1167.62 664.507 1171.91 665.789 1176.5 666.237 1181.09 665.789 1185.38 664.507 1189.23 662.447 1192.62 659.717 1195.35 656.438 1197.46 652.649 1198.79 648.502 1199.24 644.002 1198.79 639.562 1197.46 635.413 1195.35 631.625 1192.62 628.345 1189.23 625.616 1185.37 623.548 1181.08 622.21 1176.5 621.763 1171.92 622.21 1167.63 623.548 1163.78 625.611 1160.43 628.346 1157.65 631.637 1155.54 635.413 1154.21 639.562 1153.76 644.002ZM1159.29 644.005 1159.62 640.686 1160.61 637.615 1162.19 634.786 1164.3 632.286 1166.85 630.207 1169.77 628.642 1173.02 627.629 1176.5 627.289 1179.98 627.629 1183.23 628.642 1186.18 630.223 1188.75 632.286 1190.79 634.75 1192.39 637.615 1193.38 640.686 1193.71 644.005 1193.38 647.381 1192.39 650.448 1190.79 653.313 1188.75 655.777 1186.18 657.84 1183.28 659.397 1180.03 660.367 1176.5 660.711 1172.97 660.367 1169.72 659.397 1166.85 657.856 1164.3 655.776 1162.19 653.277 1160.61 650.448 1159.62 647.381ZM1165.04 646.26 1165.68 648.246 1166.73 650.128 1168.17 651.836 1169.92 653.26 1171.83 654.286 1174.03 654.944 1176.5 655.185 1178.96 654.944 1181.17 654.286 1183.13 653.234 1184.87 651.836 1186.24 650.188 1187.32 648.246 1187.96 646.26 1188.18 644.009 1187.96 641.81 1187.32 639.817 1186.24 637.874 1184.87 636.227 1183.13 634.829 1181.09 633.737 1178.88 633.048 1176.5 632.815 1174.12 633.048 1171.91 633.737 1169.92 634.803 1168.17 636.227 1166.73 637.935 1165.68 639.817 1165.04 641.81 1164.82 644.009Z" fill="#FF0000"/><path d="M2.1975-0.650171 8.43168 20.4206 4.03668 21.721-2.1975 0.650171ZM18.1188 12.7748 12.7359 43.0458-8.25117 20.5768Z" fill="#FF0000" transform="matrix(1 0 0 -1 1170.5 663.546)"/><text font-family="Yu Gothic,Yu Gothic_MSFontService,sans-serif" font-weight="400" font-size="46" transform="matrix(1 0 0 1 419.927 818)">p1<tspan font-size="46" x="313.194" y="-39">tsc</tspan><tspan font-size="46" x="376.214" y="-39">-</tspan><tspan font-size="46" x="396.267" y="-39">1</tspan></text><path d="M657.5 518.668C657.5 485.438 684.438 458.5 717.668 458.5L785.667 458.5 785.667 458.5 977.917 458.5 1366.33 458.5C1399.56 458.5 1426.5 485.438 1426.5 518.668L1426.5 669.083 1426.5 669.083 1426.5 759.333 1426.5 759.332C1426.5 792.562 1399.56 819.5 1366.33 819.5L977.917 819.5 785.667 819.5 785.667 819.5 717.668 819.5C684.438 819.5 657.5 792.562 657.5 759.332L657.5 759.333 574.971 680.768 657.5 669.083Z" stroke="#2F528F" stroke-width="4.58333" stroke-miterlimit="8" fill="none" fill-rule="evenodd"/><path d="M354 997 354 1109.35 436.395 1109.35 436.395 1072.44 477.326 1072.44 477.326 1109.35 560.252 1109.35 560.252 997Z" fill="#7F7F7F" fill-rule="evenodd"/><path d="M385 1028 398.2 1028 398.2 1041.2 385 1041.2Z" fill-rule="evenodd"/><path d="M419 1028 432.2 1028 432.2 1041.2 419 1041.2Z" fill-rule="evenodd"/><path d="M454 1028 466 1028 466 1041.2 454 1041.2Z" fill-rule="evenodd"/><path d="M488 1028 501.2 1028 501.2 1041.2 488 1041.2Z" fill-rule="evenodd"/><path d="M523 1028 536.2 1028 536.2 1041.2 523 1041.2Z" fill-rule="evenodd"/><path d="M560 997 614.06 997 614.06 1111.13 560 1111.13Z" fill="#5B5C5E" fill-rule="evenodd"/><path d="M544.231 1008.5 561.702 1032.43 554.495 1035.25 576.501 1055.75 569.294 1059.17 596.5 1093.5 550.363 1067.19 559.162 1063.54 530.495 1046.69 540.767 1041.48 510.5 1023.81Z" stroke="#BC8C00" stroke-width="4.58333" stroke-miterlimit="8" fill="#FFC000" fill-rule="evenodd" fill-opacity="0.8"/><path d="M720 978 731.25 933 838.75 933 850 978Z" stroke="#FFFFFF" stroke-width="2.29167" stroke-miterlimit="8" fill="url(#fill13)" fill-rule="evenodd"/><rect x="720" y="978" width="130" height="103" stroke="#FFFFFF" stroke-width="2.29167" stroke-miterlimit="8" fill="url(#fill14)"/><path d="M0 45 11.25 0 118.75 0 130 45Z" stroke="#FFFFFF" stroke-width="2.29167" stroke-miterlimit="8" fill="url(#fill15)" fill-rule="evenodd" transform="matrix(1 0 0 -1 720 1123)"/><path d="M760 1025C760 1011.19 771.193 1000 785 1000 798.807 1000 810 1011.19 810 1025 810 1038.81 798.807 1050 785 1050 771.193 1050 760 1038.81 760 1025Z" fill="url(#fill16)" fill-rule="evenodd"/><path d="M746.182 1024.99 746.963 1017.19 749.301 1009.88 752.877 1003.31 757.611 997.611 763.311 992.877 769.883 989.3 777.19 986.962 784.992 986.182 792.865 986.96 800.179 989.3 806.752 992.877 812.452 997.611 817.186 1003.31 820.802 1009.96 823.046 1017.27 823.818 1024.99 823.048 1032.78 820.802 1040.11 817.186 1046.75 812.452 1052.45 806.752 1057.19 800.105 1060.8 792.781 1063.05 784.992 1063.82 777.274 1063.05 769.957 1060.8 763.311 1057.19 757.611 1052.45 752.877 1046.75 749.301 1040.18 746.96 1032.86ZM763.208 1029.5 764.54 1033.66 766.6 1037.45 769.328 1040.73 772.613 1043.46 776.384 1045.51 780.545 1046.79 785.002 1047.24 789.519 1046.79 793.679 1045.51 797.45 1043.46 800.735 1040.73 803.463 1037.45 805.515 1033.68 806.79 1029.52 807.237 1025 806.791 1020.55 805.515 1016.38 803.463 1012.61 800.735 1009.33 797.45 1006.6 793.664 1004.54 789.502 1003.21 785.002 1002.76 780.562 1003.21 776.398 1004.54 772.613 1006.6 769.328 1009.33 766.6 1012.61 764.54 1016.4 763.208 1020.56 762.764 1025ZM768.291 1025.01 768.623 1021.69 769.62 1018.57 771.174 1015.71 773.234 1013.23 775.714 1011.17 778.57 1009.62 781.686 1008.62 785.005 1008.29 788.381 1008.62 791.492 1009.62 794.349 1011.17 796.829 1013.23 798.889 1015.71 800.419 1018.53 801.372 1021.64 801.709 1025.01 801.371 1028.43 800.419 1031.54 798.889 1034.35 796.829 1036.83 794.349 1038.89 791.537 1040.42 788.432 1041.37 785.005 1041.71 781.636 1041.37 778.526 1040.42 775.714 1038.89 773.234 1036.83 771.174 1034.35 769.62 1031.49 768.624 1028.38ZM774.04 1027.26 774.7 1029.32 775.748 1031.25 777.139 1032.92 778.814 1034.31 780.668 1035.32 782.726 1035.95 785.008 1036.18 787.344 1035.95 789.395 1035.32 791.248 1034.31 792.923 1032.92 794.314 1031.25 795.323 1029.39 795.952 1027.34 796.182 1025.01 795.954 1022.73 795.323 1020.67 794.314 1018.81 792.923 1017.14 791.248 1015.75 789.321 1014.7 787.26 1014.04 785.008 1013.82 782.81 1014.04 780.742 1014.7 778.814 1015.75 777.139 1017.14 775.748 1018.81 774.7 1020.74 774.038 1022.81 773.818 1025.01Z" fill="#FF0000"/><path d="M2.1975-0.650171 8.43168 20.4206 4.03668 21.721-2.1975 0.650171ZM18.1188 12.7748 12.7359 43.0458-8.25117 20.5768Z" fill="#FF0000" transform="matrix(1 0 0 -1 779.5 1044.55)"/><path d="M918 983 929.25 938 1036.75 938 1048 983Z" stroke="#FFFFFF" stroke-width="2.29167" stroke-miterlimit="8" fill="url(#fill17)" fill-rule="evenodd"/><rect x="918" y="983" width="130" height="104" stroke="#FFFFFF" stroke-width="2.29167" stroke-miterlimit="8" fill="url(#fill18)"/><path d="M0 45 11.25 0 118.75 0 130 45Z" stroke="#FFFFFF" stroke-width="2.29167" stroke-miterlimit="8" fill="url(#fill19)" fill-rule="evenodd" transform="matrix(1 0 0 -1 918 1129)"/><path d="M958 1031C958 1017.19 969.193 1006 983 1006 996.807 1006 1008 1017.19 1008 1031 1008 1044.81 996.807 1056 983 1056 969.193 1056 958 1044.81 958 1031Z" fill="url(#fill20)" fill-rule="evenodd"/><path d="M944.182 1030.99 944.963 1023.19 947.301 1015.88 950.877 1009.31 955.611 1003.61 961.311 998.877 967.883 995.301 975.19 992.963 982.992 992.182 990.865 992.96 998.179 995.301 1004.75 998.877 1010.45 1003.61 1015.19 1009.31 1018.8 1015.96 1021.05 1023.27 1021.82 1030.99 1021.05 1038.78 1018.8 1046.11 1015.19 1052.75 1010.45 1058.45 1004.75 1063.19 998.105 1066.8 990.781 1069.05 982.992 1069.82 975.274 1069.05 967.957 1066.8 961.311 1063.19 955.611 1058.45 950.877 1052.75 947.301 1046.18 944.96 1038.86ZM961.208 1035.5 962.54 1039.66 964.6 1043.45 967.328 1046.73 970.613 1049.46 974.384 1051.51 978.545 1052.79 983.002 1053.24 987.519 1052.79 991.679 1051.51 995.45 1049.46 998.735 1046.73 1001.46 1043.45 1003.51 1039.68 1004.79 1035.52 1005.24 1031 1004.79 1026.55 1003.51 1022.38 1001.46 1018.61 998.735 1015.33 995.45 1012.6 991.664 1010.54 987.502 1009.21 983.002 1008.76 978.562 1009.21 974.398 1010.54 970.613 1012.6 967.328 1015.33 964.6 1018.61 962.54 1022.4 961.208 1026.56 960.764 1031ZM966.291 1031.01 966.623 1027.69 967.62 1024.57 969.174 1021.71 971.234 1019.23 973.714 1017.17 976.57 1015.62 979.686 1014.62 983.005 1014.29 986.381 1014.62 989.492 1015.62 992.349 1017.17 994.829 1019.23 996.889 1021.71 998.419 1024.53 999.372 1027.64 999.709 1031.01 999.371 1034.43 998.419 1037.54 996.889 1040.35 994.829 1042.83 992.349 1044.89 989.537 1046.42 986.432 1047.37 983.005 1047.71 979.636 1047.37 976.526 1046.42 973.714 1044.89 971.234 1042.83 969.174 1040.35 967.62 1037.49 966.624 1034.38ZM972.04 1033.26 972.7 1035.32 973.748 1037.25 975.139 1038.92 976.814 1040.31 978.668 1041.32 980.726 1041.95 983.008 1042.18 985.344 1041.95 987.395 1041.32 989.248 1040.31 990.923 1038.92 992.314 1037.25 993.323 1035.39 993.952 1033.34 994.182 1031.01 993.954 1028.73 993.323 1026.67 992.314 1024.81 990.923 1023.14 989.248 1021.75 987.321 1020.7 985.26 1020.04 983.008 1019.82 980.81 1020.04 978.742 1020.7 976.814 1021.75 975.139 1023.14 973.748 1024.81 972.7 1026.74 972.038 1028.81 971.818 1031.01Z" fill="#FF0000"/><path d="M2.1975-0.650171 8.43168 20.4206 4.03668 21.721-2.1975 0.650171ZM18.1188 12.7748 12.7359 43.0458-8.25117 20.5768Z" fill="#FF0000" transform="matrix(1 0 0 -1 976.5 1050.55)"/><path d="M657.5 942.335C657.5 906.527 686.527 877.5 722.334 877.5L785.667 877.5 785.667 877.5 977.917 877.5 1361.67 877.5C1397.47 877.5 1426.5 906.527 1426.5 942.335L1426.5 1104.42 1426.5 1104.42 1426.5 1201.67 1426.5 1201.67C1426.5 1237.47 1397.47 1266.5 1361.67 1266.5L977.917 1266.5 785.667 1266.5 785.667 1266.5 722.334 1266.5C686.527 1266.5 657.5 1237.47 657.5 1201.67L657.5 1201.67 574.971 1117.01 657.5 1104.42Z" stroke="#2F528F" stroke-width="4.58333" stroke-miterlimit="8" fill="none" fill-rule="evenodd"/><path d="M835 624 875.5 624 875.5 602 916 646 875.5 690 875.5 668 835 668Z" stroke="#4472C4" stroke-width="2.29167" stroke-miterlimit="8" fill="url(#fill21)" fill-rule="evenodd"/><path d="M1040 624.25 1080 624.25 1080 602 1120 646.5 1080 691 1080 668.75 1040 668.75Z" stroke="#4472C4" stroke-width="2.29167" stroke-miterlimit="8" fill="url(#fill22)" fill-rule="evenodd"/><path d="M835 1015 875.5 1015 875.5 993 916 1037 875.5 1081 875.5 1059 835 1059Z" stroke="#4472C4" stroke-width="2.29167" stroke-miterlimit="8" fill="url(#fill23)" fill-rule="evenodd"/><path d="M1142 935 1149.5 905 1220.5 905 1228 935Z" stroke="#FFFFFF" stroke-width="2.29167" stroke-miterlimit="8" fill="url(#fill24)" fill-rule="evenodd"/><rect x="1142" y="935" width="85.9999" height="68.0001" stroke="#FFFFFF" stroke-width="2.29167" stroke-miterlimit="8" fill="url(#fill25)"/><path d="M0 30.0001 7.49998 0 78.5 0 85.9999 30.0001Z" stroke="#FFFFFF" stroke-width="2.29167" stroke-miterlimit="8" fill="url(#fill26)" fill-rule="evenodd" transform="matrix(1 0 0 -1 1142 1031)"/><path d="M1168 965.5C1168 956.387 1175.39 949 1184.5 949 1193.61 949 1201 956.387 1201 965.5 1201 974.613 1193.61 982 1184.5 982 1175.39 982 1168 974.613 1168 965.5Z" fill="url(#fill27)" fill-rule="evenodd"/><path d="M1154.19 965.5 1154.77 959.374 1156.61 953.715 1159.37 948.549 1163.12 944.119 1167.55 940.37 1172.71 937.615 1178.37 935.767 1184.5 935.189 1190.59 935.763 1196.31 937.596 1201.51 940.37 1206.02 944.186 1209.68 948.642 1212.39 953.715 1214.23 959.373 1214.81 965.5 1214.24 971.586 1212.4 977.312 1209.68 982.421 1205.96 986.957 1201.42 990.68 1196.31 993.405 1190.59 995.237 1184.5 995.811 1178.37 995.233 1172.71 993.385 1167.64 990.68 1163.19 987.024 1159.37 982.513 1156.6 977.312 1154.76 971.586ZM1171.02 968.258 1171.86 970.863 1173.1 973.197 1174.81 975.22 1176.85 976.889 1179.21 978.148 1181.75 978.979 1184.5 979.238 1187.26 978.978 1189.86 978.144 1192.22 976.889 1194.23 975.234 1195.89 973.216 1197.14 970.863 1197.98 968.258 1198.24 965.5 1197.98 962.75 1197.15 960.207 1195.89 957.847 1194.22 955.813 1192.2 954.101 1189.86 952.856 1187.26 952.023 1184.5 951.762 1181.75 952.022 1179.21 952.852 1176.87 954.101 1174.83 955.826 1173.1 957.865 1171.85 960.207 1171.02 962.75 1170.76 965.5ZM1176.29 965.5 1176.44 963.876 1176.93 962.371 1177.68 960.971 1178.73 959.729 1179.97 958.678 1181.37 957.931 1182.88 957.44 1184.5 957.287 1186.15 957.442 1187.71 957.943 1189.09 958.678 1190.29 959.688 1191.29 960.915 1192.07 962.371 1192.56 963.876 1192.71 965.5 1192.56 967.149 1192.06 968.713 1191.29 970.148 1190.33 971.326 1189.15 972.292 1187.71 973.057 1186.15 973.558 1184.5 973.714 1182.88 973.56 1181.37 973.069 1179.91 972.292 1178.69 971.286 1177.68 970.092 1176.94 968.713 1176.44 967.149ZM1181.86 966.039 1182.03 966.563 1182.26 966.987 1182.56 967.351 1182.98 967.695 1183.54 967.99 1184 968.142 1184.5 968.189 1185.04 968.138 1185.56 967.971 1186.08 967.695 1186.42 967.418 1186.7 967.08 1186.97 966.563 1187.14 966.039 1187.19 965.5 1187.14 965.002 1186.99 964.535 1186.7 963.983 1186.35 963.564 1185.99 963.256 1185.56 963.03 1185.04 962.862 1184.5 962.811 1184 962.858 1183.54 963.01 1183.08 963.256 1182.63 963.632 1182.26 964.076 1182.01 964.535 1181.86 965.002 1181.81 965.5Z" fill="#FF0000"/><path d="M2.1975-0.650182 4.07705 5.70236-0.31795 7.00272-2.1975 0.650182ZM13.7642-1.94355 8.38136 28.3275-12.6058 5.85863Z" fill="#FF0000" transform="matrix(1 0 0 -1 1181.5 978.828)"/><path d="M1139 1090 1146.25 1061 1217.75 1061 1225 1090Z" stroke="#FFFFFF" stroke-width="2.29167" stroke-miterlimit="8" fill="url(#fill28)" fill-rule="evenodd"/><rect x="1139" y="1090" width="86.0002" height="68.0001" stroke="#FFFFFF" stroke-width="2.29167" stroke-miterlimit="8" fill="url(#fill29)"/><path d="M0 28.9999 7.24993 0 78.7504 0 86.0003 28.9999Z" stroke="#FFFFFF" stroke-width="2.29167" stroke-miterlimit="8" fill="url(#fill30)" fill-rule="evenodd" transform="matrix(1 0 0 -1 1139 1186)"/><path d="M1166 1121.5C1166 1112.39 1173.39 1105 1182.5 1105 1191.61 1105 1199 1112.39 1199 1121.5 1199 1130.61 1191.61 1138 1182.5 1138 1173.39 1138 1166 1130.61 1166 1121.5Z" fill="url(#fill31)" fill-rule="evenodd"/><path d="M1152.19 1121.5 1152.77 1115.37 1154.61 1109.71 1157.37 1104.55 1161.12 1100.12 1165.55 1096.37 1170.71 1093.61 1176.37 1091.77 1182.5 1091.19 1188.59 1091.76 1194.31 1093.6 1199.51 1096.37 1204.02 1100.19 1207.68 1104.64 1210.39 1109.71 1212.23 1115.37 1212.81 1121.5 1212.24 1127.59 1210.4 1133.31 1207.68 1138.42 1203.96 1142.96 1199.42 1146.68 1194.31 1149.4 1188.59 1151.24 1182.5 1151.81 1176.37 1151.23 1170.71 1149.39 1165.64 1146.68 1161.19 1143.02 1157.37 1138.51 1154.6 1133.31 1152.76 1127.59ZM1169.02 1124.26 1169.86 1126.86 1171.1 1129.2 1172.81 1131.22 1174.85 1132.89 1177.21 1134.15 1179.75 1134.98 1182.5 1135.24 1185.26 1134.98 1187.86 1134.14 1190.22 1132.89 1192.23 1131.23 1193.89 1129.22 1195.14 1126.86 1195.98 1124.26 1196.24 1121.5 1195.98 1118.75 1195.15 1116.21 1193.89 1113.85 1192.22 1111.81 1190.2 1110.1 1187.86 1108.86 1185.26 1108.02 1182.5 1107.76 1179.75 1108.02 1177.21 1108.85 1174.87 1110.1 1172.83 1111.83 1171.1 1113.87 1169.85 1116.21 1169.02 1118.75 1168.76 1121.5ZM1174.29 1121.5 1174.44 1119.88 1174.93 1118.37 1175.68 1116.97 1176.73 1115.73 1177.97 1114.68 1179.37 1113.93 1180.88 1113.44 1182.5 1113.29 1184.15 1113.44 1185.71 1113.94 1187.09 1114.68 1188.29 1115.69 1189.29 1116.91 1190.07 1118.37 1190.56 1119.88 1190.71 1121.5 1190.56 1123.15 1190.06 1124.71 1189.29 1126.15 1188.33 1127.33 1187.15 1128.29 1185.71 1129.06 1184.15 1129.56 1182.5 1129.71 1180.88 1129.56 1179.37 1129.07 1177.91 1128.29 1176.69 1127.29 1175.68 1126.09 1174.94 1124.71 1174.44 1123.15ZM1179.86 1122.04 1180.03 1122.56 1180.26 1122.99 1180.56 1123.35 1180.98 1123.7 1181.54 1123.99 1182 1124.14 1182.5 1124.19 1183.04 1124.14 1183.56 1123.97 1184.08 1123.7 1184.42 1123.42 1184.7 1123.08 1184.97 1122.56 1185.14 1122.04 1185.19 1121.5 1185.14 1121 1184.99 1120.54 1184.7 1119.98 1184.35 1119.56 1183.99 1119.26 1183.56 1119.03 1183.04 1118.86 1182.5 1118.81 1182 1118.86 1181.54 1119.01 1181.08 1119.26 1180.63 1119.63 1180.26 1120.08 1180.01 1120.54 1179.86 1121 1179.81 1121.5Z" fill="#FF0000"/><path d="M2.1975-0.650182 4.07705 5.70236-0.31795 7.00272-2.1975 0.650182ZM13.7642-1.94355 8.38136 28.3275-12.6058 5.85863Z" fill="#FF0000" transform="matrix(1 0 0 -1 1178.5 1134.83)"/><path d="M1043 955 1083.5 955 1083.5 933 1124 977 1083.5 1021 1083.5 999 1043 999Z" stroke="#4472C4" stroke-width="2.29167" stroke-miterlimit="8" fill="url(#fill32)" fill-rule="evenodd"/><path d="M1044 1095 1084.5 1095 1084.5 1073 1125 1117 1084.5 1161 1084.5 1139 1044 1139Z" stroke="#4472C4" stroke-width="2.29167" stroke-miterlimit="8" fill="url(#fill33)" fill-rule="evenodd"/><text font-family="Yu Gothic,Yu Gothic_MSFontService,sans-serif" font-weight="400" font-size="46" transform="matrix(1 0 0 1 1952.14 704)">Plant<tspan font-size="46" x="0" y="327">Equipment</tspan></text><path d="M2563 646 2563 758.35 2645.8 758.35 2645.8 721.435 2686.94 721.435 2686.94 758.35 2770.27 758.35 2770.27 646Z" fill="#7F7F7F" fill-rule="evenodd"/><path d="M2595 677 2607 677 2607 690.2 2595 690.2Z" fill-rule="evenodd"/><path d="M2629 677 2642.2 677 2642.2 690.2 2629 690.2Z" fill-rule="evenodd"/><path d="M2664 677 2676 677 2676 690.2 2664 690.2Z" fill-rule="evenodd"/><path d="M2698 677 2711.2 677 2711.2 690.2 2698 690.2Z" fill-rule="evenodd"/><path d="M2733 677 2746.2 677 2746.2 690.2 2733 690.2Z" fill-rule="evenodd"/><path d="M2770 646 2824.06 646 2824.06 760.134 2770 760.134Z" fill="#5B5C5E" fill-rule="evenodd"/><path d="M2753.84 657.5 2771.11 681.426 2763.98 684.248 2785.73 704.75 2778.61 708.173 2805.5 742.5 2759.9 716.193 2768.6 712.542 2740.26 695.691 2750.42 690.485 2720.5 672.808Z" stroke="#BC8C00" stroke-width="4.58333" stroke-miterlimit="8" fill="#FFC000" fill-rule="evenodd" fill-opacity="0.8"/><path d="M3495 644 3495 756.35 3577.8 756.35 3577.8 719.435 3618.94 719.435 3618.94 756.35 3702.27 756.35 3702.27 644Z" fill="#7F7F7F" fill-rule="evenodd"/><path d="M3527 675 3539 675 3539 688.2 3527 688.2Z" fill-rule="evenodd"/><path d="M3561 675 3573 675 3573 688.2 3561 688.2Z" fill-rule="evenodd"/><path d="M3595 675 3608.2 675 3608.2 688.2 3595 688.2Z" fill-rule="evenodd"/><path d="M3630 675 3643.2 675 3643.2 688.2 3630 688.2Z" fill-rule="evenodd"/><path d="M3665 675 3677 675 3677 688.2 3665 688.2Z" fill-rule="evenodd"/><path d="M3701 644 3756.08 644 3756.08 758.134 3701 758.134Z" fill="#5B5C5E" fill-rule="evenodd"/><path d="M3685.84 655.5 3703.11 679.426 3695.98 682.247 3717.73 702.75 3710.61 706.173 3737.5 740.5 3691.9 714.193 3700.6 710.541 3672.26 693.691 3682.42 688.485 3652.5 670.808Z" stroke="#BC8C00" stroke-width="4.58333" stroke-miterlimit="8" fill="#FFC000" fill-rule="evenodd" fill-opacity="0.8"/><text font-family="Yu Gothic,Yu Gothic_MSFontService,sans-serif" font-weight="400" font-size="46" transform="matrix(1 0 0 1 427.382 1162)">p2<tspan font-size="46" x="496.755" y="-379">tsc</tspan><tspan font-size="46" x="559.776" y="-379">-</tspan><tspan font-size="46" x="579.828" y="-379">2</tspan><tspan font-size="46" x="698.373" y="-382">tsc</tspan><tspan font-size="46" x="761.394" y="-382">-</tspan>3<tspan font-size="46" x="302.928" y="17">tsc</tspan><tspan font-size="46" x="365.948" y="17">-</tspan>4<tspan font-size="46" x="493.944" y="17">tsc</tspan>-<tspan font-size="46" x="577.017" y="17">5</tspan><tspan font-size="46" x="813.686" y="-179">tsc</tspan><tspan font-size="46" x="876.707" y="-179">-</tspan><tspan font-size="46" x="896.759" y="-179">6</tspan><tspan font-size="46" x="813.686" y="-27">tsc</tspan><tspan font-size="46" x="876.707" y="-27">-</tspan><tspan font-size="46" x="896.759" y="-27">7</tspan><tspan font-size="46" x="2238.11" y="-541">p1</tspan><tspan font-size="46" x="3160.42" y="-543">p2</tspan></text><path d="M2433 954 2444.25 909 2550.75 909 2562 954Z" stroke="#FFFFFF" stroke-width="2.29167" stroke-miterlimit="8" fill="url(#fill34)" fill-rule="evenodd"/><rect x="2433" y="954" width="129" height="103" stroke="#FFFFFF" stroke-width="2.29167" stroke-miterlimit="8" fill="url(#fill35)"/><path d="M0 45 11.25 0 117.75 0 129 45Z" stroke="#FFFFFF" stroke-width="2.29167" stroke-miterlimit="8" fill="url(#fill36)" fill-rule="evenodd" transform="matrix(1 0 0 -1 2433 1100)"/><path d="M2472 1001C2472 987.193 2483.42 976 2497.5 976 2511.58 976 2523 987.193 2523 1001 2523 1014.81 2511.58 1026 2497.5 1026 2483.42 1026 2472 1014.81 2472 1001Z" fill="url(#fill37)" fill-rule="evenodd"/><path d="M2458.18 1000.99 2458.96 993.19 2461.32 985.808 2465.02 979.19 2469.83 973.523 2475.58 968.822 2482.22 965.263 2489.63 962.952 2497.5 962.185 2505.37 962.952 2512.78 965.263 2519.37 968.796 2525.25 973.523 2530.01 979.251 2533.68 985.808 2536.04 993.19 2536.82 1000.99 2536.04 1008.86 2533.68 1016.25 2530.01 1022.81 2525.25 1028.54 2519.37 1033.27 2512.71 1036.84 2505.28 1039.06 2497.5 1039.82 2489.72 1039.06 2482.29 1036.84 2475.58 1033.24 2469.83 1028.54 2465.02 1022.87 2461.32 1016.25 2458.96 1008.86ZM2475.21 1005.5 2476.54 1009.65 2478.65 1013.43 2481.43 1016.72 2484.78 1019.45 2488.62 1021.51 2492.91 1022.79 2497.5 1023.24 2502.09 1022.79 2506.38 1021.51 2510.23 1019.45 2513.62 1016.72 2516.35 1013.44 2518.46 1009.65 2519.79 1005.5 2520.24 1001 2519.79 996.562 2518.46 992.413 2516.35 988.625 2513.62 985.345 2510.23 982.616 2506.37 980.547 2502.08 979.209 2497.5 978.763 2492.92 979.209 2488.63 980.547 2484.78 982.61 2481.43 985.345 2478.65 988.637 2476.54 992.413 2475.21 996.562 2474.76 1001ZM2480.29 1001 2480.62 997.686 2481.61 994.615 2483.19 991.786 2485.3 989.286 2487.85 987.206 2490.77 985.642 2494.02 984.629 2497.5 984.289 2500.98 984.629 2504.23 985.642 2507.18 987.222 2509.75 989.286 2511.79 991.749 2513.39 994.615 2514.38 997.686 2514.71 1001 2514.38 1004.38 2513.39 1007.45 2511.79 1010.31 2509.75 1012.78 2507.18 1014.84 2504.28 1016.4 2501.03 1017.37 2497.5 1017.71 2493.97 1017.37 2490.72 1016.4 2487.85 1014.86 2485.3 1012.78 2483.19 1010.28 2481.61 1007.45 2480.62 1004.38ZM2486.04 1003.26 2486.68 1005.25 2487.73 1007.13 2489.17 1008.84 2490.92 1010.26 2492.83 1011.29 2495.03 1011.94 2497.5 1012.18 2499.97 1011.94 2502.17 1011.29 2504.13 1010.23 2505.87 1008.84 2507.24 1007.19 2508.32 1005.25 2508.96 1003.26 2509.18 1001.01 2508.96 998.81 2508.32 996.816 2507.24 994.874 2505.87 993.226 2504.13 991.829 2502.09 990.737 2499.88 990.048 2497.5 989.815 2495.12 990.048 2492.91 990.737 2490.92 991.802 2489.17 993.227 2487.73 994.934 2486.68 996.816 2486.04 998.81 2485.82 1001.01Z" fill="#FF0000"/><path d="M3.29625-0.975257 9.53043 20.0955 2.93793 22.046-3.29625 0.975257ZM18.1188 12.7748 12.7359 43.0458-8.25117 20.5768Z" fill="#FF0000" transform="matrix(1 0 0 -1 2491.5 1020.55)"/><path d="M2631 946 2642.25 901 2749.75 901 2761 946Z" stroke="#FFFFFF" stroke-width="2.29167" stroke-miterlimit="8" fill="url(#fill38)" fill-rule="evenodd"/><rect x="2631" y="946" width="130" height="104" stroke="#FFFFFF" stroke-width="2.29167" stroke-miterlimit="8" fill="url(#fill39)"/><path d="M0 45 11.25 0 118.75 0 130 45Z" stroke="#FFFFFF" stroke-width="2.29167" stroke-miterlimit="8" fill="url(#fill40)" fill-rule="evenodd" transform="matrix(1 0 0 -1 2631 1092)"/><path d="M2671 993.5C2671 979.417 2682.19 968 2696 968 2709.81 968 2721 979.417 2721 993.5 2721 1007.58 2709.81 1019 2696 1019 2682.19 1019 2671 1007.58 2671 993.5Z" fill="url(#fill41)" fill-rule="evenodd"/><path d="M2657.18 993.5 2657.95 985.633 2660.26 978.22 2663.82 971.581 2668.52 965.826 2674.19 961.023 2680.81 957.324 2688.19 954.962 2695.99 954.182 2703.86 954.96 2711.25 957.324 2717.87 961.023 2723.54 965.826 2728.24 971.581 2731.84 978.292 2734.06 985.715 2734.82 993.5 2734.06 1001.28 2731.84 1008.71 2728.27 1015.37 2723.54 1021.25 2717.81 1026.01 2711.25 1029.68 2703.86 1032.04 2695.99 1032.82 2688.19 1032.04 2680.81 1029.68 2674.25 1026.01 2668.52 1021.25 2663.8 1015.37 2660.26 1008.78 2657.95 1001.37ZM2674.21 998.077 2675.55 1002.37 2677.62 1006.23 2680.35 1009.62 2683.62 1012.35 2687.41 1014.46 2691.56 1015.79 2696 1016.24 2700.5 1015.79 2704.65 1014.46 2708.44 1012.35 2711.72 1009.62 2714.45 1006.23 2716.51 1002.38 2717.79 998.093 2718.24 993.5 2717.79 988.907 2716.51 984.617 2714.45 980.784 2711.72 977.435 2708.43 974.645 2704.65 972.535 2700.5 971.208 2696 970.764 2691.56 971.208 2687.41 972.535 2683.64 974.645 2680.35 977.435 2677.61 980.784 2675.55 984.631 2674.21 988.923 2673.76 993.5ZM2679.29 993.5 2679.63 990.02 2680.64 986.768 2682.21 983.851 2684.29 981.305 2686.79 979.186 2689.61 977.605 2692.69 976.623 2696.01 976.291 2699.38 976.624 2702.45 977.605 2705.28 979.186 2707.78 981.305 2709.86 983.851 2711.4 986.725 2712.37 989.971 2712.71 993.5 2712.37 997.029 2711.4 1000.28 2709.84 1003.18 2707.78 1005.75 2705.31 1007.79 2702.45 1009.39 2699.38 1010.38 2696.01 1010.71 2692.69 1010.38 2689.61 1009.39 2686.75 1007.79 2684.29 1005.75 2682.22 1003.18 2680.64 1000.23 2679.63 996.98ZM2685.05 995.883 2685.74 998.095 2686.83 1000.13 2688.23 1001.87 2689.87 1003.24 2691.82 1004.32 2693.81 1004.96 2696.01 1005.18 2698.26 1004.96 2700.25 1004.32 2702.19 1003.24 2703.84 1001.87 2705.23 1000.13 2706.29 998.167 2706.94 995.965 2707.18 993.5 2706.94 991.035 2706.29 988.833 2705.26 986.919 2703.84 985.174 2702.13 983.727 2700.25 982.676 2698.26 982.04 2696.01 981.818 2693.81 982.038 2691.82 982.676 2689.93 983.727 2688.23 985.174 2686.8 986.919 2685.74 988.905 2685.05 991.117 2684.82 993.5Z" fill="#FF0000"/><path d="M2.1975-0.650171 8.43168 20.4206 4.03668 21.721-2.1975 0.650171ZM18.1188 12.7748 12.7359 43.0458-8.25117 20.5768Z" fill="#FF0000" transform="matrix(1 0 0 -1 2690.5 1013.55)"/><path d="M2828 954 2839.25 909 2945.75 909 2957 954Z" stroke="#FFFFFF" stroke-width="2.29167" stroke-miterlimit="8" fill="url(#fill42)" fill-rule="evenodd"/><rect x="2828" y="954" width="129" height="104" stroke="#FFFFFF" stroke-width="2.29167" stroke-miterlimit="8" fill="url(#fill43)"/><path d="M0 45 11.25 0 117.75 0 129 45Z" stroke="#FFFFFF" stroke-width="2.29167" stroke-miterlimit="8" fill="url(#fill44)" fill-rule="evenodd" transform="matrix(1 0 0 -1 2828 1100)"/><path d="M2868 1002C2868 988.193 2879.19 977 2893 977 2906.81 977 2918 988.193 2918 1002 2918 1015.81 2906.81 1027 2893 1027 2879.19 1027 2868 1015.81 2868 1002Z" fill="url(#fill45)" fill-rule="evenodd"/><path d="M2854.18 1001.99 2854.96 994.19 2857.3 986.883 2860.88 980.311 2865.61 974.611 2871.31 969.877 2877.88 966.3 2885.19 963.962 2892.99 963.182 2900.86 963.96 2908.18 966.3 2914.75 969.877 2920.45 974.611 2925.19 980.311 2928.8 986.957 2931.05 994.274 2931.82 1001.99 2931.05 1009.78 2928.8 1017.11 2925.19 1023.75 2920.45 1029.45 2914.75 1034.19 2908.11 1037.8 2900.78 1040.05 2892.99 1040.82 2885.27 1040.05 2877.96 1037.8 2871.31 1034.19 2865.61 1029.45 2860.88 1023.75 2857.3 1017.18 2854.96 1009.86ZM2871.21 1006.5 2872.54 1010.66 2874.6 1014.45 2877.33 1017.73 2880.61 1020.46 2884.38 1022.51 2888.55 1023.79 2893 1024.24 2897.52 1023.79 2901.68 1022.51 2905.45 1020.46 2908.73 1017.73 2911.46 1014.45 2913.51 1010.68 2914.79 1006.52 2915.24 1002 2914.79 997.545 2913.51 993.383 2911.46 989.613 2908.73 986.328 2905.45 983.6 2901.66 981.54 2897.5 980.208 2893 979.763 2888.56 980.207 2884.4 981.54 2880.61 983.6 2877.33 986.328 2874.6 989.613 2872.54 993.398 2871.21 997.562 2870.76 1002ZM2876.29 1002.01 2876.62 998.686 2877.62 995.57 2879.17 992.713 2881.23 990.234 2883.71 988.174 2886.57 986.62 2889.69 985.622 2893.01 985.291 2896.38 985.624 2899.49 986.62 2902.35 988.174 2904.83 990.234 2906.89 992.713 2908.42 995.526 2909.37 998.636 2909.71 1002.01 2909.37 1005.43 2908.42 1008.54 2906.89 1011.35 2904.83 1013.83 2902.35 1015.89 2899.54 1017.42 2896.43 1018.37 2893.01 1018.71 2889.64 1018.37 2886.53 1017.42 2883.71 1015.89 2881.23 1013.83 2879.17 1011.35 2877.62 1008.49 2876.62 1005.38ZM2882.04 1004.26 2882.7 1006.32 2883.75 1008.25 2885.14 1009.92 2886.81 1011.31 2888.67 1012.32 2890.73 1012.95 2893.01 1013.18 2895.34 1012.95 2897.39 1012.32 2899.25 1011.31 2900.92 1009.92 2902.31 1008.25 2903.32 1006.39 2903.95 1004.34 2904.18 1002.01 2903.95 999.726 2903.32 997.668 2902.31 995.814 2900.92 994.139 2899.25 992.748 2897.32 991.699 2895.26 991.04 2893.01 990.818 2890.81 991.037 2888.74 991.699 2886.81 992.748 2885.14 994.139 2883.75 995.814 2882.7 997.742 2882.04 999.81 2881.82 1002.01Z" fill="#FF0000"/><path d="M2.1975-0.650171 8.43168 20.4206 4.03668 21.721-2.1975 0.650171ZM18.1188 12.7748 12.7359 43.0458-8.25117 20.5768Z" fill="#FF0000" transform="matrix(1 0 0 -1 2886.5 1021.55)"/><text font-family="Yu Gothic,Yu Gothic_MSFontService,sans-serif" font-weight="400" font-size="46" transform="matrix(1 0 0 1 2449.54 1138)">tsc<tspan font-size="46" x="63.0208" y="0">-</tspan><tspan font-size="46" x="83.0728" y="0">1</tspan><tspan font-size="46" x="191.357" y="0">tsc</tspan><tspan font-size="46" x="254.377" y="0">-</tspan><tspan font-size="46" x="274.429" y="0">2</tspan><tspan font-size="46" x="393.222" y="4">tsc</tspan><tspan font-size="46" x="456.243" y="4">-</tspan><tspan font-size="46" x="476.295" y="4">3</tspan></text><path d="M3213 952 3224.25 907 3331.75 907 3343 952Z" stroke="#FFFFFF" stroke-width="2.29167" stroke-miterlimit="8" fill="url(#fill46)" fill-rule="evenodd"/><rect x="3213" y="952" width="130" height="104" stroke="#FFFFFF" stroke-width="2.29167" stroke-miterlimit="8" fill="url(#fill47)"/><path d="M0 45 11.25 0 118.75 0 130 45Z" stroke="#FFFFFF" stroke-width="2.29167" stroke-miterlimit="8" fill="url(#fill48)" fill-rule="evenodd" transform="matrix(1 0 0 -1 3213 1098)"/><path d="M3253 999.5C3253 985.417 3264.19 974 3278 974 3291.81 974 3303 985.417 3303 999.5 3303 1013.58 3291.81 1025 3278 1025 3264.19 1025 3253 1013.58 3253 999.5Z" fill="url(#fill49)" fill-rule="evenodd"/><path d="M3239.18 999.5 3239.95 991.633 3242.26 984.219 3245.82 977.581 3250.52 971.826 3256.19 967.023 3262.81 963.324 3270.19 960.962 3277.99 960.182 3285.86 960.96 3293.25 963.324 3299.87 967.023 3305.54 971.826 3310.24 977.581 3313.84 984.292 3316.06 991.715 3316.82 999.5 3316.06 1007.28 3313.84 1014.71 3310.27 1021.37 3305.54 1027.25 3299.81 1032.01 3293.25 1035.68 3285.86 1038.04 3277.99 1038.82 3270.19 1038.04 3262.81 1035.68 3256.25 1032.01 3250.52 1027.25 3245.8 1021.37 3242.26 1014.78 3239.95 1007.37ZM3256.21 1004.08 3257.55 1008.37 3259.62 1012.23 3262.35 1015.62 3265.62 1018.35 3269.41 1020.46 3273.56 1021.79 3278 1022.24 3282.5 1021.79 3286.65 1020.46 3290.44 1018.35 3293.72 1015.62 3296.45 1012.23 3298.51 1008.38 3299.79 1004.09 3300.24 999.5 3299.79 994.907 3298.51 990.616 3296.45 986.784 3293.72 983.435 3290.43 980.645 3286.65 978.535 3282.5 977.208 3278 976.763 3273.56 977.207 3269.41 978.535 3265.64 980.645 3262.35 983.435 3259.61 986.784 3257.55 990.631 3256.21 994.923 3255.76 999.5ZM3261.29 999.5 3261.63 996.02 3262.64 992.768 3264.21 989.851 3266.29 987.304 3268.79 985.186 3271.61 983.605 3274.69 982.622 3278.01 982.29 3281.38 982.624 3284.45 983.605 3287.28 985.186 3289.78 987.304 3291.86 989.851 3293.4 992.724 3294.37 995.971 3294.71 999.5 3294.37 1003.03 3293.4 1006.28 3291.84 1009.18 3289.78 1011.75 3287.31 1013.79 3284.45 1015.39 3281.38 1016.38 3278.01 1016.71 3274.69 1016.38 3271.61 1015.39 3268.75 1013.79 3266.29 1011.75 3264.22 1009.18 3262.64 1006.23 3261.63 1002.98ZM3267.05 1001.88 3267.74 1004.09 3268.83 1006.13 3270.23 1007.87 3271.87 1009.24 3273.82 1010.32 3275.81 1010.96 3278.01 1011.18 3280.26 1010.96 3282.25 1010.32 3284.19 1009.24 3285.84 1007.87 3287.23 1006.13 3288.29 1004.17 3288.94 1001.96 3289.18 999.5 3288.94 997.035 3288.29 994.833 3287.26 992.918 3285.84 991.174 3284.13 989.727 3282.25 988.675 3280.26 988.04 3278.01 987.818 3275.81 988.037 3273.82 988.675 3271.93 989.727 3270.23 991.174 3268.8 992.918 3267.74 994.905 3267.05 997.117 3266.82 999.5Z" fill="#FF0000"/><path d="M3.29625-0.975257 9.53043 20.0955 2.93793 22.046-3.29625 0.975257ZM18.1188 12.7748 12.7359 43.0458-8.25117 20.5768Z" fill="#FF0000" transform="matrix(1 0 0 -1 3272.5 1019.55)"/><path d="M3410 954 3421.25 909 3528.75 909 3540 954Z" stroke="#FFFFFF" stroke-width="2.29167" stroke-miterlimit="8" fill="url(#fill50)" fill-rule="evenodd"/><rect x="3410" y="954" width="130" height="103" stroke="#FFFFFF" stroke-width="2.29167" stroke-miterlimit="8" fill="url(#fill51)"/><path d="M0 46.0001 11.5 0 118.5 0 130 46.0001Z" stroke="#FFFFFF" stroke-width="2.29167" stroke-miterlimit="8" fill="url(#fill52)" fill-rule="evenodd" transform="matrix(1 0 0 -1 3410 1100)"/><path d="M3450 1001C3450 987.193 3461.19 976 3475 976 3488.81 976 3500 987.193 3500 1001 3500 1014.81 3488.81 1026 3475 1026 3461.19 1026 3450 1014.81 3450 1001Z" fill="url(#fill53)" fill-rule="evenodd"/><path d="M3436.18 1000.99 3436.96 993.19 3439.3 985.883 3442.88 979.311 3447.61 973.611 3453.31 968.877 3459.88 965.3 3467.19 962.962 3474.99 962.182 3482.86 962.96 3490.18 965.3 3496.75 968.877 3502.45 973.611 3507.19 979.311 3510.8 985.957 3513.05 993.273 3513.82 1000.99 3513.05 1008.78 3510.8 1016.11 3507.19 1022.75 3502.45 1028.45 3496.75 1033.19 3490.1 1036.8 3482.78 1039.05 3474.99 1039.82 3467.27 1039.05 3459.96 1036.8 3453.31 1033.19 3447.61 1028.45 3442.88 1022.75 3439.3 1016.18 3436.96 1008.86ZM3453.21 1005.5 3454.54 1009.66 3456.6 1013.45 3459.33 1016.73 3462.61 1019.46 3466.38 1021.51 3470.54 1022.79 3475 1023.24 3479.52 1022.79 3483.68 1021.51 3487.45 1019.46 3490.73 1016.73 3493.46 1013.45 3495.51 1009.68 3496.79 1005.52 3497.24 1001 3496.79 996.545 3495.51 992.383 3493.46 988.613 3490.73 985.328 3487.45 982.6 3483.66 980.54 3479.5 979.208 3475 978.763 3470.56 979.207 3466.4 980.54 3462.61 982.6 3459.33 985.328 3456.6 988.613 3454.54 992.398 3453.21 996.562 3452.76 1001ZM3458.29 1001 3458.62 997.686 3459.62 994.57 3461.17 991.713 3463.23 989.233 3465.71 987.174 3468.57 985.62 3471.69 984.622 3475 984.291 3478.38 984.624 3481.49 985.62 3484.35 987.174 3486.83 989.233 3488.89 991.713 3490.42 994.526 3491.37 997.636 3491.71 1001 3491.37 1004.43 3490.42 1007.54 3488.89 1010.35 3486.83 1012.83 3484.35 1014.89 3481.54 1016.42 3478.43 1017.37 3475 1017.71 3471.64 1017.37 3468.53 1016.42 3465.71 1014.89 3463.23 1012.83 3461.17 1010.35 3459.62 1007.49 3458.62 1004.38ZM3464.04 1003.26 3464.7 1005.32 3465.75 1007.25 3467.14 1008.92 3468.81 1010.31 3470.67 1011.32 3472.73 1011.95 3475.01 1012.18 3477.34 1011.95 3479.39 1011.32 3481.25 1010.31 3482.92 1008.92 3484.31 1007.25 3485.32 1005.39 3485.95 1003.34 3486.18 1001.01 3485.95 998.726 3485.32 996.668 3484.31 994.814 3482.92 993.139 3481.25 991.748 3479.32 990.699 3477.26 990.04 3475.01 989.818 3472.81 990.037 3470.74 990.699 3468.81 991.748 3467.14 993.139 3465.75 994.814 3464.7 996.742 3464.04 998.81 3463.82 1001.01Z" fill="#FF0000"/><path d="M2.1975-0.650171 8.43168 20.4206 4.03668 21.721-2.1975 0.650171ZM18.1188 12.7748 12.7359 43.0458-8.25117 20.5768Z" fill="#FF0000" transform="matrix(1 0 0 -1 3469.5 1020.55)"/><path d="M3608 952 3619.25 907 3726.75 907 3738 952Z" stroke="#FFFFFF" stroke-width="2.29167" stroke-miterlimit="8" fill="url(#fill54)" fill-rule="evenodd"/><rect x="3608" y="952" width="130" height="104" stroke="#FFFFFF" stroke-width="2.29167" stroke-miterlimit="8" fill="url(#fill55)"/><path d="M0 45 11.25 0 118.75 0 130 45Z" stroke="#FFFFFF" stroke-width="2.29167" stroke-miterlimit="8" fill="url(#fill56)" fill-rule="evenodd" transform="matrix(1 0 0 -1 3608 1098)"/><path d="M3648 999.5C3648 985.417 3659.19 974 3673 974 3686.81 974 3698 985.417 3698 999.5 3698 1013.58 3686.81 1025 3673 1025 3659.19 1025 3648 1013.58 3648 999.5Z" fill="url(#fill57)" fill-rule="evenodd"/><path d="M3634.18 999.5 3634.95 991.633 3637.26 984.219 3640.82 977.581 3645.52 971.826 3651.19 967.023 3657.81 963.324 3665.19 960.962 3672.99 960.182 3680.86 960.96 3688.25 963.324 3694.87 967.023 3700.54 971.826 3705.24 977.581 3708.84 984.292 3711.06 991.715 3711.81 999.5 3711.06 1007.28 3708.84 1014.71 3705.27 1021.37 3700.54 1027.25 3694.81 1032.01 3688.25 1035.68 3680.86 1038.04 3672.99 1038.82 3665.19 1038.04 3657.81 1035.68 3651.25 1032.01 3645.52 1027.25 3640.8 1021.37 3637.26 1014.78 3634.95 1007.37ZM3651.21 1004.08 3652.55 1008.37 3654.62 1012.23 3657.34 1015.62 3660.62 1018.35 3664.41 1020.46 3668.56 1021.79 3673 1022.24 3677.5 1021.79 3681.65 1020.46 3685.44 1018.35 3688.72 1015.62 3691.45 1012.23 3693.51 1008.38 3694.79 1004.09 3695.24 999.5 3694.79 994.907 3693.51 990.616 3691.45 986.784 3688.72 983.435 3685.43 980.645 3681.65 978.535 3677.5 977.208 3673 976.763 3668.56 977.207 3664.41 978.535 3660.64 980.645 3657.35 983.435 3654.61 986.784 3652.55 990.631 3651.21 994.923 3650.76 999.5ZM3656.29 999.5 3656.63 996.02 3657.64 992.768 3659.21 989.851 3661.29 987.304 3663.79 985.186 3666.61 983.605 3669.69 982.622 3673 982.29 3676.38 982.624 3679.45 983.605 3682.28 985.186 3684.78 987.304 3686.86 989.851 3688.4 992.724 3689.37 995.971 3689.71 999.5 3689.37 1003.03 3688.4 1006.28 3686.84 1009.18 3684.78 1011.75 3682.31 1013.79 3679.45 1015.39 3676.38 1016.38 3673 1016.71 3669.69 1016.38 3666.61 1015.39 3663.75 1013.79 3661.29 1011.75 3659.22 1009.18 3657.64 1006.23 3656.63 1002.98ZM3662.05 1001.88 3662.74 1004.09 3663.83 1006.13 3665.23 1007.87 3666.87 1009.24 3668.82 1010.32 3670.81 1010.96 3673.01 1011.18 3675.26 1010.96 3677.25 1010.32 3679.19 1009.24 3680.84 1007.87 3682.23 1006.13 3683.29 1004.17 3683.94 1001.96 3684.18 999.5 3683.94 997.035 3683.29 994.833 3682.26 992.918 3680.84 991.174 3679.13 989.727 3677.25 988.675 3675.26 988.04 3673.01 987.818 3670.81 988.037 3668.82 988.675 3666.93 989.727 3665.23 991.174 3663.8 992.918 3662.74 994.905 3662.05 997.117 3661.81 999.5Z" fill="#FF0000"/><path d="M2.1975-0.650171 8.43168 20.4206 4.03668 21.721-2.1975 0.650171ZM18.1188 12.7748 12.7359 43.0458-8.25117 20.5768Z" fill="#FF0000" transform="matrix(1 0 0 -1 3666.5 1019.55)"/><text font-family="Yu Gothic,Yu Gothic_MSFontService,sans-serif" font-weight="400" font-size="46" transform="matrix(1 0 0 1 3219.43 1139)">tsc<tspan font-size="46" x="63.021" y="0">-</tspan><tspan font-size="46" x="83.073" y="0">4</tspan><tspan font-size="46" x="200.94" y="0">tsc</tspan><tspan font-size="46" x="263.961" y="0">-</tspan><tspan font-size="46" x="284.013" y="0">5</tspan><tspan font-size="46" x="404.93" y="2">tsc</tspan><tspan font-size="46" x="467.951" y="2">-</tspan><tspan font-size="46" x="488.003" y="2">6</tspan><tspan font-size="46" x="589.294" y="4">tsc</tspan><tspan font-size="46" x="652.315" y="4">-</tspan><tspan font-size="46" x="672.367" y="4">7</tspan></text><path d="M3805 949 3816.25 904 3923.75 904 3935 949Z" stroke="#FFFFFF" stroke-width="2.29167" stroke-miterlimit="8" fill="url(#fill58)" fill-rule="evenodd"/><rect x="3805" y="949" width="130" height="104" stroke="#FFFFFF" stroke-width="2.29167" stroke-miterlimit="8" fill="url(#fill59)"/><path d="M0 44.9997 11.2499 0 118.75 0 130 44.9997Z" stroke="#FFFFFF" stroke-width="2.29167" stroke-miterlimit="8" fill="url(#fill60)" fill-rule="evenodd" transform="matrix(1 0 0 -1 3805 1095)"/><path d="M3845 997C3845 983.193 3856.19 972 3870 972 3883.81 972 3895 983.193 3895 997 3895 1010.81 3883.81 1022 3870 1022 3856.19 1022 3845 1010.81 3845 997Z" fill="url(#fill61)" fill-rule="evenodd"/><path d="M3831.18 996.992 3831.96 989.19 3834.3 981.883 3837.88 975.311 3842.61 969.611 3848.31 964.877 3854.88 961.301 3862.19 958.963 3869.99 958.182 3877.86 958.96 3885.18 961.301 3891.75 964.877 3897.45 969.611 3902.19 975.311 3905.8 981.957 3908.05 989.274 3908.82 996.992 3908.05 1004.78 3905.8 1012.11 3902.19 1018.75 3897.45 1024.45 3891.75 1029.19 3885.1 1032.8 3877.78 1035.05 3869.99 1035.82 3862.27 1035.05 3854.96 1032.8 3848.31 1029.19 3842.61 1024.45 3837.88 1018.75 3834.3 1012.18 3831.96 1004.86ZM3848.21 1001.5 3849.54 1005.66 3851.6 1009.45 3854.33 1012.73 3857.61 1015.46 3861.38 1017.51 3865.54 1018.79 3870 1019.24 3874.52 1018.79 3878.68 1017.51 3882.45 1015.46 3885.73 1012.73 3888.46 1009.45 3890.51 1005.68 3891.79 1001.52 3892.24 997.002 3891.79 992.545 3890.51 988.384 3888.46 984.613 3885.73 981.328 3882.45 978.6 3878.66 976.54 3874.5 975.208 3870 974.764 3865.56 975.208 3861.4 976.54 3857.61 978.6 3854.33 981.328 3851.6 984.613 3849.54 988.398 3848.21 992.562 3847.76 997.002ZM3853.29 997.005 3853.62 993.686 3854.62 990.57 3856.17 987.714 3858.23 985.234 3860.71 983.174 3863.57 981.62 3866.69 980.623 3870 980.291 3873.38 980.624 3876.49 981.62 3879.35 983.174 3881.83 985.234 3883.89 987.714 3885.42 990.526 3886.37 993.636 3886.71 997.005 3886.37 1000.43 3885.42 1003.54 3883.89 1006.35 3881.83 1008.83 3879.35 1010.89 3876.54 1012.42 3873.43 1013.37 3870 1013.71 3866.64 1013.37 3863.53 1012.42 3860.71 1010.89 3858.23 1008.83 3856.17 1006.35 3854.62 1003.49 3853.62 1000.38ZM3859.04 999.26 3859.7 1001.32 3860.75 1003.25 3862.14 1004.92 3863.81 1006.31 3865.67 1007.32 3867.73 1007.95 3870.01 1008.18 3872.34 1007.95 3874.39 1007.32 3876.25 1006.31 3877.92 1004.92 3879.31 1003.25 3880.32 1001.39 3880.95 999.344 3881.18 997.009 3880.95 994.727 3880.32 992.668 3879.31 990.814 3877.92 989.139 3876.25 987.748 3874.32 986.7 3872.26 986.04 3870.01 985.818 3867.81 986.038 3865.74 986.7 3863.81 987.748 3862.14 989.139 3860.75 990.814 3859.7 992.742 3859.04 994.81 3858.82 997.009Z" fill="#FF0000"/><path d="M2.1975-0.650171 8.43168 20.4206 4.03668 21.721-2.1975 0.650171ZM18.1188 12.7748 12.7359 43.0458-8.25117 20.5768Z" fill="#FF0000" transform="matrix(1 0 0 -1 3864.5 1016.55)"/><rect x="1798.5" y="384.5" width="2375" height="929" stroke="#2F528F" stroke-width="1.14583" stroke-miterlimit="8" fill="none"/><g clip-path="url(#clip62)"><g clip-path="url(#clip63)"><g clip-path="url(#clip64)"><path d="M2.35156 38.2547C9.93344 10.8394 38.3043-5.23881 65.7196 2.34307 83.1703 7.16917 96.8052 20.804 101.631 38.2547L91.809 38.2547C84.2217 16.2545 60.2362 4.57056 38.2359 12.1579 25.9875 16.3821 16.3633 26.0063 12.1391 38.2547ZM91.6241 66.3521C83.6972 88.2391 59.5282 99.5559 37.6412 91.6289 25.883 87.3703 16.623 78.1103 12.3645 66.3521L2.52489 66.3521C10.4448 93.6717 39.012 109.398 66.3316 101.478 83.2865 96.5632 96.5428 83.307 101.458 66.3521Z" fill="url(#fill65)" transform="matrix(1.00961 0 0 1 4038 406)"/><path d="M55.6979 75.9259 43.3334 48.129 38.1334 57.1134 6.31512 57.1134C3.72723 57.1134 1.62934 55.0155 1.62934 52.4276 1.62934 49.8398 3.72723 47.7419 6.31512 47.7419L32.7369 47.7418 44.437 27.5196 57.9108 57.8299 65.8668 47.6436 97.7024 47.713C100.29 47.713 102.388 49.8109 102.388 52.3988 102.388 54.9866 100.29 57.0845 97.7024 57.0845L97.7024 57.0845 70.4543 57.021Z" fill="#50E6FF" transform="matrix(1.00961 0 0 1 4038 406)"/></g></g></g><rect x="1877.5" y="874.5" width="2161" height="293" stroke="#2F528F" stroke-width="1.14583" stroke-miterlimit="8" fill="none"/><rect x="1877.5" y="535.5" width="2161" height="292" stroke="#2F528F" stroke-width="1.14583" stroke-miterlimit="8" fill="none"/><path d="M0 0 189.485 150.656" stroke="#4472C4" stroke-width="2.29167" stroke-miterlimit="8" fill="none" fill-rule="evenodd" transform="matrix(-1 0 0 1 2687.48 758)"/><path d="M2687 758 2695.85 900.846" stroke="#4472C4" stroke-width="2.29167" stroke-miterlimit="8" fill="none" fill-rule="evenodd"/><path d="M2687 758 2892.57 909.217" stroke="#4472C4" stroke-width="2.29167" stroke-miterlimit="8" fill="none" fill-rule="evenodd"/><path d="M0 0 340.945 150.945" stroke="#4472C4" stroke-width="2.29167" stroke-miterlimit="8" fill="none" fill-rule="evenodd" transform="matrix(-1 0 0 1 3618.95 756)"/><path d="M0 0 143.562 152.731" stroke="#4472C4" stroke-width="2.29167" stroke-miterlimit="8" fill="none" fill-rule="evenodd" transform="matrix(-1 0 0 1 3618.56 756)"/><path d="M3619 756 3672.83 906.945" stroke="#4472C4" stroke-width="2.29167" stroke-miterlimit="8" fill="none" fill-rule="evenodd"/><path d="M3619 756 3870.21 904.076" stroke="#4472C4" stroke-width="2.29167" stroke-miterlimit="8" fill="none" fill-rule="evenodd"/><rect x="203.5" y="384.5" width="1315" height="929" stroke="#2F528F" stroke-width="1.14583" stroke-miterlimit="8" fill="none"/><text font-family="Yu Gothic,Yu Gothic_MSFontService,sans-serif" font-weight="400" font-size="46" transform="matrix(1 0 0 1 315.176 468)">Real World</text><path d="M1483.5 800.25 1488.97 800.25 1488.97 887.75 1483.5 887.75ZM1494.44 800.25 1505.38 800.25 1505.38 887.75 1494.44 887.75ZM1510.84 800.25 1749 800.25 1749 756.5 1836.5 844 1749 931.5 1749 887.75 1510.84 887.75Z" stroke="#2F528F" stroke-width="4.58333" stroke-miterlimit="8" stroke-opacity="0.501961" fill="#4472C4" fill-rule="evenodd" fill-opacity="0.501961"/></g></svg>