<svg width="3467" height="834" xmlns="http://www.w3.org/2000/svg" xmlns:xlink="http://www.w3.org/1999/xlink" overflow="hidden"><defs><clipPath id="clip0"><rect x="150" y="1095" width="3467" height="834"/></clipPath><clipPath id="clip1"><rect x="2163" y="1358" width="179" height="179"/></clipPath><clipPath id="clip2"><rect x="2163" y="1358" width="179" height="179"/></clipPath><clipPath id="clip3"><rect x="2163" y="1358" width="179" height="179"/></clipPath><linearGradient x1="2253.3" y1="1491.31" x2="2253.3" y2="1404.79" gradientUnits="userSpaceOnUse" spreadMethod="pad" id="fill4"><stop offset="0" stop-color="#198AB3"/><stop offset="0.4" stop-color="#25AED3"/><stop offset="0.78" stop-color="#2FCAEC"/><stop offset="1" stop-color="#32D4F5"/></linearGradient><clipPath id="clip5"><rect x="2671" y="1358" width="180" height="179"/></clipPath><clipPath id="clip6"><rect x="2671" y="1358" width="180" height="179"/></clipPath><clipPath id="clip7"><rect x="2671" y="1358" width="180" height="179"/></clipPath><linearGradient x1="2760.99" y1="1359.8" x2="2760.99" y2="1536.2" gradientUnits="userSpaceOnUse" spreadMethod="pad" id="fill8"><stop offset="0" stop-color="#B3B2B3"/><stop offset="0.216" stop-color="#AFAEAF"/><stop offset="0.44" stop-color="#A2A2A2"/><stop offset="0.577" stop-color="#979797"/><stop offset="1" stop-color="#979797"/></linearGradient><clipPath id="clip9"><rect x="2417" y="1655" width="179" height="178"/></clipPath><clipPath id="clip10"><rect x="2417" y="1655" width="179" height="178"/></clipPath><clipPath id="clip11"><rect x="2417" y="1655" width="179" height="178"/></clipPath><linearGradient x1="88.9998" y1="156.541" x2="88.9998" y2="57.2566" gradientUnits="userSpaceOnUse" spreadMethod="pad" id="fill12"><stop offset="0" stop-color="#B3B3B3"/><stop offset="0.26" stop-color="#C1C1C1"/><stop offset="1" stop-color="#E6E6E6"/></linearGradient><clipPath id="clip13"><rect x="1336" y="1364" width="178" height="179"/></clipPath><clipPath id="clip14"><rect x="1336" y="1364" width="178" height="179"/></clipPath><clipPath id="clip15"><rect x="1336" y="1364" width="178" height="179"/></clipPath><linearGradient x1="90.2854" y1="186.01" x2="87.5165" y2="-80.0999" gradientUnits="userSpaceOnUse" spreadMethod="pad" id="fill16"><stop offset="0" stop-color="#198AB3"/><stop offset="0" stop-color="#198AB3"/><stop offset="0.09" stop-color="#22A5CB"/><stop offset="0.19" stop-color="#29BADE"/><stop offset="0.29" stop-color="#2EC9EB"/><stop offset="0.42" stop-color="#31D1F3"/><stop offset="0.62" stop-color="#32D4F5"/><stop offset="1" stop-color="#32D4F5"/></linearGradient><linearGradient x1="714" y1="1164" x2="714" y2="1209" gradientUnits="userSpaceOnUse" spreadMethod="reflect" id="fill17"><stop offset="0" stop-color="#D2D2D2"/><stop offset="0.5" stop-color="#C8C8C8"/><stop offset="1" stop-color="#C0C0C0"/></linearGradient><linearGradient x1="714" y1="1209" x2="714" y2="1313" gradientUnits="userSpaceOnUse" spreadMethod="reflect" id="fill18"><stop offset="0" stop-color="#D2D2D2"/><stop offset="0.5" stop-color="#C8C8C8"/><stop offset="1" stop-color="#C0C0C0"/></linearGradient><linearGradient x1="65" y1="0" x2="65" y2="45" gradientUnits="userSpaceOnUse" spreadMethod="reflect" id="fill19"><stop offset="0" stop-color="#D2D2D2"/><stop offset="0.5" stop-color="#C8C8C8"/><stop offset="1" stop-color="#C0C0C0"/></linearGradient><linearGradient x1="714" y1="1232" x2="714" y2="1282" gradientUnits="userSpaceOnUse" spreadMethod="reflect" id="fill20"><stop offset="0" stop-color="#D2D2D2"/><stop offset="0.5" stop-color="#C8C8C8"/><stop offset="1" stop-color="#C0C0C0"/></linearGradient></defs><g clip-path="url(#clip0)" transform="translate(-150 -1095)"><rect x="150.5" y="1095.5" width="3466" height="833" stroke="#2F528F" stroke-width="1.14583" stroke-miterlimit="8" fill="none"/><g clip-path="url(#clip1)"><g clip-path="url(#clip2)"><g clip-path="url(#clip3)"><path d="M2292.46 1404.79C2294.7 1404.79 2296.51 1406.6 2296.51 1408.84L2296.51 1487.26C2296.51 1489.5 2294.7 1491.31 2292.46 1491.31L2214.04 1491.31C2211.8 1491.31 2209.98 1489.5 2209.98 1487.26L2209.98 1408.84C2209.98 1406.6 2211.8 1404.79 2214.04 1404.79Z" fill="url(#fill4)"/><path d="M2280.49 1479.45 2323.8 1449.09C2324.41 1448.71 2324.59 1447.92 2324.21 1447.31 2324.1 1447.15 2323.97 1447.01 2323.8 1446.91L2280.49 1416.65C2279.93 1416.21 2279.12 1416.31 2278.69 1416.87 2278.49 1417.12 2278.4 1417.43 2278.41 1417.74L2278.41 1435.14 2209.98 1435.14 2209.98 1460.86 2278.41 1460.86 2278.41 1478.36C2278.47 1479.12 2279.14 1479.69 2279.9 1479.63 2280.11 1479.61 2280.31 1479.55 2280.49 1479.45Z" fill="#C3F1FF"/><path d="M2332.11 1533.04 2173.89 1533.04C2171.05 1533.04 2168.75 1530.74 2168.75 1527.9L2168.75 1368.1C2168.75 1365.26 2171.05 1362.96 2173.89 1362.96L2332.11 1362.96C2334.95 1362.96 2337.25 1365.26 2337.25 1368.1L2337.25 1418.33C2337.3 1419.75 2336.18 1420.94 2334.76 1420.98 2334.2 1421 2333.65 1420.83 2333.2 1420.51L2323.31 1413.59C2322.62 1413.08 2322.21 1412.27 2322.22 1411.41L2322.22 1378.78 2184.37 1378.78 2184.37 1517.22 2321.63 1517.22 2321.63 1485.58C2321.64 1484.75 2322.04 1483.98 2322.72 1483.5L2332.61 1476.28C2333.76 1475.46 2335.37 1475.74 2336.19 1476.9 2336.51 1477.35 2336.68 1477.9 2336.66 1478.46L2336.66 1527.9C2336.68 1530.53 2334.72 1532.74 2332.11 1533.04Z" fill="#949494"/><path d="M2321.63 1378.78 2321.63 1410.92C2321.62 1411.77 2322.03 1412.58 2322.72 1413.09L2332.61 1420.01C2333.57 1421.05 2335.2 1421.11 2336.24 1420.14 2336.74 1419.67 2337.04 1419.02 2337.06 1418.33L2337.06 1378.78Z" fill="#767676"/><path d="M2321.63 1517.22 2321.63 1485.08C2321.62 1484.25 2322.03 1483.47 2322.72 1483.01L2332.61 1475.99C2333.87 1475.22 2335.51 1475.62 2336.27 1476.88 2336.51 1477.27 2336.64 1477.71 2336.66 1478.16L2336.66 1517.72Z" fill="#767676"/></g></g></g><g clip-path="url(#clip5)"><g clip-path="url(#clip6)"><g clip-path="url(#clip7)"><path d="M2676.02 1424.47C2689 1377.55 2737.56 1350.03 2784.48 1363.01 2814.35 1371.27 2837.69 1394.61 2845.95 1424.47L2829.13 1424.47C2816.15 1386.82 2775.1 1366.82 2737.44 1379.81 2716.48 1387.04 2700.01 1403.51 2692.78 1424.47ZM2828.82 1472.56C2815.25 1510.02 2773.88 1529.39 2736.42 1515.83 2716.3 1508.54 2700.45 1492.69 2693.16 1472.56L2676.32 1472.56C2689.88 1519.32 2738.77 1546.24 2785.53 1532.68 2814.55 1524.27 2837.24 1501.58 2845.65 1472.56Z" fill="url(#fill8)"/><path d="M2767.33 1488.95 2746.17 1441.37 2737.27 1456.75 2682.81 1456.75C2678.38 1456.75 2674.79 1453.16 2674.79 1448.73 2674.79 1444.3 2678.38 1440.71 2682.81 1440.71L2728.03 1440.71 2748.06 1406.1 2771.12 1457.98 2784.73 1440.54 2839.22 1440.66C2843.65 1440.66 2847.24 1444.25 2847.24 1448.68 2847.24 1453.11 2843.65 1456.7 2839.22 1456.7L2839.22 1456.7 2792.59 1456.59Z" fill="#50E6FF"/></g></g></g><g clip-path="url(#clip9)"><g clip-path="url(#clip10)"><g clip-path="url(#clip11)"><path d="M4.94444 57.2566 173.055 57.2566 173.055 57.2566 173.055 151.003C173.055 154.116 170.532 156.64 167.419 156.64L10.5811 156.64C7.46805 156.64 4.94444 154.116 4.94444 151.003L4.94444 57.2566 4.94444 57.2566Z" fill="url(#fill12)" transform="matrix(1 0 0 1 2418 1655)"/><path d="M10.5811 21.4589 167.419 21.4589C170.532 21.4589 173.055 23.9825 173.055 27.0955L173.055 57.2566 173.055 57.2566 4.94444 57.2566 4.94444 57.2566 4.94444 26.9966C4.99838 23.9223 7.50627 21.4584 10.5811 21.4589Z" fill="#37C2B1" transform="matrix(1 0 0 1 2418 1655)"/><path d="M27.7877 68.1343 150.113 68.1343C151.549 68.1875 152.685 69.3675 152.684 70.8043L152.684 84.6488C152.685 86.0856 151.549 87.2655 150.113 87.3187L27.7877 87.3187C26.3519 87.2655 25.2156 86.0856 25.2166 84.6487L25.2166 70.8043C25.2156 69.3675 26.3519 68.1875 27.7877 68.1343Z" fill="#FFFFFF" transform="matrix(1 0 0 1 2418 1655)"/><path d="M27.8866 95.7243 150.212 95.7243C151.648 95.7775 152.784 96.9575 152.783 98.3943L152.783 112.338C152.784 113.774 151.648 114.954 150.212 115.008L27.8866 115.008C26.4508 114.954 25.3145 113.774 25.3155 112.338L25.3155 98.8887C25.0422 97.4397 25.9952 96.0434 27.4443 95.77 27.5902 95.7425 27.7382 95.7272 27.8866 95.7243Z" fill="#37C2B1" transform="matrix(1 0 0 1 2418 1655)"/><path d="M27.8866 123.611 150.212 123.611C151.648 123.664 152.784 124.844 152.783 126.281L152.783 140.224C152.784 141.661 151.648 142.841 150.212 142.894L27.8866 142.894C26.4508 142.841 25.3145 141.661 25.3155 140.224L25.3155 126.281C25.3145 124.844 26.4508 123.664 27.8866 123.611Z" fill="#258277" transform="matrix(1 0 0 1 2418 1655)"/></g></g></g><path d="M0.0177584-2.2916 645.237 2.70844 645.202 7.29164-0.0177584 2.2916ZM619.011-13.2248 649.764 5.03525 618.732 22.8165C617.634 23.4457 616.233 23.0656 615.604 21.9674 614.975 20.8693 615.355 19.469 616.453 18.8397L644.076 3.01163 644.046 6.9705 616.671-9.28379C615.583-9.92997 615.224-11.336 615.87-12.4243 616.517-13.5126 617.923-13.8709 619.011-13.2248Z" fill="#4472C4" transform="matrix(1 0 0 -1 1514.5 1453.54)"/><path d="M2255.29 1536.07 2417.06 1739.6 2413.47 1742.46 2251.71 1538.93ZM2412.98 1709.19 2418.1 1744.59 2384.77 1731.62C2383.59 1731.16 2383.01 1729.83 2383.46 1728.65 2383.92 1727.47 2385.25 1726.89 2386.43 1727.35L2416.1 1738.9 2413 1741.36 2408.45 1709.85C2408.27 1708.6 2409.14 1707.43 2410.39 1707.25 2411.64 1707.07 2412.8 1707.94 2412.98 1709.19Z" fill="#4472C4"/><path d="M1.79402-1.42592 152.128 187.717 148.54 190.569-1.79402 1.42592ZM158.246 177 164.593 207.083 136.718 194.111Z" fill="#4472C4" transform="matrix(-1 0 0 1 2761.09 1537.5)"/><text font-family="Yu Gothic,Yu Gothic_MSFontService,sans-serif" font-weight="400" font-size="55" transform="matrix(1 0 0 1 2309.31 1591)">階層モデルに従い<tspan font-size="55" x="0" y="66">データ保存・取出し</tspan><tspan font-size="37" x="104.719" y="267">Blob Storage</tspan><tspan font-size="37" x="318.941" y="-248">TSI Environment</tspan><tspan font-size="37" x="-209.918" y="-259">TSI Event Source</tspan></text><g clip-path="url(#clip13)"><g clip-path="url(#clip14)"><g clip-path="url(#clip15)"><path d="M132.214 83.4621C132.214 94.2212 123.492 102.943 112.733 102.943 101.974 102.943 93.2521 94.2212 93.2521 83.4621 93.2521 72.703 101.974 63.981 112.733 63.981 123.492 63.981 132.214 72.703 132.214 83.4621Z" fill="#FFFFFF" transform="matrix(1 0 0 1 1336 1364)"/><path d="M160.694 141.411C160.694 149.876 153.832 156.739 145.366 156.739 136.901 156.739 130.039 149.876 130.039 141.411 130.039 132.946 136.901 126.083 145.366 126.083 153.832 126.083 160.694 132.946 160.694 141.411Z" fill="#FFFFFF" transform="matrix(1 0 0 1 1336 1364)"/><path d="M97.8998 130.929C97.8998 138.192 92.0114 144.081 84.7476 144.081 77.4839 144.081 71.5954 138.192 71.5954 130.929 71.5954 123.665 77.4839 117.776 84.7476 117.776 92.0114 117.776 97.8998 123.665 97.8998 130.929Z" fill="#FFFFFF" transform="matrix(1 0 0 1 1336 1364)"/><path d="M91.571 30.7544C91.571 39.7658 84.2657 47.071 75.2543 47.071 66.2429 47.071 58.9377 39.7658 58.9377 30.7544 58.9377 21.743 66.2429 14.4377 75.2543 14.4377 84.2657 14.4377 91.571 21.743 91.571 30.7544Z" fill="#FFFFFF" transform="matrix(1 0 0 1 1336 1364)"/><path d="M44.6977 90.8787C44.6977 98.1425 38.8093 104.031 31.5455 104.031 24.2817 104.031 18.3933 98.1425 18.3933 90.8787 18.3933 83.615 24.2817 77.7265 31.5455 77.7265 38.8093 77.7265 44.6977 83.615 44.6977 90.8787Z" fill="#FFFFFF" transform="matrix(1 0 0 1 1336 1364)"/><path d="M148.926 138.345 115.996 80.6932 112.733 82.5721 115.403 80.5943 78.1221 27.59 71.2988 32.5344 104.328 79.5065 31.1499 85.5387 31.8422 94.0432 104.328 88.011 80.2976 127.962 87.5165 132.313 112.239 91.1754 141.609 142.499 148.926 138.345Z" fill="#949494" transform="matrix(1 0 0 1 1336 1364)"/><path d="M173.352 12.1633 173.352 12.1633C173.352 8.17644 170.12 4.94444 166.133 4.94444L128.555 4.94444C126.589 4.94444 124.995 6.5383 124.995 8.50443L124.995 22.4477C124.995 24.4139 126.589 26.0077 128.555 26.0077L151.794 26.0077 151.794 48.7521C151.846 50.751 153.454 52.3591 155.453 52.411L169.298 52.411C171.296 52.3591 172.904 50.751 172.956 48.7521L172.956 12.1633Z" fill="#949494" transform="matrix(1 0 0 1 1336 1364)"/><path d="M49.4444 151.992 25.81 151.992 25.81 129.248C25.758 127.249 24.1499 125.641 22.1511 125.589L8.30665 125.589C6.30782 125.641 4.69971 127.249 4.64777 129.248L4.64777 165.836 4.64777 165.836C4.70186 169.785 7.91807 172.957 11.8666 172.956L49.4444 172.956C51.4105 172.956 53.0044 171.363 53.0044 169.396L53.0044 155.552C53.0044 153.586 51.4105 151.992 49.4444 151.992Z" fill="#949494" transform="matrix(1 0 0 1 1336 1364)"/><path d="M112.733 64.1788C123.656 64.1822 132.508 73.0398 132.505 83.9627 132.501 94.8856 123.644 103.738 112.721 103.734 101.798 103.731 92.9458 94.8733 92.9492 83.9503 92.9493 83.7876 92.9513 83.6248 92.9554 83.4621 93.2237 72.7327 102 64.1754 112.733 64.1788ZM59.3332 30.7544C59.2812 39.8203 66.5885 47.2118 75.6544 47.2638 84.7203 47.3158 92.1118 40.0085 92.1637 30.9426 92.2157 21.8768 84.9085 14.4852 75.8426 14.4333 75.6795 14.4323 75.5163 14.4338 75.3532 14.4378 66.4578 14.5995 59.3318 21.8576 59.3332 30.7544ZM18.3933 90.7798C18.3933 98.0436 24.2817 103.932 31.5455 103.932 38.8093 103.932 44.6977 98.0436 44.6977 90.7798 44.6977 83.5161 38.8093 77.6276 31.5455 77.6276 24.2817 77.6276 18.3933 83.5161 18.3933 90.7798ZM71.5954 130.83C71.5408 138.148 77.4291 144.125 84.7473 144.179 92.0654 144.234 98.0423 138.346 98.0969 131.028 98.1515 123.709 92.2632 117.733 84.945 117.678 84.9122 117.678 84.8794 117.678 84.8465 117.678 77.583 117.623 71.6504 123.467 71.5958 130.731 71.5955 130.764 71.5954 130.797 71.5954 130.83ZM130.138 141.411C130.083 149.876 136.901 156.783 145.366 156.837 153.831 156.892 160.738 150.074 160.792 141.609 160.847 133.144 154.029 126.237 145.564 126.182 145.531 126.182 145.498 126.182 145.465 126.182 137.11 126.073 130.248 132.757 130.139 141.113 130.137 141.212 130.137 141.311 130.138 141.411Z" fill="url(#fill16)" transform="matrix(1 0 0 1 1336 1364)"/></g></g></g><rect x="230.5" y="1294.5" width="500" height="318" stroke="#4472C4" stroke-width="4.58333" stroke-miterlimit="8" fill="#FFFFFF"/><text font-family="Yu Gothic,Yu Gothic_MSFontService,sans-serif" font-weight="400" font-size="46" transform="matrix(1 0 0 1 360.199 1412)">Device<tspan font-size="46" x="156.979" y="0">App</tspan><tspan font-size="46" x="-37.2396" y="55">（</tspan><tspan font-size="46" x="8.59375" y="55">Simulator on </tspan><tspan font-size="46" x="0.847931" y="110">Windows</tspan>）</text><path d="M730.5 1451.21 1332.17 1451.21 1332.17 1455.79 730.5 1455.79ZM1305.82 1435.48 1336.72 1453.5 1305.82 1471.52C1304.73 1472.16 1303.33 1471.79 1302.69 1470.7 1302.05 1469.6 1302.42 1468.2 1303.52 1467.56L1331.02 1451.52 1331.02 1455.48 1303.52 1439.44C1302.42 1438.8 1302.05 1437.4 1302.69 1436.3 1303.33 1435.21 1304.73 1434.84 1305.82 1435.48Z" fill="#4472C4"/><text font-family="Yu Gothic,Yu Gothic_MSFontService,sans-serif" font-weight="400" font-size="37" transform="matrix(1 0 0 1 1338.92 1601)">IoT Hub</text><path d="M649 1209 660.25 1164 767.75 1164 779 1209Z" stroke="#FFFFFF" stroke-width="2.29167" stroke-miterlimit="8" fill="url(#fill17)" fill-rule="evenodd"/><rect x="649" y="1209" width="130" height="104" stroke="#FFFFFF" stroke-width="2.29167" stroke-miterlimit="8" fill="url(#fill18)"/><path d="M0 45 11.25 0 118.75 0 130 45Z" stroke="#FFFFFF" stroke-width="2.29167" stroke-miterlimit="8" fill="url(#fill19)" fill-rule="evenodd" transform="matrix(1 0 0 -1 649 1355)"/><path d="M689 1257C689 1243.19 700.193 1232 714 1232 727.807 1232 739 1243.19 739 1257 739 1270.81 727.807 1282 714 1282 700.193 1282 689 1270.81 689 1257Z" fill="url(#fill20)" fill-rule="evenodd"/><path d="M675.182 1256.99 675.962 1249.19 678.3 1241.88 681.877 1235.31 686.611 1229.61 692.311 1224.88 698.883 1221.3 706.19 1218.96 713.991 1218.18 721.865 1218.96 729.179 1221.3 735.751 1224.88 741.452 1229.61 746.186 1235.31 749.802 1241.96 752.046 1249.27 752.818 1256.99 752.048 1264.78 749.802 1272.11 746.186 1278.75 741.452 1284.45 735.751 1289.19 729.105 1292.8 721.781 1295.05 713.991 1295.82 706.273 1295.05 698.957 1292.8 692.311 1289.19 686.611 1284.45 681.877 1278.75 678.3 1272.18 675.96 1264.86ZM692.208 1261.5 693.54 1265.66 695.6 1269.45 698.328 1272.73 701.613 1275.46 705.383 1277.51 709.545 1278.79 714.002 1279.24 718.519 1278.79 722.679 1277.51 726.45 1275.46 729.734 1272.73 732.463 1269.45 734.514 1265.68 735.79 1261.52 736.236 1257 735.791 1252.55 734.514 1248.38 732.463 1244.61 729.734 1241.33 726.45 1238.6 722.664 1236.54 718.502 1235.21 714.002 1234.76 709.562 1235.21 705.398 1236.54 701.613 1238.6 698.328 1241.33 695.6 1244.61 693.54 1248.4 692.207 1252.56 691.763 1257ZM697.291 1257.01 697.622 1253.69 698.62 1250.57 700.174 1247.71 702.233 1245.23 704.713 1243.17 707.57 1241.62 710.686 1240.62 714.005 1240.29 717.381 1240.62 720.492 1241.62 723.349 1243.17 725.829 1245.23 727.888 1247.71 729.419 1250.53 730.372 1253.64 730.709 1257.01 730.371 1260.43 729.419 1263.54 727.888 1266.35 725.829 1268.83 723.349 1270.89 720.537 1272.42 717.431 1273.37 714.005 1273.71 710.636 1273.37 707.526 1272.42 704.713 1270.89 702.233 1268.83 700.174 1266.35 698.62 1263.49 697.624 1260.38ZM703.04 1259.26 703.699 1261.32 704.748 1263.25 706.139 1264.92 707.814 1266.31 709.668 1267.32 711.726 1267.95 714.008 1268.18 716.344 1267.95 718.395 1267.32 720.248 1266.31 721.923 1264.92 723.314 1263.25 724.323 1261.39 724.951 1259.34 725.182 1257.01 724.954 1254.73 724.323 1252.67 723.314 1250.81 721.923 1249.14 720.248 1247.75 718.32 1246.7 716.26 1246.04 714.008 1245.82 711.81 1246.04 709.742 1246.7 707.814 1247.75 706.139 1249.14 704.748 1250.81 703.699 1252.74 703.037 1254.81 702.818 1257.01Z" fill="#FF0000"/><path d="M2.1975-0.650171 8.43168 20.4206 4.03668 21.721-2.1975 0.650171ZM18.1188 12.7748 12.7359 43.0458-8.25117 20.5768Z" fill="#FF0000" transform="matrix(1 0 0 -1 707.5 1276.55)"/><rect x="480" y="1645" width="984" height="200" fill="#FFFFFF"/><text fill="#161616" font-family="Arial,Arial_MSFontService,sans-serif" font-weight="400" font-size="46" transform="matrix(1 0 0 1 512.938 1707)">{ "deviceid": "thermostatic<tspan font-size="46" x="517.344" y="0">-</tspan>chamber-1", <tspan font-size="46" x="0" y="55">"temperature": 30.009999991281315, </tspan><tspan font-size="46" x="0" y="110">"timestamp": "2021/09/28T10:21:02.895Z" }</tspan><tspan font-size="46" x="-274.388" y="-118">thermostatic</tspan><tspan font-size="46" x="-25.7417" y="-118">-</tspan><tspan font-size="46" x="-10.273" y="-118">chamber</tspan><tspan font-size="46" x="167.331" y="-118">-</tspan>1</text><rect x="1256.5" y="1288.5" width="372" height="330" stroke="#2F528F" stroke-width="1.14583" stroke-miterlimit="8" fill="none"/><path d="M1589.88 1393.5C1593.4 1393.5 1596.25 1382.08 1596.25 1368 1596.25 1353.92 1593.4 1342.5 1589.88 1342.5L1691.12 1342.5C1694.65 1342.5 1697.5 1353.92 1697.5 1368 1697.5 1382.08 1694.65 1393.5 1691.12 1393.5Z" fill="#4472C4" fill-rule="evenodd" fill-opacity="0.560784"/><path d="M1589.88 1393.5C1586.35 1393.5 1583.5 1382.08 1583.5 1368 1583.5 1353.92 1586.35 1342.5 1589.88 1342.5 1593.4 1342.5 1596.25 1353.92 1596.25 1368 1596.25 1382.08 1593.4 1393.5 1589.88 1393.5Z" fill="#8FAADC" fill-rule="evenodd" fill-opacity="0.560784"/><path d="M1589.88 1342.5C1593.4 1342.5 1596.25 1353.92 1596.25 1368 1596.25 1382.08 1593.4 1393.5 1589.88 1393.5 1586.35 1393.5 1583.5 1382.08 1583.5 1368 1583.5 1353.92 1586.35 1342.5 1589.88 1342.5L1691.12 1342.5C1694.65 1342.5 1697.5 1353.92 1697.5 1368 1697.5 1382.08 1694.65 1393.5 1691.12 1393.5L1589.88 1393.5" stroke="#2F528F" stroke-width="4.58333" stroke-miterlimit="8" fill="none" fill-rule="evenodd"/><path d="M1589.88 1476.5C1593.4 1476.5 1596.25 1465.08 1596.25 1451 1596.25 1436.92 1593.4 1425.5 1589.88 1425.5L1691.12 1425.5C1694.65 1425.5 1697.5 1436.92 1697.5 1451 1697.5 1465.08 1694.65 1476.5 1691.12 1476.5Z" fill="#4472C4" fill-rule="evenodd" fill-opacity="0.560784"/><path d="M1589.88 1476.5C1586.35 1476.5 1583.5 1465.08 1583.5 1451 1583.5 1436.92 1586.35 1425.5 1589.88 1425.5 1593.4 1425.5 1596.25 1436.92 1596.25 1451 1596.25 1465.08 1593.4 1476.5 1589.88 1476.5Z" fill="#8FAADC" fill-rule="evenodd" fill-opacity="0.560784"/><path d="M1589.88 1425.5C1593.4 1425.5 1596.25 1436.92 1596.25 1451 1596.25 1465.08 1593.4 1476.5 1589.88 1476.5 1586.35 1476.5 1583.5 1465.08 1583.5 1451 1583.5 1436.92 1586.35 1425.5 1589.88 1425.5L1691.12 1425.5C1694.65 1425.5 1697.5 1436.92 1697.5 1451 1697.5 1465.08 1694.65 1476.5 1691.12 1476.5L1589.88 1476.5" stroke="#2F528F" stroke-width="4.58333" stroke-miterlimit="8" fill="none" fill-rule="evenodd"/><path d="M1588.88 1558.5C1592.4 1558.5 1595.25 1547.08 1595.25 1533 1595.25 1518.92 1592.4 1507.5 1588.88 1507.5L1690.12 1507.5C1693.65 1507.5 1696.5 1518.92 1696.5 1533 1696.5 1547.08 1693.65 1558.5 1690.12 1558.5Z" fill="#4472C4" fill-rule="evenodd" fill-opacity="0.560784"/><path d="M1588.88 1558.5C1585.35 1558.5 1582.5 1547.08 1582.5 1533 1582.5 1518.92 1585.35 1507.5 1588.88 1507.5 1592.4 1507.5 1595.25 1518.92 1595.25 1533 1595.25 1547.08 1592.4 1558.5 1588.88 1558.5Z" fill="#8FAADC" fill-rule="evenodd" fill-opacity="0.560784"/><path d="M1588.88 1507.5C1592.4 1507.5 1595.25 1518.92 1595.25 1533 1595.25 1547.08 1592.4 1558.5 1588.88 1558.5 1585.35 1558.5 1582.5 1547.08 1582.5 1533 1582.5 1518.92 1585.35 1507.5 1588.88 1507.5L1690.12 1507.5C1693.65 1507.5 1696.5 1518.92 1696.5 1533 1696.5 1547.08 1693.65 1558.5 1690.12 1558.5L1588.88 1558.5" stroke="#2F528F" stroke-width="4.58333" stroke-miterlimit="8" fill="none" fill-rule="evenodd"/><text fill="#161616" font-family="Arial,Arial_MSFontService,sans-serif" font-weight="400" font-size="37" transform="matrix(1 0 0 1 1574.07 1383)">$Default</text><rect x="1537.5" y="1164.5" width="266" height="415" stroke="#4472C4" stroke-width="4.58333" stroke-miterlimit="8" stroke-dasharray="13.75 4.58333" fill="none"/><text font-family="Yu Gothic,Yu Gothic_MSFontService,sans-serif" font-weight="400" font-size="37" transform="matrix(1 0 0 1 1583.36 1215)">Consumer <tspan font-size="37" x="34.9479" y="44">Group</tspan><tspan fill="#161616" font-family="Arial,Arial_MSFontService,sans-serif" font-size="37" x="41.3637" y="253">tsi</tspan></text><path d="M1150.5 1232.17C1150.5 1181.54 1191.54 1140.5 1242.17 1140.5L2339.83 1140.5C2390.46 1140.5 2431.5 1181.54 2431.5 1232.17L2431.5 1598.83C2431.5 1649.46 2390.46 1690.5 2339.83 1690.5L1242.17 1690.5C1191.54 1690.5 1150.5 1649.46 1150.5 1598.83Z" stroke="#FF0000" stroke-width="1.14583" stroke-miterlimit="8" fill="none" fill-rule="evenodd"/></g></svg>