<svg width="3464" height="1141" xmlns="http://www.w3.org/2000/svg" xmlns:xlink="http://www.w3.org/1999/xlink" overflow="hidden"><defs><clipPath id="clip0"><rect x="219" y="216" width="3464" height="1141"/></clipPath><linearGradient x1="785" y1="564" x2="785" y2="609" gradientUnits="userSpaceOnUse" spreadMethod="reflect" id="fill1"><stop offset="0" stop-color="#D2D2D2"/><stop offset="0.5" stop-color="#C8C8C8"/><stop offset="1" stop-color="#C0C0C0"/></linearGradient><linearGradient x1="785" y1="609" x2="785" y2="712" gradientUnits="userSpaceOnUse" spreadMethod="reflect" id="fill2"><stop offset="0" stop-color="#D2D2D2"/><stop offset="0.5" stop-color="#C8C8C8"/><stop offset="1" stop-color="#C0C0C0"/></linearGradient><linearGradient x1="65" y1="0" x2="65" y2="44.9997" gradientUnits="userSpaceOnUse" spreadMethod="reflect" id="fill3"><stop offset="0" stop-color="#D2D2D2"/><stop offset="0.5" stop-color="#C8C8C8"/><stop offset="1" stop-color="#C0C0C0"/></linearGradient><linearGradient x1="785" y1="631" x2="785" y2="681" gradientUnits="userSpaceOnUse" spreadMethod="reflect" id="fill4"><stop offset="0" stop-color="#D2D2D2"/><stop offset="0.5" stop-color="#C8C8C8"/><stop offset="1" stop-color="#C0C0C0"/></linearGradient><linearGradient x1="983" y1="569" x2="983" y2="614" gradientUnits="userSpaceOnUse" spreadMethod="reflect" id="fill5"><stop offset="0" stop-color="#D2D2D2"/><stop offset="0.5" stop-color="#C8C8C8"/><stop offset="1" stop-color="#C0C0C0"/></linearGradient><linearGradient x1="983" y1="614" x2="983" y2="717" gradientUnits="userSpaceOnUse" spreadMethod="reflect" id="fill6"><stop offset="0" stop-color="#D2D2D2"/><stop offset="0.5" stop-color="#C8C8C8"/><stop offset="1" stop-color="#C0C0C0"/></linearGradient><linearGradient x1="65" y1="0" x2="65" y2="45" gradientUnits="userSpaceOnUse" spreadMethod="reflect" id="fill7"><stop offset="0" stop-color="#D2D2D2"/><stop offset="0.5" stop-color="#C8C8C8"/><stop offset="1" stop-color="#C0C0C0"/></linearGradient><linearGradient x1="983" y1="636" x2="983" y2="686" gradientUnits="userSpaceOnUse" spreadMethod="reflect" id="fill8"><stop offset="0" stop-color="#D2D2D2"/><stop offset="0.5" stop-color="#C8C8C8"/><stop offset="1" stop-color="#C0C0C0"/></linearGradient><linearGradient x1="1180" y1="574" x2="1180" y2="619" gradientUnits="userSpaceOnUse" spreadMethod="reflect" id="fill9"><stop offset="0" stop-color="#D2D2D2"/><stop offset="0.5" stop-color="#C8C8C8"/><stop offset="1" stop-color="#C0C0C0"/></linearGradient><linearGradient x1="1180" y1="619" x2="1180" y2="723" gradientUnits="userSpaceOnUse" spreadMethod="reflect" id="fill10"><stop offset="0" stop-color="#D2D2D2"/><stop offset="0.5" stop-color="#C8C8C8"/><stop offset="1" stop-color="#C0C0C0"/></linearGradient><linearGradient x1="65" y1="0" x2="65" y2="44.9997" gradientUnits="userSpaceOnUse" spreadMethod="reflect" id="fill11"><stop offset="0" stop-color="#D2D2D2"/><stop offset="0.5" stop-color="#C8C8C8"/><stop offset="1" stop-color="#C0C0C0"/></linearGradient><linearGradient x1="1180" y1="642" x2="1180" y2="692" gradientUnits="userSpaceOnUse" spreadMethod="reflect" id="fill12"><stop offset="0" stop-color="#D2D2D2"/><stop offset="0.5" stop-color="#C8C8C8"/><stop offset="1" stop-color="#C0C0C0"/></linearGradient><linearGradient x1="785" y1="933" x2="785" y2="978" gradientUnits="userSpaceOnUse" spreadMethod="reflect" id="fill13"><stop offset="0" stop-color="#D2D2D2"/><stop offset="0.5" stop-color="#C8C8C8"/><stop offset="1" stop-color="#C0C0C0"/></linearGradient><linearGradient x1="785" y1="978" x2="785" y2="1081" gradientUnits="userSpaceOnUse" spreadMethod="reflect" id="fill14"><stop offset="0" stop-color="#D2D2D2"/><stop offset="0.5" stop-color="#C8C8C8"/><stop offset="1" stop-color="#C0C0C0"/></linearGradient><linearGradient x1="65" y1="0" x2="65" y2="45" gradientUnits="userSpaceOnUse" spreadMethod="reflect" id="fill15"><stop offset="0" stop-color="#D2D2D2"/><stop offset="0.5" stop-color="#C8C8C8"/><stop offset="1" stop-color="#C0C0C0"/></linearGradient><linearGradient x1="785" y1="1000" x2="785" y2="1050" gradientUnits="userSpaceOnUse" spreadMethod="reflect" id="fill16"><stop offset="0" stop-color="#D2D2D2"/><stop offset="0.5" stop-color="#C8C8C8"/><stop offset="1" stop-color="#C0C0C0"/></linearGradient><linearGradient x1="983" y1="938" x2="983" y2="983" gradientUnits="userSpaceOnUse" spreadMethod="reflect" id="fill17"><stop offset="0" stop-color="#D2D2D2"/><stop offset="0.5" stop-color="#C8C8C8"/><stop offset="1" stop-color="#C0C0C0"/></linearGradient><linearGradient x1="983" y1="983" x2="983" y2="1087" gradientUnits="userSpaceOnUse" spreadMethod="reflect" id="fill18"><stop offset="0" stop-color="#D2D2D2"/><stop offset="0.5" stop-color="#C8C8C8"/><stop offset="1" stop-color="#C0C0C0"/></linearGradient><linearGradient x1="65" y1="0" x2="65" y2="45" gradientUnits="userSpaceOnUse" spreadMethod="reflect" id="fill19"><stop offset="0" stop-color="#D2D2D2"/><stop offset="0.5" stop-color="#C8C8C8"/><stop offset="1" stop-color="#C0C0C0"/></linearGradient><linearGradient x1="983" y1="1006" x2="983" y2="1056" gradientUnits="userSpaceOnUse" spreadMethod="reflect" id="fill20"><stop offset="0" stop-color="#D2D2D2"/><stop offset="0.5" stop-color="#C8C8C8"/><stop offset="1" stop-color="#C0C0C0"/></linearGradient><linearGradient x1="879" y1="625" x2="879" y2="713" gradientUnits="userSpaceOnUse" spreadMethod="reflect" id="fill21"><stop offset="0" stop-color="#A8B7DF"/><stop offset="0.5" stop-color="#9AABD9"/><stop offset="1" stop-color="#879ED7"/></linearGradient><linearGradient x1="1083.5" y1="625" x2="1083.5" y2="714" gradientUnits="userSpaceOnUse" spreadMethod="reflect" id="fill22"><stop offset="0" stop-color="#A8B7DF"/><stop offset="0.5" stop-color="#9AABD9"/><stop offset="1" stop-color="#879ED7"/></linearGradient><linearGradient x1="875.5" y1="993" x2="875.5" y2="1081" gradientUnits="userSpaceOnUse" spreadMethod="reflect" id="fill23"><stop offset="0" stop-color="#A8B7DF"/><stop offset="0.5" stop-color="#9AABD9"/><stop offset="1" stop-color="#879ED7"/></linearGradient><linearGradient x1="1185" y1="905" x2="1185" y2="935" gradientUnits="userSpaceOnUse" spreadMethod="reflect" id="fill24"><stop offset="0" stop-color="#D2D2D2"/><stop offset="0.5" stop-color="#C8C8C8"/><stop offset="1" stop-color="#C0C0C0"/></linearGradient><linearGradient x1="1185" y1="935" x2="1185" y2="1003" gradientUnits="userSpaceOnUse" spreadMethod="reflect" id="fill25"><stop offset="0" stop-color="#D2D2D2"/><stop offset="0.5" stop-color="#C8C8C8"/><stop offset="1" stop-color="#C0C0C0"/></linearGradient><linearGradient x1="43" y1="0" x2="43" y2="29.9999" gradientUnits="userSpaceOnUse" spreadMethod="reflect" id="fill26"><stop offset="0" stop-color="#D2D2D2"/><stop offset="0.5" stop-color="#C8C8C8"/><stop offset="1" stop-color="#C0C0C0"/></linearGradient><linearGradient x1="1184.5" y1="949" x2="1184.5" y2="982" gradientUnits="userSpaceOnUse" spreadMethod="reflect" id="fill27"><stop offset="0" stop-color="#D2D2D2"/><stop offset="0.5" stop-color="#C8C8C8"/><stop offset="1" stop-color="#C0C0C0"/></linearGradient><linearGradient x1="1182" y1="1061" x2="1182" y2="1090" gradientUnits="userSpaceOnUse" spreadMethod="reflect" id="fill28"><stop offset="0" stop-color="#D2D2D2"/><stop offset="0.5" stop-color="#C8C8C8"/><stop offset="1" stop-color="#C0C0C0"/></linearGradient><linearGradient x1="1182" y1="1090" x2="1182" y2="1158" gradientUnits="userSpaceOnUse" spreadMethod="reflect" id="fill29"><stop offset="0" stop-color="#D2D2D2"/><stop offset="0.5" stop-color="#C8C8C8"/><stop offset="1" stop-color="#C0C0C0"/></linearGradient><linearGradient x1="43.0001" y1="0" x2="43.0001" y2="28.9999" gradientUnits="userSpaceOnUse" spreadMethod="reflect" id="fill30"><stop offset="0" stop-color="#D2D2D2"/><stop offset="0.5" stop-color="#C8C8C8"/><stop offset="1" stop-color="#C0C0C0"/></linearGradient><linearGradient x1="1182.5" y1="1105" x2="1182.5" y2="1138" gradientUnits="userSpaceOnUse" spreadMethod="reflect" id="fill31"><stop offset="0" stop-color="#D2D2D2"/><stop offset="0.5" stop-color="#C8C8C8"/><stop offset="1" stop-color="#C0C0C0"/></linearGradient><linearGradient x1="1083.5" y1="933" x2="1083.5" y2="1021" gradientUnits="userSpaceOnUse" spreadMethod="reflect" id="fill32"><stop offset="0" stop-color="#A8B7DF"/><stop offset="0.5" stop-color="#9AABD9"/><stop offset="1" stop-color="#879ED7"/></linearGradient><linearGradient x1="1084.5" y1="1073" x2="1084.5" y2="1161" gradientUnits="userSpaceOnUse" spreadMethod="reflect" id="fill33"><stop offset="0" stop-color="#A8B7DF"/><stop offset="0.5" stop-color="#9AABD9"/><stop offset="1" stop-color="#879ED7"/></linearGradient><linearGradient x1="1741.5" y1="697" x2="1741.5" y2="872" gradientUnits="userSpaceOnUse" spreadMethod="reflect" id="fill34"><stop offset="0" stop-color="#B1CBE9"/><stop offset="0.5" stop-color="#A3C1E5"/><stop offset="1" stop-color="#92B9E4"/></linearGradient><linearGradient x1="2981" y1="1183" x2="2981" y2="1203" gradientUnits="userSpaceOnUse" spreadMethod="reflect" id="fill35"><stop offset="0" stop-color="#D2D2D2"/><stop offset="0.5" stop-color="#C8C8C8"/><stop offset="1" stop-color="#C0C0C0"/></linearGradient><linearGradient x1="2981" y1="1203" x2="2981" y2="1250" gradientUnits="userSpaceOnUse" spreadMethod="reflect" id="fill36"><stop offset="0" stop-color="#D2D2D2"/><stop offset="0.5" stop-color="#C8C8C8"/><stop offset="1" stop-color="#C0C0C0"/></linearGradient><linearGradient x1="28.9999" y1="0" x2="28.9999" y2="20.0003" gradientUnits="userSpaceOnUse" spreadMethod="reflect" id="fill37"><stop offset="0" stop-color="#D2D2D2"/><stop offset="0.5" stop-color="#C8C8C8"/><stop offset="1" stop-color="#C0C0C0"/></linearGradient><linearGradient x1="2981.5" y1="1213.5" x2="2981.5" y2="1236.5" gradientUnits="userSpaceOnUse" spreadMethod="reflect" id="fill38"><stop offset="0" stop-color="#D2D2D2"/><stop offset="0.5" stop-color="#C8C8C8"/><stop offset="1" stop-color="#C0C0C0"/></linearGradient><linearGradient x1="3569.5" y1="426" x2="3569.5" y2="465" gradientUnits="userSpaceOnUse" spreadMethod="reflect" id="fill39"><stop offset="0" stop-color="#A8B7DF"/><stop offset="0.5" stop-color="#9AABD9"/><stop offset="1" stop-color="#879ED7"/></linearGradient></defs><g clip-path="url(#clip0)" transform="translate(-219 -216)"><path d="M354 628 354 740.35 436.395 740.35 436.395 703.435 477.326 703.435 477.326 740.35 560.252 740.35 560.252 628Z" fill="#7F7F7F" fill-rule="evenodd"/><path d="M385 659 398.2 659 398.2 672.2 385 672.2Z" fill-rule="evenodd"/><path d="M419 659 432.2 659 432.2 672.2 419 672.2Z" fill-rule="evenodd"/><path d="M454 659 466 659 466 672.2 454 672.2Z" fill-rule="evenodd"/><path d="M488 659 501.2 659 501.2 672.2 488 672.2Z" fill-rule="evenodd"/><path d="M523 659 536.2 659 536.2 672.2 523 672.2Z" fill-rule="evenodd"/><path d="M560 627 614.06 627 614.06 741.134 560 741.134Z" fill="#5B5C5E" fill-rule="evenodd"/><path d="M544.231 639.5 561.702 663.426 554.495 666.247 576.501 686.75 569.294 690.173 596.5 724.5 550.363 698.193 559.162 694.542 530.495 677.691 540.767 672.485 510.5 654.808Z" stroke="#BC8C00" stroke-width="4.58333" stroke-miterlimit="8" fill="#FFC000" fill-rule="evenodd" fill-opacity="0.8"/><path d="M720 609 731.25 564 838.75 564 850 609Z" stroke="#FFFFFF" stroke-width="2.29167" stroke-miterlimit="8" fill="url(#fill1)" fill-rule="evenodd"/><rect x="720" y="609" width="130" height="103" stroke="#FFFFFF" stroke-width="2.29167" stroke-miterlimit="8" fill="url(#fill2)"/><path d="M0 44.9997 11.2499 0 118.75 0 130 44.9997Z" stroke="#FFFFFF" stroke-width="2.29167" stroke-miterlimit="8" fill="url(#fill3)" fill-rule="evenodd" transform="matrix(1 0 0 -1 720 754)"/><path d="M760 656C760 642.193 771.193 631 785 631 798.807 631 810 642.193 810 656 810 669.807 798.807 681 785 681 771.193 681 760 669.807 760 656Z" fill="url(#fill4)" fill-rule="evenodd"/><path d="M746.182 655.992 746.963 648.19 749.301 640.883 752.877 634.311 757.611 628.611 763.311 623.877 769.883 620.301 777.19 617.963 784.992 617.182 792.865 617.96 800.179 620.301 806.752 623.877 812.452 628.611 817.186 634.311 820.802 640.957 823.046 648.274 823.818 655.992 823.048 663.781 820.802 671.105 817.186 677.752 812.452 683.452 806.752 688.186 800.105 691.802 792.781 694.049 784.992 694.818 777.274 694.046 769.957 691.802 763.311 688.186 757.611 683.452 752.877 677.752 749.301 671.18 746.96 663.865ZM763.208 660.502 764.54 664.664 766.6 668.45 769.328 671.735 772.613 674.463 776.384 676.515 780.545 677.791 785.002 678.237 789.519 677.79 793.679 676.515 797.45 674.463 800.735 671.735 803.463 668.45 805.515 664.679 806.79 660.519 807.237 656.002 806.791 651.545 805.515 647.384 803.463 643.613 800.735 640.328 797.45 637.6 793.664 635.54 789.502 634.208 785.002 633.764 780.562 634.208 776.398 635.54 772.613 637.6 769.328 640.328 766.6 643.613 764.54 647.398 763.208 651.562 762.764 656.002ZM768.291 656.005 768.623 652.686 769.62 649.57 771.174 646.714 773.234 644.234 775.714 642.174 778.57 640.62 781.686 639.623 785.005 639.291 788.381 639.624 791.492 640.62 794.349 642.174 796.829 644.234 798.889 646.714 800.419 649.526 801.372 652.636 801.709 656.005 801.371 659.432 800.419 662.537 798.889 665.349 796.829 667.829 794.349 669.889 791.537 671.419 788.432 672.371 785.005 672.709 781.636 672.373 778.526 671.419 775.714 669.889 773.234 667.829 771.174 665.349 769.62 662.492 768.624 659.381ZM774.04 658.26 774.7 660.321 775.748 662.249 777.139 663.923 778.814 665.314 780.668 666.323 782.726 666.954 785.008 667.182 787.344 666.952 789.395 666.323 791.248 665.314 792.923 663.923 794.314 662.249 795.323 660.395 795.952 658.344 796.182 656.009 795.954 653.727 795.323 651.668 794.314 649.814 792.923 648.139 791.248 646.748 789.321 645.7 787.26 645.04 785.008 644.818 782.81 645.038 780.742 645.7 778.814 646.748 777.139 648.139 775.748 649.814 774.7 651.742 774.038 653.81 773.818 656.009Z" fill="#FF0000"/><path d="M3.29625-0.975257 9.53043 20.0955 2.93793 22.046-3.29625 0.975257ZM18.1188 12.7748 12.7359 43.0458-8.25117 20.5768Z" fill="#FF0000" transform="matrix(1 0 0 -1 779.5 675.546)"/><path d="M918 614 929.25 569 1036.75 569 1048 614Z" stroke="#FFFFFF" stroke-width="2.29167" stroke-miterlimit="8" fill="url(#fill5)" fill-rule="evenodd"/><rect x="918" y="614" width="130" height="103" stroke="#FFFFFF" stroke-width="2.29167" stroke-miterlimit="8" fill="url(#fill6)"/><path d="M0 45 11.25 0 118.75 0 130 45Z" stroke="#FFFFFF" stroke-width="2.29167" stroke-miterlimit="8" fill="url(#fill7)" fill-rule="evenodd" transform="matrix(1 0 0 -1 918 760)"/><path d="M958 661C958 647.193 969.193 636 983 636 996.807 636 1008 647.193 1008 661 1008 674.807 996.807 686 983 686 969.193 686 958 674.807 958 661Z" fill="url(#fill8)" fill-rule="evenodd"/><path d="M944.182 660.992 944.963 653.19 947.301 645.883 950.877 639.311 955.611 633.611 961.311 628.877 967.883 625.3 975.19 622.962 982.992 622.182 990.865 622.96 998.179 625.3 1004.75 628.877 1010.45 633.611 1015.19 639.311 1018.8 645.957 1021.05 653.274 1021.82 660.992 1021.05 668.781 1018.8 676.105 1015.19 682.752 1010.45 688.452 1004.75 693.186 998.105 696.802 990.781 699.048 982.992 699.818 975.274 699.046 967.957 696.802 961.311 693.186 955.611 688.452 950.877 682.752 947.301 676.179 944.96 668.865ZM961.208 665.502 962.54 669.664 964.6 673.45 967.328 676.735 970.613 679.463 974.384 681.514 978.545 682.791 983.002 683.236 987.519 682.79 991.679 681.514 995.45 679.463 998.735 676.735 1001.46 673.45 1003.51 669.679 1004.79 665.519 1005.24 661.002 1004.79 656.545 1003.51 652.383 1001.46 648.613 998.735 645.328 995.45 642.6 991.664 640.54 987.502 639.208 983.002 638.763 978.562 639.207 974.398 640.54 970.613 642.6 967.328 645.328 964.6 648.613 962.54 652.398 961.208 656.562 960.764 661.002ZM966.291 661.005 966.623 657.686 967.62 654.57 969.174 651.713 971.234 649.234 973.714 647.174 976.57 645.62 979.686 644.622 983.005 644.291 986.381 644.624 989.492 645.62 992.349 647.174 994.829 649.234 996.889 651.713 998.419 654.526 999.372 657.636 999.709 661.005 999.371 664.431 998.419 667.537 996.889 670.349 994.829 672.829 992.349 674.888 989.537 676.419 986.432 677.371 983.005 677.709 979.636 677.372 976.526 676.419 973.714 674.888 971.234 672.829 969.174 670.349 967.62 667.492 966.624 664.381ZM972.04 663.26 972.7 665.321 973.748 667.248 975.139 668.923 976.814 670.314 978.668 671.323 980.726 671.954 983.008 672.182 985.344 671.952 987.395 671.323 989.248 670.314 990.923 668.923 992.314 667.248 993.323 665.395 993.952 663.344 994.182 661.008 993.954 658.726 993.323 656.668 992.314 654.814 990.923 653.139 989.248 651.748 987.321 650.699 985.26 650.04 983.008 649.818 980.81 650.037 978.742 650.699 976.814 651.748 975.139 653.139 973.748 654.814 972.7 656.742 972.038 658.81 971.818 661.008Z" fill="#FF0000"/><path d="M2.1975-0.650171 8.43168 20.4206 4.03668 21.721-2.1975 0.650171ZM18.1188 12.7748 12.7359 43.0458-8.25117 20.5768Z" fill="#FF0000" transform="matrix(1 0 0 -1 976.5 680.546)"/><path d="M1115 619 1126.25 574 1233.75 574 1245 619Z" stroke="#FFFFFF" stroke-width="2.29167" stroke-miterlimit="8" fill="url(#fill9)" fill-rule="evenodd"/><rect x="1115" y="619" width="130" height="104" stroke="#FFFFFF" stroke-width="2.29167" stroke-miterlimit="8" fill="url(#fill10)"/><path d="M0 44.9997 11.2499 0 118.75 0 130 44.9997Z" stroke="#FFFFFF" stroke-width="2.29167" stroke-miterlimit="8" fill="url(#fill11)" fill-rule="evenodd" transform="matrix(1 0 0 -1 1115 765)"/><path d="M1155 667C1155 653.193 1166.19 642 1180 642 1193.81 642 1205 653.193 1205 667 1205 680.807 1193.81 692 1180 692 1166.19 692 1155 680.807 1155 667Z" fill="url(#fill12)" fill-rule="evenodd"/><path d="M1141.18 666.992 1141.96 659.19 1144.3 651.883 1147.88 645.311 1152.61 639.611 1158.31 634.877 1164.88 631.301 1172.19 628.963 1179.99 628.182 1187.86 628.96 1195.18 631.301 1201.75 634.877 1207.45 639.611 1212.19 645.311 1215.8 651.957 1218.05 659.274 1218.82 666.992 1218.05 674.781 1215.8 682.105 1212.19 688.752 1207.45 694.452 1201.75 699.186 1195.11 702.802 1187.78 705.049 1179.99 705.818 1172.27 705.046 1164.96 702.802 1158.31 699.186 1152.61 694.452 1147.88 688.752 1144.3 682.18 1141.96 674.865ZM1158.21 671.502 1159.54 675.664 1161.6 679.45 1164.33 682.735 1167.61 685.463 1171.38 687.515 1175.55 688.791 1180 689.237 1184.52 688.79 1188.68 687.515 1192.45 685.463 1195.73 682.735 1198.46 679.45 1200.51 675.679 1201.79 671.519 1202.24 667.002 1201.79 662.545 1200.51 658.384 1198.46 654.613 1195.73 651.328 1192.45 648.6 1188.66 646.54 1184.5 645.208 1180 644.764 1175.56 645.208 1171.4 646.54 1167.61 648.6 1164.33 651.328 1161.6 654.613 1159.54 658.398 1158.21 662.562 1157.76 667.002ZM1163.29 667.005 1163.62 663.686 1164.62 660.57 1166.17 657.714 1168.23 655.234 1170.71 653.174 1173.57 651.62 1176.69 650.623 1180.01 650.291 1183.38 650.624 1186.49 651.62 1189.35 653.174 1191.83 655.234 1193.89 657.714 1195.42 660.526 1196.37 663.636 1196.71 667.005 1196.37 670.432 1195.42 673.537 1193.89 676.349 1191.83 678.829 1189.35 680.889 1186.54 682.419 1183.43 683.371 1180.01 683.709 1176.64 683.373 1173.53 682.419 1170.71 680.889 1168.23 678.829 1166.17 676.349 1164.62 673.492 1163.62 670.381ZM1169.04 669.26 1169.7 671.321 1170.75 673.249 1172.14 674.923 1173.81 676.314 1175.67 677.323 1177.73 677.954 1180.01 678.182 1182.34 677.952 1184.39 677.323 1186.25 676.314 1187.92 674.923 1189.31 673.249 1190.32 671.395 1190.95 669.344 1191.18 667.009 1190.95 664.727 1190.32 662.668 1189.31 660.814 1187.92 659.139 1186.25 657.748 1184.32 656.7 1182.26 656.04 1180.01 655.818 1177.81 656.038 1175.74 656.7 1173.81 657.748 1172.14 659.139 1170.75 660.814 1169.7 662.742 1169.04 664.81 1168.82 667.009Z" fill="#FF0000"/><path d="M2.1975-0.650171 8.43168 20.4206 4.03668 21.721-2.1975 0.650171ZM18.1188 12.7748 12.7359 43.0458-8.25117 20.5768Z" fill="#FF0000" transform="matrix(1 0 0 -1 1174.5 686.546)"/><text font-family="Yu Gothic,Yu Gothic_MSFontService,sans-serif" font-weight="400" font-size="46" transform="matrix(1 0 0 1 341.448 581)">Plant<tspan font-size="46" x="501.926" y="-65">Equipment</tspan></text><path d="M657.5 518.668C657.5 485.438 684.438 458.5 717.668 458.5L785.667 458.5 785.667 458.5 977.917 458.5 1366.33 458.5C1399.56 458.5 1426.5 485.438 1426.5 518.668L1426.5 669.083 1426.5 669.083 1426.5 759.333 1426.5 759.332C1426.5 792.562 1399.56 819.5 1366.33 819.5L977.917 819.5 785.667 819.5 785.667 819.5 717.668 819.5C684.438 819.5 657.5 792.562 657.5 759.332L657.5 759.333 574.971 680.768 657.5 669.083Z" stroke="#2F528F" stroke-width="4.58333" stroke-miterlimit="8" fill="none" fill-rule="evenodd"/><path d="M1286 659 1372.18 659" stroke="#AFABAB" stroke-width="27.5" stroke-miterlimit="8" stroke-dasharray="27.5 27.5" fill="none" fill-rule="evenodd"/><path d="M354 997 354 1109.35 436.395 1109.35 436.395 1072.44 477.326 1072.44 477.326 1109.35 560.252 1109.35 560.252 997Z" fill="#7F7F7F" fill-rule="evenodd"/><path d="M385 1028 398.2 1028 398.2 1041.2 385 1041.2Z" fill-rule="evenodd"/><path d="M419 1028 432.2 1028 432.2 1041.2 419 1041.2Z" fill-rule="evenodd"/><path d="M454 1028 466 1028 466 1041.2 454 1041.2Z" fill-rule="evenodd"/><path d="M488 1028 501.2 1028 501.2 1041.2 488 1041.2Z" fill-rule="evenodd"/><path d="M523 1028 536.2 1028 536.2 1041.2 523 1041.2Z" fill-rule="evenodd"/><path d="M560 997 614.06 997 614.06 1111.13 560 1111.13Z" fill="#5B5C5E" fill-rule="evenodd"/><path d="M544.231 1008.5 561.702 1032.43 554.495 1035.25 576.501 1055.75 569.294 1059.17 596.5 1093.5 550.363 1067.19 559.162 1063.54 530.495 1046.69 540.767 1041.48 510.5 1023.81Z" stroke="#BC8C00" stroke-width="4.58333" stroke-miterlimit="8" fill="#FFC000" fill-rule="evenodd" fill-opacity="0.8"/><path d="M720 978 731.25 933 838.75 933 850 978Z" stroke="#FFFFFF" stroke-width="2.29167" stroke-miterlimit="8" fill="url(#fill13)" fill-rule="evenodd"/><rect x="720" y="978" width="130" height="103" stroke="#FFFFFF" stroke-width="2.29167" stroke-miterlimit="8" fill="url(#fill14)"/><path d="M0 45 11.25 0 118.75 0 130 45Z" stroke="#FFFFFF" stroke-width="2.29167" stroke-miterlimit="8" fill="url(#fill15)" fill-rule="evenodd" transform="matrix(1 0 0 -1 720 1123)"/><path d="M760 1025C760 1011.19 771.193 1000 785 1000 798.807 1000 810 1011.19 810 1025 810 1038.81 798.807 1050 785 1050 771.193 1050 760 1038.81 760 1025Z" fill="url(#fill16)" fill-rule="evenodd"/><path d="M746.182 1024.99 746.963 1017.19 749.301 1009.88 752.877 1003.31 757.611 997.611 763.311 992.877 769.883 989.3 777.19 986.962 784.992 986.182 792.865 986.96 800.179 989.3 806.752 992.877 812.452 997.611 817.186 1003.31 820.802 1009.96 823.046 1017.27 823.818 1024.99 823.048 1032.78 820.802 1040.11 817.186 1046.75 812.452 1052.45 806.752 1057.19 800.105 1060.8 792.781 1063.05 784.992 1063.82 777.274 1063.05 769.957 1060.8 763.311 1057.19 757.611 1052.45 752.877 1046.75 749.301 1040.18 746.96 1032.86ZM763.208 1029.5 764.54 1033.66 766.6 1037.45 769.328 1040.73 772.613 1043.46 776.384 1045.51 780.545 1046.79 785.002 1047.24 789.519 1046.79 793.679 1045.51 797.45 1043.46 800.735 1040.73 803.463 1037.45 805.515 1033.68 806.79 1029.52 807.237 1025 806.791 1020.55 805.515 1016.38 803.463 1012.61 800.735 1009.33 797.45 1006.6 793.664 1004.54 789.502 1003.21 785.002 1002.76 780.562 1003.21 776.398 1004.54 772.613 1006.6 769.328 1009.33 766.6 1012.61 764.54 1016.4 763.208 1020.56 762.764 1025ZM768.291 1025.01 768.623 1021.69 769.62 1018.57 771.174 1015.71 773.234 1013.23 775.714 1011.17 778.57 1009.62 781.686 1008.62 785.005 1008.29 788.381 1008.62 791.492 1009.62 794.349 1011.17 796.829 1013.23 798.889 1015.71 800.419 1018.53 801.372 1021.64 801.709 1025.01 801.371 1028.43 800.419 1031.54 798.889 1034.35 796.829 1036.83 794.349 1038.89 791.537 1040.42 788.432 1041.37 785.005 1041.71 781.636 1041.37 778.526 1040.42 775.714 1038.89 773.234 1036.83 771.174 1034.35 769.62 1031.49 768.624 1028.38ZM774.04 1027.26 774.7 1029.32 775.748 1031.25 777.139 1032.92 778.814 1034.31 780.668 1035.32 782.726 1035.95 785.008 1036.18 787.344 1035.95 789.395 1035.32 791.248 1034.31 792.923 1032.92 794.314 1031.25 795.323 1029.39 795.952 1027.34 796.182 1025.01 795.954 1022.73 795.323 1020.67 794.314 1018.81 792.923 1017.14 791.248 1015.75 789.321 1014.7 787.26 1014.04 785.008 1013.82 782.81 1014.04 780.742 1014.7 778.814 1015.75 777.139 1017.14 775.748 1018.81 774.7 1020.74 774.038 1022.81 773.818 1025.01Z" fill="#FF0000"/><path d="M2.1975-0.650171 8.43168 20.4206 4.03668 21.721-2.1975 0.650171ZM18.1188 12.7748 12.7359 43.0458-8.25117 20.5768Z" fill="#FF0000" transform="matrix(1 0 0 -1 779.5 1044.55)"/><path d="M918 983 929.25 938 1036.75 938 1048 983Z" stroke="#FFFFFF" stroke-width="2.29167" stroke-miterlimit="8" fill="url(#fill17)" fill-rule="evenodd"/><rect x="918" y="983" width="130" height="104" stroke="#FFFFFF" stroke-width="2.29167" stroke-miterlimit="8" fill="url(#fill18)"/><path d="M0 45 11.25 0 118.75 0 130 45Z" stroke="#FFFFFF" stroke-width="2.29167" stroke-miterlimit="8" fill="url(#fill19)" fill-rule="evenodd" transform="matrix(1 0 0 -1 918 1129)"/><path d="M958 1031C958 1017.19 969.193 1006 983 1006 996.807 1006 1008 1017.19 1008 1031 1008 1044.81 996.807 1056 983 1056 969.193 1056 958 1044.81 958 1031Z" fill="url(#fill20)" fill-rule="evenodd"/><path d="M944.182 1030.99 944.963 1023.19 947.301 1015.88 950.877 1009.31 955.611 1003.61 961.311 998.877 967.883 995.301 975.19 992.963 982.992 992.182 990.865 992.96 998.179 995.301 1004.75 998.877 1010.45 1003.61 1015.19 1009.31 1018.8 1015.96 1021.05 1023.27 1021.82 1030.99 1021.05 1038.78 1018.8 1046.11 1015.19 1052.75 1010.45 1058.45 1004.75 1063.19 998.105 1066.8 990.781 1069.05 982.992 1069.82 975.274 1069.05 967.957 1066.8 961.311 1063.19 955.611 1058.45 950.877 1052.75 947.301 1046.18 944.96 1038.86ZM961.208 1035.5 962.54 1039.66 964.6 1043.45 967.328 1046.73 970.613 1049.46 974.384 1051.51 978.545 1052.79 983.002 1053.24 987.519 1052.79 991.679 1051.51 995.45 1049.46 998.735 1046.73 1001.46 1043.45 1003.51 1039.68 1004.79 1035.52 1005.24 1031 1004.79 1026.55 1003.51 1022.38 1001.46 1018.61 998.735 1015.33 995.45 1012.6 991.664 1010.54 987.502 1009.21 983.002 1008.76 978.562 1009.21 974.398 1010.54 970.613 1012.6 967.328 1015.33 964.6 1018.61 962.54 1022.4 961.208 1026.56 960.764 1031ZM966.291 1031.01 966.623 1027.69 967.62 1024.57 969.174 1021.71 971.234 1019.23 973.714 1017.17 976.57 1015.62 979.686 1014.62 983.005 1014.29 986.381 1014.62 989.492 1015.62 992.349 1017.17 994.829 1019.23 996.889 1021.71 998.419 1024.53 999.372 1027.64 999.709 1031.01 999.371 1034.43 998.419 1037.54 996.889 1040.35 994.829 1042.83 992.349 1044.89 989.537 1046.42 986.432 1047.37 983.005 1047.71 979.636 1047.37 976.526 1046.42 973.714 1044.89 971.234 1042.83 969.174 1040.35 967.62 1037.49 966.624 1034.38ZM972.04 1033.26 972.7 1035.32 973.748 1037.25 975.139 1038.92 976.814 1040.31 978.668 1041.32 980.726 1041.95 983.008 1042.18 985.344 1041.95 987.395 1041.32 989.248 1040.31 990.923 1038.92 992.314 1037.25 993.323 1035.39 993.952 1033.34 994.182 1031.01 993.954 1028.73 993.323 1026.67 992.314 1024.81 990.923 1023.14 989.248 1021.75 987.321 1020.7 985.26 1020.04 983.008 1019.82 980.81 1020.04 978.742 1020.7 976.814 1021.75 975.139 1023.14 973.748 1024.81 972.7 1026.74 972.038 1028.81 971.818 1031.01Z" fill="#FF0000"/><path d="M2.1975-0.650171 8.43168 20.4206 4.03668 21.721-2.1975 0.650171ZM18.1188 12.7748 12.7359 43.0458-8.25117 20.5768Z" fill="#FF0000" transform="matrix(1 0 0 -1 976.5 1050.55)"/><path d="M657.5 929.335C657.5 900.707 680.707 877.5 709.334 877.5L785.667 877.5 785.667 877.5 977.917 877.5 1374.67 877.5C1403.29 877.5 1426.5 900.707 1426.5 929.335L1426.5 1058.92 1426.5 1058.92 1426.5 1136.67 1426.5 1136.67C1426.5 1165.29 1403.29 1188.5 1374.67 1188.5L977.917 1188.5 785.667 1188.5 785.667 1188.5 709.334 1188.5C680.707 1188.5 657.5 1165.29 657.5 1136.67L657.5 1136.67 574.971 1068.98 657.5 1058.92Z" stroke="#2F528F" stroke-width="4.58333" stroke-miterlimit="8" fill="none" fill-rule="evenodd"/><rect x="221.5" y="218.5" width="1419" height="1133" stroke="#2F528F" stroke-width="4.58333" stroke-miterlimit="8" fill="none"/><path d="M839 647 879 647 879 625 919 669 879 713 879 691 839 691Z" stroke="#4472C4" stroke-width="2.29167" stroke-miterlimit="8" fill="url(#fill21)" fill-rule="evenodd"/><path d="M1043 647.25 1083.5 647.25 1083.5 625 1124 669.5 1083.5 714 1083.5 691.75 1043 691.75Z" stroke="#4472C4" stroke-width="2.29167" stroke-miterlimit="8" fill="url(#fill22)" fill-rule="evenodd"/><path d="M835 1015 875.5 1015 875.5 993 916 1037 875.5 1081 875.5 1059 835 1059Z" stroke="#4472C4" stroke-width="2.29167" stroke-miterlimit="8" fill="url(#fill23)" fill-rule="evenodd"/><path d="M1142 935 1149.5 905 1220.5 905 1228 935Z" stroke="#FFFFFF" stroke-width="2.29167" stroke-miterlimit="8" fill="url(#fill24)" fill-rule="evenodd"/><rect x="1142" y="935" width="85.9999" height="68.0001" stroke="#FFFFFF" stroke-width="2.29167" stroke-miterlimit="8" fill="url(#fill25)"/><path d="M0 29.9999 7.49998 0 78.5 0 85.9999 29.9999Z" stroke="#FFFFFF" stroke-width="2.29167" stroke-miterlimit="8" fill="url(#fill26)" fill-rule="evenodd" transform="matrix(1 0 0 -1 1142 1031)"/><path d="M1168 965.5C1168 956.387 1175.39 949 1184.5 949 1193.61 949 1201 956.387 1201 965.5 1201 974.613 1193.61 982 1184.5 982 1175.39 982 1168 974.613 1168 965.5Z" fill="url(#fill27)" fill-rule="evenodd"/><path d="M1154.19 965.5 1154.77 959.374 1156.61 953.715 1159.37 948.549 1163.12 944.119 1167.55 940.37 1172.71 937.615 1178.37 935.767 1184.5 935.189 1190.59 935.763 1196.31 937.596 1201.51 940.37 1206.02 944.186 1209.68 948.642 1212.39 953.715 1214.23 959.373 1214.81 965.5 1214.24 971.586 1212.4 977.312 1209.68 982.421 1205.96 986.957 1201.42 990.68 1196.31 993.405 1190.59 995.237 1184.5 995.811 1178.37 995.233 1172.71 993.385 1167.64 990.68 1163.19 987.024 1159.37 982.513 1156.6 977.312 1154.76 971.586ZM1171.02 968.258 1171.86 970.863 1173.1 973.197 1174.81 975.22 1176.85 976.889 1179.21 978.148 1181.75 978.979 1184.5 979.238 1187.26 978.978 1189.86 978.144 1192.22 976.889 1194.23 975.234 1195.89 973.216 1197.14 970.863 1197.98 968.258 1198.24 965.5 1197.98 962.75 1197.15 960.207 1195.89 957.847 1194.22 955.813 1192.2 954.101 1189.86 952.856 1187.26 952.023 1184.5 951.762 1181.75 952.022 1179.21 952.852 1176.87 954.101 1174.83 955.826 1173.1 957.865 1171.85 960.207 1171.02 962.75 1170.76 965.5ZM1176.29 965.5 1176.44 963.876 1176.93 962.371 1177.68 960.971 1178.73 959.729 1179.97 958.678 1181.37 957.931 1182.88 957.44 1184.5 957.287 1186.15 957.442 1187.71 957.943 1189.09 958.678 1190.29 959.688 1191.29 960.915 1192.07 962.371 1192.56 963.876 1192.71 965.5 1192.56 967.149 1192.06 968.713 1191.29 970.148 1190.33 971.326 1189.15 972.292 1187.71 973.057 1186.15 973.558 1184.5 973.714 1182.88 973.56 1181.37 973.069 1179.91 972.292 1178.69 971.286 1177.68 970.092 1176.94 968.713 1176.44 967.149ZM1181.86 966.039 1182.03 966.563 1182.26 966.987 1182.56 967.351 1182.98 967.695 1183.54 967.99 1184 968.142 1184.5 968.189 1185.04 968.138 1185.56 967.971 1186.08 967.695 1186.42 967.418 1186.7 967.08 1186.97 966.563 1187.14 966.039 1187.19 965.5 1187.14 965.002 1186.99 964.535 1186.7 963.983 1186.35 963.564 1185.99 963.256 1185.56 963.03 1185.04 962.862 1184.5 962.811 1184 962.858 1183.54 963.01 1183.08 963.256 1182.63 963.632 1182.26 964.076 1182.01 964.535 1181.86 965.002 1181.81 965.5Z" fill="#FF0000"/><path d="M2.1975-0.650182 4.07705 5.70236-0.31795 7.00272-2.1975 0.650182ZM13.7642-1.94355 8.38136 28.3275-12.6058 5.85863Z" fill="#FF0000" transform="matrix(1 0 0 -1 1181.5 978.828)"/><path d="M1139 1090 1146.25 1061 1217.75 1061 1225 1090Z" stroke="#FFFFFF" stroke-width="2.29167" stroke-miterlimit="8" fill="url(#fill28)" fill-rule="evenodd"/><rect x="1139" y="1090" width="86.0002" height="68.0001" stroke="#FFFFFF" stroke-width="2.29167" stroke-miterlimit="8" fill="url(#fill29)"/><path d="M0 28.9999 7.24993 0 78.7504 0 86.0003 28.9999Z" stroke="#FFFFFF" stroke-width="2.29167" stroke-miterlimit="8" fill="url(#fill30)" fill-rule="evenodd" transform="matrix(1 0 0 -1 1139 1186)"/><path d="M1166 1121.5C1166 1112.39 1173.39 1105 1182.5 1105 1191.61 1105 1199 1112.39 1199 1121.5 1199 1130.61 1191.61 1138 1182.5 1138 1173.39 1138 1166 1130.61 1166 1121.5Z" fill="url(#fill31)" fill-rule="evenodd"/><path d="M1152.19 1121.5 1152.77 1115.37 1154.61 1109.71 1157.37 1104.55 1161.12 1100.12 1165.55 1096.37 1170.71 1093.61 1176.37 1091.77 1182.5 1091.19 1188.59 1091.76 1194.31 1093.6 1199.51 1096.37 1204.02 1100.19 1207.68 1104.64 1210.39 1109.71 1212.23 1115.37 1212.81 1121.5 1212.24 1127.59 1210.4 1133.31 1207.68 1138.42 1203.96 1142.96 1199.42 1146.68 1194.31 1149.4 1188.59 1151.24 1182.5 1151.81 1176.37 1151.23 1170.71 1149.39 1165.64 1146.68 1161.19 1143.02 1157.37 1138.51 1154.6 1133.31 1152.76 1127.59ZM1169.02 1124.26 1169.86 1126.86 1171.1 1129.2 1172.81 1131.22 1174.85 1132.89 1177.21 1134.15 1179.75 1134.98 1182.5 1135.24 1185.26 1134.98 1187.86 1134.14 1190.22 1132.89 1192.23 1131.23 1193.89 1129.22 1195.14 1126.86 1195.98 1124.26 1196.24 1121.5 1195.98 1118.75 1195.15 1116.21 1193.89 1113.85 1192.22 1111.81 1190.2 1110.1 1187.86 1108.86 1185.26 1108.02 1182.5 1107.76 1179.75 1108.02 1177.21 1108.85 1174.87 1110.1 1172.83 1111.83 1171.1 1113.87 1169.85 1116.21 1169.02 1118.75 1168.76 1121.5ZM1174.29 1121.5 1174.44 1119.88 1174.93 1118.37 1175.68 1116.97 1176.73 1115.73 1177.97 1114.68 1179.37 1113.93 1180.88 1113.44 1182.5 1113.29 1184.15 1113.44 1185.71 1113.94 1187.09 1114.68 1188.29 1115.69 1189.29 1116.91 1190.07 1118.37 1190.56 1119.88 1190.71 1121.5 1190.56 1123.15 1190.06 1124.71 1189.29 1126.15 1188.33 1127.33 1187.15 1128.29 1185.71 1129.06 1184.15 1129.56 1182.5 1129.71 1180.88 1129.56 1179.37 1129.07 1177.91 1128.29 1176.69 1127.29 1175.68 1126.09 1174.94 1124.71 1174.44 1123.15ZM1179.86 1122.04 1180.03 1122.56 1180.26 1122.99 1180.56 1123.35 1180.98 1123.7 1181.54 1123.99 1182 1124.14 1182.5 1124.19 1183.04 1124.14 1183.56 1123.97 1184.08 1123.7 1184.42 1123.42 1184.7 1123.08 1184.97 1122.56 1185.14 1122.04 1185.19 1121.5 1185.14 1121 1184.99 1120.54 1184.7 1119.98 1184.35 1119.56 1183.99 1119.26 1183.56 1119.03 1183.04 1118.86 1182.5 1118.81 1182 1118.86 1181.54 1119.01 1181.08 1119.26 1180.63 1119.63 1180.26 1120.08 1180.01 1120.54 1179.86 1121 1179.81 1121.5Z" fill="#FF0000"/><path d="M2.1975-0.650182 4.07705 5.70236-0.31795 7.00272-2.1975 0.650182ZM13.7642-1.94355 8.38136 28.3275-12.6058 5.85863Z" fill="#FF0000" transform="matrix(1 0 0 -1 1178.5 1134.83)"/><path d="M1043 955 1083.5 955 1083.5 933 1124 977 1083.5 1021 1083.5 999 1043 999Z" stroke="#4472C4" stroke-width="2.29167" stroke-miterlimit="8" fill="url(#fill32)" fill-rule="evenodd"/><path d="M1044 1095 1084.5 1095 1084.5 1073 1125 1117 1084.5 1161 1084.5 1139 1044 1139Z" stroke="#4472C4" stroke-width="2.29167" stroke-miterlimit="8" fill="url(#fill33)" fill-rule="evenodd"/><path d="M1245 969 1331.18 969" stroke="#AFABAB" stroke-width="27.5" stroke-miterlimit="8" stroke-dasharray="27.5 27.5" fill="none" fill-rule="evenodd"/><path d="M456 1186 456.001 1284.65" stroke="#AFABAB" stroke-width="27.5" stroke-miterlimit="8" stroke-dasharray="27.5 27.5" fill="none" fill-rule="evenodd"/><rect x="1884.5" y="986.5" width="373" height="201" stroke="#000000" stroke-width="4.58333" stroke-miterlimit="8" fill="#FFFFFF"/><text font-family="Yu Gothic,Yu Gothic_MSFontService,sans-serif" font-weight="400" font-size="37" transform="matrix(1 0 0 1 2026.19 1037)">Plant<tspan font-family="Arial,Arial_MSFontService,sans-serif" font-size="37" x="-109.129" y="44">•</tspan><tspan font-size="37" x="-47.2542" y="44">Name</tspan><tspan font-family="Arial,Arial_MSFontService,sans-serif" font-size="37" x="-109.129" y="88">•</tspan><tspan font-size="37" x="-47.2542" y="88">Location</tspan></text><rect x="2674.5" y="896.5" width="373" height="381" stroke="#000000" stroke-width="4.58333" stroke-miterlimit="8" fill="#FFFFFF"/><text font-family="Yu Gothic,Yu Gothic_MSFontService,sans-serif" font-weight="400" font-size="37" transform="matrix(1 0 0 1 2768.83 946)">Equipment<tspan font-family="Arial,Arial_MSFontService,sans-serif" font-size="37" x="-62.1502" y="44">•</tspan><tspan font-size="37" x="-0.275147" y="44">Name</tspan><tspan font-family="Arial,Arial_MSFontService,sans-serif" font-size="37" x="-62.1502" y="88">•</tspan><tspan font-size="37" x="-0.275147" y="88">TempAVG</tspan><tspan font-family="Arial,Arial_MSFontService,sans-serif" font-size="37" x="-62.1502" y="132">•</tspan><tspan font-size="37" x="-0.275147" y="132">TempMAX</tspan><tspan font-family="Arial,Arial_MSFontService,sans-serif" font-size="37" x="-62.1502" y="176">•</tspan><tspan font-size="37" x="-0.275147" y="176">TempMIN</tspan><tspan font-family="Arial,Arial_MSFontService,sans-serif" font-size="37" x="-62.1502" y="220">•</tspan><tspan font-size="37" x="-0.275147" y="220">TempSTD</tspan><tspan font-family="Arial,Arial_MSFontService,sans-serif" font-size="37" x="-62.1502" y="264">•</tspan><tspan font-size="37" x="-0.275147" y="264">deviceId</tspan><tspan font-family="Arial,Arial_MSFontService,sans-serif" font-size="37" x="-62.1502" y="308">•</tspan><tspan font-size="37" x="-0.275147" y="308">Status</tspan></text><rect x="2674.5" y="522.5" width="373" height="143" stroke="#000000" stroke-width="4.58333" stroke-miterlimit="8" fill="#FFFFFF"/><text font-family="Yu Gothic,Yu Gothic_MSFontService,sans-serif" font-weight="400" font-size="37" transform="matrix(1 0 0 1 2815.32 605)">Node</text><rect x="3242.5" y="337.5" width="373" height="143" stroke="#000000" stroke-width="4.58333" stroke-miterlimit="8" fill="#FFFFFF"/><text font-family="Yu Gothic,Yu Gothic_MSFontService,sans-serif" font-weight="400" font-size="37" transform="matrix(1 0 0 1 3388.6 420)">Path</text><path d="M3.40211-1.71875 382.938-1.71875 382.938 113.653 379.501 113.653 379.501 0 381.22 1.71875 3.40211 1.71875ZM30.0371 17.5263-0.00796606 0 30.0371-17.5263C30.857-18.0046 31.9095-17.7276 32.3877-16.9077 32.866-16.0878 32.5891-15.0353 31.7692-14.557L4.26915 1.48462 4.26915-1.48462 31.7692 14.557C32.5891 15.0353 32.866 16.0878 32.3877 16.9077 31.9095 17.7276 30.857 18.0046 30.0371 17.5263Z" transform="matrix(1 0 0 -1 3047.5 594.153)"/><path d="M2858.78 518.75 2858.78 406.781 3241.72 406.781 3241.72 410.219 2860.5 410.219 2862.22 408.5 2862.22 518.75ZM2878.03 492.116 2860.5 522.161 2842.97 492.116C2842.5 491.296 2842.77 490.243 2843.59 489.765 2844.41 489.287 2845.46 489.564 2845.94 490.384L2861.98 517.884 2859.02 517.884 2875.06 490.384C2875.54 489.564 2876.59 489.287 2877.41 489.765 2878.23 490.243 2878.5 491.296 2878.03 492.116Z"/><text font-family="Yu Gothic,Yu Gothic_MSFontService,sans-serif" font-weight="400" font-size="37" transform="matrix(1 0 0 1 3083.91 573)">1<tspan font-size="37" x="-267.474" y="-78">1</tspan><tspan font-size="37" x="-5.85352" y="72">successor</tspan><tspan font-size="37" x="-167.228" y="-82">predecessor</tspan><tspan font-size="37" x="-467.29" y="574">*</tspan></text><path d="M2670.49 1089.22 2260.9 1089.22 2260.9 1085.78 2670.49 1085.78ZM2643.85 1069.97 2673.9 1087.5 2643.85 1105.03C2643.03 1105.51 2641.98 1105.23 2641.5 1104.41 2641.02 1103.59 2641.3 1102.54 2642.12 1102.06L2669.62 1086.02 2669.62 1088.99 2642.12 1072.94C2641.3 1072.47 2641.02 1071.41 2641.5 1070.59 2641.98 1069.77 2643.03 1069.5 2643.85 1069.97ZM2287.54 1105.03 2257.49 1087.5 2287.54 1069.97C2288.36 1069.5 2289.41 1069.77 2289.89 1070.59 2290.37 1071.41 2290.09 1072.46 2289.27 1072.94L2261.77 1088.98 2261.77 1086.02 2289.27 1102.06C2290.09 1102.54 2290.37 1103.59 2289.89 1104.41 2289.41 1105.23 2288.36 1105.5 2287.54 1105.03Z"/><text font-family="Yu Gothic,Yu Gothic_MSFontService,sans-serif" font-weight="400" font-size="37" transform="matrix(1 0 0 1 2498.49 1059)">contains<tspan font-size="37" x="-219.789" y="0">1</tspan><tspan font-size="37" x="-232.951" y="88">is_member_of</tspan></text><path d="M1.71876 3.40335 1.71911 231.257-1.71839 231.257-1.71874 3.40335ZM-17.5262 30.0371 1.47437e-08-0.00796606 17.5263 30.0371C18.0046 30.857 17.7277 31.9094 16.9077 32.3877 16.0878 32.866 15.0354 32.5891 14.5571 31.7691L-1.48461 4.26916 1.48463 4.26915-14.557 31.7692C-15.0353 32.5891-16.0877 32.8661-16.9076 32.3878-17.7276 31.9095-18.0045 30.8571-17.5262 30.0371Z" transform="matrix(1 0 0 -1 2860.5 896.757)"/><text font-family="Yu Gothic,Yu Gothic_MSFontService,sans-serif" font-weight="400" font-size="37" transform="matrix(1 0 0 1 2739.86 857)">target<tspan font-size="37" x="153.442" y="0">1</tspan><tspan font-size="37" x="146.305" y="-138">*</tspan></text><rect x="1807.5" y="221.5" width="1873" height="1133" stroke="#2F528F" stroke-width="4.58333" stroke-miterlimit="8" fill="none"/><path d="M1613 740.75 1618.47 740.75 1618.47 828.25 1613 828.25ZM1623.94 740.75 1634.88 740.75 1634.88 828.25 1623.94 828.25ZM1640.34 740.75 1782.5 740.75 1782.5 697 1870 784.5 1782.5 872 1782.5 828.25 1640.34 828.25Z" stroke="#5B9BD5" stroke-width="2.29167" stroke-miterlimit="8" fill="url(#fill34)" fill-rule="evenodd"/><text font-family="Yu Gothic,Yu Gothic_MSFontService,sans-serif" font-weight="400" font-size="46" transform="matrix(1 0 0 1 1902.8 328)">UML <tspan font-size="46" x="116.875" y="0">表記による</tspan><tspan font-size="46" x="359.219" y="0">Twin</tspan><tspan font-size="46" x="474.948" y="0">Model</tspan></text><path d="M2132 1130 2132 1174.1 2168.3 1174.1 2168.3 1159.61 2186.34 1159.61 2186.34 1174.1 2222.87 1174.1 2222.87 1130Z" fill="#7F7F7F" fill-rule="evenodd"/><path d="M2146 1142 2152 1142 2152 1146.8 2146 1146.8Z" fill-rule="evenodd"/><path d="M2161 1142 2167 1142 2167 1146.8 2161 1146.8Z" fill-rule="evenodd"/><path d="M2176 1142 2182 1142 2182 1146.8 2176 1146.8Z" fill-rule="evenodd"/><path d="M2191 1142 2197 1142 2197 1146.8 2191 1146.8Z" fill-rule="evenodd"/><path d="M2206 1142 2212 1142 2212 1146.8 2206 1146.8Z" fill-rule="evenodd"/><path d="M2222 1129 2246.48 1129 2246.48 1174.86 2222 1174.86Z" fill="#5B5C5E" fill-rule="evenodd"/><path d="M2216.01 1134.5 2223.53 1144.07 2220.43 1145.2 2229.9 1153.4 2226.8 1154.77 2238.5 1168.5 2218.65 1157.98 2222.44 1156.52 2210.1 1149.78 2214.52 1147.69 2201.5 1140.62Z" stroke="#BC8C00" stroke-width="4.58333" stroke-miterlimit="8" fill="#FFC000" fill-rule="evenodd" fill-opacity="0.8"/><path d="M2952 1203 2957 1183 3005 1183 3010 1203Z" stroke="#FFFFFF" stroke-width="2.29167" stroke-miterlimit="8" fill="url(#fill35)" fill-rule="evenodd"/><rect x="2952" y="1203" width="57.9998" height="46.9998" stroke="#FFFFFF" stroke-width="2.29167" stroke-miterlimit="8" fill="url(#fill36)"/><path d="M0 20.0003 5.00007 0 52.9997 0 57.9997 20.0003Z" stroke="#FFFFFF" stroke-width="2.29167" stroke-miterlimit="8" fill="url(#fill37)" fill-rule="evenodd" transform="matrix(1 0 0 -1 2952 1269)"/><path d="M2970.5 1225C2970.5 1218.65 2975.42 1213.5 2981.5 1213.5 2987.57 1213.5 2992.5 1218.65 2992.5 1225 2992.5 1231.35 2987.57 1236.5 2981.5 1236.5 2975.42 1236.5 2970.5 1231.35 2970.5 1225Z" fill="url(#fill38)" fill-rule="evenodd"/><path d="M2968.77 1225 2969.06 1222.35 2969.8 1219.84 2972.44 1215.73 2974.39 1214.08 2976.55 1212.86 2978.94 1212.06 2981.5 1211.77 2984.12 1212.06 2986.51 1212.86 2988.67 1214.08 2990.63 1215.74 2993.21 1219.85 2993.94 1222.35 2994.23 1225 2993.94 1227.64 2993.21 1230.21 2990.63 1234.25 2988.69 1235.97 2986.49 1237.21 2984.1 1237.94 2981.5 1238.23 2978.96 1237.94 2976.57 1237.21 2974.37 1235.97 2972.44 1234.26 2969.79 1230.22 2969.06 1227.64ZM2971.09 1227.25 2971.69 1229.36 2974.01 1232.9 2975.58 1234.28 2977.39 1235.31 2979.38 1235.91 2981.5 1236.15 2983.68 1235.91 2985.68 1235.31 2987.49 1234.28 2989.05 1232.9 2991.31 1229.36 2991.91 1227.25 2992.15 1225 2991.91 1222.75 2991.31 1220.7 2989.05 1217.1 2987.49 1215.78 2985.67 1214.75 2983.68 1214.09 2981.5 1213.85 2979.39 1214.09 2977.39 1214.75 2975.57 1215.78 2974.01 1217.1 2971.69 1220.71 2971.09 1222.75 2970.85 1225ZM2971.54 1225 2971.77 1222.89 2972.32 1221 2974.53 1217.56 2975.97 1216.35 2977.67 1215.38 2979.54 1214.76 2981.5 1214.54 2983.53 1214.76 2985.39 1215.38 2987.09 1216.35 2988.52 1217.56 2990.68 1220.99 2991.23 1222.89 2991.46 1225 2991.23 1227.11 2990.67 1229.07 2988.52 1232.45 2987.08 1233.72 2985.4 1234.67 2983.54 1235.24 2981.5 1235.46 2979.52 1235.24 2977.66 1234.67 2975.98 1233.72 2974.54 1232.44 2972.32 1229.07 2971.77 1227.11ZM2972.44 1226.98 2972.96 1228.78 2975.06 1231.99 2976.38 1233.16 2977.93 1234.04 2979.66 1234.56 2981.5 1234.77 2983.4 1234.56 2985.13 1234.04 2986.68 1233.16 2987.99 1232 2990.04 1228.79 2990.56 1226.98 2990.77 1225 2990.56 1223.02 2990.04 1221.27 2988 1218.01 2986.7 1216.92 2985.11 1216.02 2983.38 1215.44 2981.5 1215.23 2979.69 1215.44 2977.95 1216.02 2976.36 1216.92 2975.06 1218.02 2972.95 1221.28 2972.44 1223.02 2972.23 1225Z" fill="#FF0000"/><path d="M11.1145-10.8994 5.73133 19.3716-15.2556-3.09749Z" fill="#FF0000" transform="matrix(1 0 0 -1 2978.5 1233.87)"/><path d="M3549 435.75 3570.5 435.75 3570.5 426 3590 445.5 3570.5 465 3570.5 455.25 3549 455.25Z" stroke="#4472C4" stroke-width="2.29167" stroke-miterlimit="8" fill="url(#fill39)" fill-rule="evenodd"/></g></svg>